<svg width="113" height="112" viewBox="0 0 113 112" fill="none" xmlns="http://www.w3.org/2000/svg">
<g clip-path="url(#clip0_116_9307)">
<path d="M47.2802 73.6601C46.3802 73.6601 45.4702 73.4201 44.6802 72.9401L30.8802 65.0001C28.3802 63.5201 27.5402 60.3901 28.9402 57.8701L31.9102 52.8501C31.3402 51.9901 30.8102 51.1001 30.3302 50.1901H24.3802C21.5302 50.1701 19.2002 47.8401 19.1802 45.0001V29.0301C19.1802 26.1601 21.5102 23.8301 24.3802 23.8301H30.4602C30.9302 22.9001 31.4502 22.0001 32.0202 21.1201L29.0002 15.8201C27.5902 13.3301 28.4602 10.1501 30.9302 8.72007L44.5802 0.800065C45.7902 0.110065 47.1802 -0.0699349 48.5202 0.280065C49.8702 0.600065 51.0602 1.50007 51.7502 2.74007L54.6902 7.71006C55.7502 7.64006 56.8202 7.64006 57.8802 7.71006L60.9202 2.48007C62.5302 -0.0299349 65.7802 -0.729935 68.2102 0.830065L81.5102 8.66006C81.6602 8.69006 81.8002 8.74006 81.9302 8.82006C84.3702 10.3201 85.1502 13.5301 83.6702 15.9701L80.7402 21.0501C81.3702 21.9101 81.9502 22.8201 82.4702 23.7501H88.4302C91.3002 23.7501 93.6302 26.0801 93.6302 28.9501V44.8901C93.6302 47.7501 91.3002 50.0901 88.4402 50.1101H82.5002C82.0202 50.9901 81.5002 51.8501 80.9302 52.6801L83.8802 57.6801C85.3002 60.2201 84.4502 63.3401 81.9702 64.8101L68.1302 72.8001C67.3502 73.2401 66.4802 73.4701 65.6102 73.4801C65.1802 73.5301 64.7402 73.5301 64.3102 73.4701C64.2602 73.4601 64.2202 73.4501 64.1702 73.4401C62.8402 73.0901 61.7002 72.2501 60.9702 71.0801L58.0402 66.0601C56.9802 66.1301 55.9102 66.1301 54.8502 66.0601L51.8502 71.0901C51.1402 72.2801 49.9702 73.1501 48.6202 73.4801C48.1802 73.6001 47.7402 73.6601 47.2802 73.6601ZM31.0802 47.7201C31.5502 47.7201 31.9702 47.9801 32.1802 48.4001C32.8202 49.6801 33.5602 50.9201 34.3802 52.0901C34.6602 52.4901 34.6802 53.0101 34.4302 53.4201L31.0802 59.0801C30.3502 60.4001 30.8002 62.0701 32.1302 62.8601L45.9302 70.8101C46.5602 71.1901 47.3002 71.2901 47.9802 71.0901C48.7402 70.9101 49.3502 70.4501 49.7202 69.8201L53.1202 64.1301C53.3602 63.7201 53.8302 63.4901 54.3002 63.5401C55.7202 63.6801 57.1702 63.6801 58.5902 63.5401C59.0702 63.5001 59.5302 63.7301 59.7702 64.1501L63.0702 69.8201C63.4302 70.4101 64.0202 70.8501 64.7102 71.0501C64.9202 71.0701 65.1202 71.0701 65.3302 71.0401C65.3902 71.0301 65.4502 71.0301 65.5002 71.0301C65.5002 71.0301 65.5002 71.0301 65.5102 71.0301C65.9902 71.0301 66.4702 70.9001 66.9002 70.6701L80.7002 62.7001C82.0102 61.9301 82.4602 60.2601 81.7202 58.9201L78.3902 53.2601C78.1402 52.8401 78.1702 52.3101 78.4602 51.9101C79.2802 50.7801 80.0202 49.5801 80.6502 48.3301C80.8602 47.9201 81.2802 47.6601 81.7502 47.6601H88.4202C89.9202 47.6501 91.1502 46.4101 91.1502 44.9001V28.9501C91.1502 27.4401 89.9202 26.2201 88.4202 26.2201H81.7202C81.2602 26.2201 80.8402 25.9601 80.6202 25.5501C79.9602 24.2701 79.1802 23.0401 78.2902 21.9101C77.9802 21.5101 77.9402 20.9701 78.1902 20.5301L81.5402 14.7201C82.2902 13.4801 81.9702 11.9101 80.8602 11.0701C80.7402 11.0401 80.6202 10.9901 80.5102 10.9301L66.9202 2.93007C65.5902 2.08007 63.8702 2.45007 63.0402 3.74007L62.9402 3.93007L59.6202 9.63006C59.3802 10.0501 58.9102 10.2801 58.4402 10.2401C57.0202 10.1001 55.5702 10.1001 54.1502 10.2401C53.6702 10.2801 53.2102 10.0501 52.9702 9.64007L49.6002 3.96007C49.2302 3.29007 48.6202 2.83007 47.9102 2.66007C47.1802 2.47007 46.4402 2.56007 45.8002 2.93007L32.1602 10.8601C30.8502 11.6101 30.3902 13.3001 31.1402 14.6101L34.5402 20.5701C34.7702 20.9801 34.7502 21.4901 34.4902 21.8801C33.6802 23.0601 32.9602 24.3201 32.3402 25.6101C32.1402 26.0401 31.7002 26.3101 31.2302 26.3101H24.3802C22.8702 26.3101 21.6502 27.5401 21.6502 29.0401V45.0001C21.6602 46.4901 22.8902 47.7201 24.3902 47.7301H31.0802V47.7201ZM56.4302 48.1401H56.4002C50.2102 48.1401 45.1702 43.1001 45.1702 36.9101C45.1702 30.7201 50.2102 25.6801 56.4002 25.6801C62.5902 25.6801 67.6302 30.7201 67.6302 36.9101C67.6302 36.9201 67.6302 36.9401 67.6302 36.9601C67.6202 39.9401 66.4602 42.7501 64.3502 44.8601C62.2302 46.9701 59.4202 48.1401 56.4302 48.1401ZM56.4002 28.1401C51.5702 28.1401 47.6302 32.0701 47.6302 36.9101C47.6302 41.7501 51.5602 45.6801 56.4002 45.6801H56.4202C58.7602 45.6801 60.9502 44.7701 62.6002 43.1201C64.2502 41.4701 65.1602 39.2701 65.1602 36.9401C65.1602 36.9201 65.1602 36.9101 65.1602 36.8901C65.1602 32.0601 61.2302 28.1401 56.4002 28.1401Z" fill="#2043DF"/>
<path d="M102.53 63.1902C101.85 63.1902 101.3 62.6402 101.3 61.9602V37.1602H92.4102C91.7302 37.1602 91.1802 36.6102 91.1802 35.9302C91.1802 35.2502 91.7302 34.7002 92.4102 34.7002H102.53C103.21 34.7002 103.76 35.2502 103.76 35.9302V61.9602C103.76 62.6402 103.21 63.1902 102.53 63.1902Z" fill="#2043DF"/>
<path d="M94.75 76.5899C94.31 76.5899 93.89 76.3599 93.67 75.9499C92 72.8799 92 69.2199 93.67 66.1599C96.37 61.1999 102.6 59.3599 107.57 62.0599C112.53 64.7599 114.37 70.9899 111.67 75.9599C111.34 76.5599 110.6 76.7799 110 76.4499C109.4 76.1299 109.18 75.3799 109.51 74.7799C111.56 71.0099 110.16 66.2699 106.39 64.2199C102.62 62.1699 97.89 63.5699 95.83 67.3399C94.56 69.6699 94.56 72.4499 95.83 74.7799C96.16 75.3799 95.93 76.1299 95.34 76.4499C95.15 76.5399 94.95 76.5899 94.75 76.5899Z" fill="#2043DF"/>
<path d="M10.25 63.1899C9.57002 63.1899 9.02002 62.6399 9.02002 61.9599V35.9199C9.02002 35.2399 9.57002 34.6899 10.25 34.6899H20.52C21.2 34.6899 21.75 35.2399 21.75 35.9199C21.75 36.5999 21.2 37.1499 20.52 37.1499H11.48V61.9499C11.48 62.6399 10.93 63.1899 10.25 63.1899Z" fill="#2043DF"/>
<path d="M18.1801 76.5902C17.9801 76.5902 17.7801 76.5402 17.5901 76.4402C16.9901 76.1102 16.7701 75.3702 17.1001 74.7702C18.3701 72.4402 18.3701 69.6602 17.1001 67.3302C15.0501 63.5602 10.3101 62.1602 6.54013 64.2102C2.77013 66.2602 1.37013 71.0002 3.42013 74.7702C3.75013 75.3702 3.52013 76.1202 2.93013 76.4402C2.33013 76.7702 1.58013 76.5402 1.26013 75.9502C-1.43987 70.9902 0.400132 64.7502 5.36013 62.0502C10.3201 59.3502 16.5601 61.1902 19.2601 66.1502C20.9301 69.2202 20.9301 72.8802 19.2601 75.9402C19.0401 76.3502 18.6101 76.5902 18.1801 76.5902Z" fill="#2043DF"/>
<path d="M32.02 111.31H1.23C0.55 111.31 0 110.76 0 110.08V82.8399C0 82.1599 0.55 81.6099 1.23 81.6099H32.02C32.7 81.6099 33.25 82.1599 33.25 82.8399V110.08C33.25 110.76 32.7 111.31 32.02 111.31ZM2.46 108.85H30.78V84.0699H2.46V108.85Z" fill="#2043DF"/>
<path d="M71.7898 111.31H41.0098C40.3298 111.31 39.7798 110.76 39.7798 110.08V82.8399C39.7798 82.1599 40.3298 81.6099 41.0098 81.6099H71.7998C72.4798 81.6099 73.0298 82.1599 73.0298 82.8399V110.08C73.0298 110.76 72.4698 111.31 71.7898 111.31ZM42.2398 108.85H70.5598V84.0699H42.2398V108.85Z" fill="#2043DF"/>
<path d="M111.55 111.31H80.7598C80.0798 111.31 79.5298 110.76 79.5298 110.08V82.8399C79.5298 82.1599 80.0798 81.6099 80.7598 81.6099H111.55C112.23 81.6099 112.78 82.1599 112.78 82.8399V110.08C112.78 110.76 112.23 111.31 111.55 111.31ZM81.9898 108.85H110.31V84.0699H81.9898V108.85Z" fill="#2043DF"/>
<path d="M32.04 95.5999H20.52C19.84 95.5999 19.29 95.0499 19.29 94.3699V82.8399C19.29 82.1599 19.84 81.6099 20.52 81.6099C21.2 81.6099 21.75 82.1599 21.75 82.8399V93.1299H32.04C32.72 93.1299 33.27 93.6799 33.27 94.3599C33.27 95.0399 32.72 95.5999 32.04 95.5999Z" fill="#2043DF"/>
<path d="M71.79 95.5999H60.27C59.59 95.5999 59.04 95.0499 59.04 94.3699V82.8399C59.04 82.1599 59.59 81.6099 60.27 81.6099C60.95 81.6099 61.5 82.1599 61.5 82.8399V93.1299H71.79C72.47 93.1299 73.02 93.6799 73.02 94.3599C73.02 95.0399 72.47 95.5999 71.79 95.5999Z" fill="#2043DF"/>
<path d="M111.57 95.5999H100.02C99.34 95.5999 98.79 95.0499 98.79 94.3699V82.8399C98.79 82.1599 99.34 81.6099 100.02 81.6099C100.7 81.6099 101.25 82.1599 101.25 82.8399V93.1299H111.57C112.25 93.1299 112.8 93.6799 112.8 94.3599C112.8 95.0399 112.25 95.5999 111.57 95.5999Z" fill="#2043DF"/>
</g>
<defs>
<clipPath id="clip0_116_9307">
<rect width="112.91" height="111.31" fill="#2043DF"/>
</clipPath>
</defs>
</svg>
