<svg width="112" height="113" viewBox="0 0 112 113" fill="none" xmlns="http://www.w3.org/2000/svg">
<g clip-path="url(#clip0_116_9139)">
<path d="M16.3377 33.9744C16.1957 33.7004 16.0637 33.4467 15.9318 33.193C14.3691 30.2197 12.8368 27.2261 11.2436 24.263C10.8072 23.4411 10.8275 22.8119 11.4059 22.061C14.501 18.0729 18.0222 14.5212 22.0306 11.4363C22.8322 10.8173 23.4918 10.8275 24.3442 11.2841C27.2668 12.857 30.2299 14.3589 33.1524 15.9318C33.741 16.2464 34.1976 16.2971 34.8065 15.9521C37.2927 14.572 39.9209 13.5166 42.6507 12.7048C43.3103 12.512 43.6451 12.1568 43.8379 11.5175C44.802 8.3413 45.8167 5.18537 46.7706 1.999C47.0446 1.07556 47.5114 0.608768 48.5262 0.476848C53.5391 -0.162456 58.5419 -0.172604 63.5448 0.497143C64.5088 0.629063 64.9553 1.07556 65.209 1.94826C66.1628 5.12449 67.1878 8.28042 68.1315 11.4566C68.3446 12.1568 68.6896 12.512 69.3898 12.715C72.0789 13.5065 74.6666 14.5618 77.1122 15.9216C77.7718 16.2869 78.2589 16.2464 78.888 15.9115C81.77 14.3589 84.7027 12.8773 87.5846 11.3044C88.5385 10.7869 89.2488 10.8579 90.1114 11.5378C93.9574 14.5517 97.3771 17.9816 100.401 21.8174C101.091 22.6901 101.223 23.4005 100.655 24.4254C99.0718 27.2972 97.6105 30.2299 96.0681 33.1321C95.7636 33.7105 95.6825 34.1672 96.0275 34.7963C97.4076 37.3231 98.5035 39.9818 99.3153 42.7521C99.498 43.3711 99.8532 43.6654 100.452 43.8379C103.506 44.7613 106.54 45.7863 109.615 46.6488C110.894 47.004 111.462 47.6433 111.604 48.9726C112.112 53.8334 112.152 58.6738 111.503 63.5143C111.381 64.458 110.965 64.9349 110.072 65.2089C106.936 66.1527 103.821 67.1776 100.675 68.101C99.8938 68.3344 99.4676 68.6896 99.2443 69.4913C98.4731 72.1398 97.4076 74.6869 96.0782 77.102C95.7231 77.7413 95.7028 78.2284 96.0579 78.8779C97.6004 81.7294 99.0515 84.6215 100.614 87.4628C101.183 88.4877 101.152 89.2589 100.401 90.2027C97.3568 94.0284 93.9472 97.4583 90.1012 100.472C89.2488 101.142 88.5486 101.233 87.5846 100.706C84.7128 99.1225 81.7801 97.6511 78.888 96.0985C78.2487 95.7535 77.7617 95.7129 77.1122 96.0782C74.6666 97.438 72.0789 98.5035 69.3898 99.295C68.6998 99.498 68.3344 99.8531 68.1214 100.553C67.1776 103.73 66.1426 106.885 65.1988 110.062C64.935 110.945 64.4986 111.391 63.5346 111.523C58.5216 112.172 53.5188 112.172 48.5059 111.533C47.4911 111.401 47.0243 110.934 46.7402 110.021C45.7863 106.845 44.7715 103.679 43.8177 100.503C43.6248 99.8531 43.3001 99.5081 42.6304 99.3153C39.9006 98.5238 37.2927 97.4177 34.7862 96.068C34.1875 95.7433 33.7309 95.7433 33.1321 96.068C30.169 97.6612 27.1754 99.1732 24.2123 100.766C23.3904 101.213 22.7511 101.162 22.0103 100.584C18.0121 97.4887 14.4705 93.9573 11.3857 89.9591C10.7971 89.2082 10.7768 88.5588 11.2131 87.7469C12.7962 84.7838 14.3285 81.7903 15.9115 78.8271C16.2261 78.2284 16.2362 77.7718 15.9014 77.1629C14.5619 74.7072 13.4659 72.1297 12.6947 69.4405C12.4715 68.6693 12.0554 68.3547 11.3349 68.1315C8.19928 67.1877 5.08394 66.173 1.93816 65.2292C0.994421 64.9451 0.568219 64.4479 0.446447 63.4635C-0.18271 58.5318 -0.18271 53.6101 0.416004 48.6784C0.558071 47.5215 1.0756 47.0243 2.16141 46.7097C5.23615 45.8269 8.26016 44.8019 11.3248 43.8886C12.0554 43.6755 12.4715 43.3508 12.6947 42.5796C13.4862 39.8499 14.6025 37.2419 15.9521 34.7456C16.1145 34.4919 16.216 34.2281 16.3377 33.9744ZM109.717 55.5889C109.757 54.016 109.534 52.0372 109.392 50.0584C109.331 49.2771 109.037 48.8813 108.225 48.6479C105.16 47.7549 102.126 46.7199 99.0616 45.8167C98.0976 45.5326 97.5699 45.0658 97.3061 44.0713C96.4638 40.9255 95.2055 37.9421 93.5819 35.121C93.1151 34.3092 93.1658 33.6598 93.592 32.8683C95.1446 29.9863 96.6363 27.0638 98.1788 24.1717C98.4832 23.6136 98.5644 23.2178 98.1179 22.6597C95.5303 19.4632 92.6686 16.5711 89.4721 13.9834C88.8835 13.5065 88.4269 13.476 87.747 13.8414C84.865 15.4041 81.9425 16.8857 79.0504 18.4383C78.2893 18.8442 77.6602 18.8746 76.8991 18.4281C74.0882 16.7943 71.0946 15.5563 67.959 14.6938C66.9848 14.4198 66.4673 13.9428 66.1831 12.9788C65.2699 9.8736 64.2551 6.79886 63.3215 3.70381C63.1185 3.03406 62.8141 2.72963 62.0936 2.64845C58.0549 2.19181 54.0161 2.17151 49.9672 2.6383C49.2061 2.72963 48.8712 3.01377 48.6479 3.7444C47.7144 6.89019 46.6996 10.0055 45.7559 13.1412C45.5225 13.9022 45.147 14.3995 44.3352 14.6126C41.1082 15.465 38.0436 16.7334 35.1515 18.3875C34.2991 18.8746 33.6091 18.8036 32.7871 18.3571C29.9356 16.8146 27.0435 15.3635 24.192 13.8211C23.502 13.4456 23.0555 13.5268 22.4771 13.9936C19.3719 16.5508 16.5305 19.3718 13.9835 22.4872C13.5167 23.0554 13.4253 23.5019 13.8008 24.2021C15.3534 27.0435 16.7944 29.9457 18.3368 32.7871C18.8239 33.6801 18.8138 34.3904 18.3064 35.2631C16.703 38.0436 15.4955 41.0067 14.6532 44.1017C14.3995 45.0455 13.9124 45.5123 12.9991 45.7863C9.89394 46.7097 6.82934 47.7245 3.72415 48.6479C2.98337 48.8712 2.69923 49.2162 2.61805 49.9671C2.17155 54.0262 2.17155 58.065 2.63835 62.1037C2.71953 62.8445 3.03411 63.1287 3.69371 63.3316C6.75831 64.2551 9.79246 65.2698 12.8571 66.1628C13.8617 66.4571 14.4198 66.9442 14.6938 67.9792C15.5158 71.0844 16.7741 74.0273 18.3673 76.8077C18.8543 77.6601 18.8239 78.34 18.3673 79.1721C16.8248 82.0236 15.3534 84.9056 13.8312 87.7672C13.5167 88.3558 13.4253 88.8023 13.9023 89.3909C16.5102 92.6178 19.4328 95.5201 22.6597 98.128C23.1468 98.5238 23.5223 98.5238 24.0601 98.2396C26.9826 96.6668 29.9458 95.1649 32.8683 93.592C33.67 93.1557 34.3296 93.1455 35.1312 93.6123C37.9929 95.2461 41.0067 96.5145 44.1931 97.3669C45.0252 97.5902 45.492 98.0367 45.7356 98.8688C46.6894 102.045 47.7042 105.201 48.6682 108.377C48.8509 108.996 49.1452 109.29 49.8149 109.372C53.8943 109.838 57.9737 109.849 62.0632 109.382C62.8344 109.29 63.1185 108.945 63.3316 108.225C64.2551 105.12 65.2699 102.045 66.1933 98.95C66.4571 98.0773 66.9341 97.5902 67.8068 97.3568C70.9931 96.5044 74.007 95.2258 76.8687 93.6022C77.6297 93.176 78.2589 93.1658 79.02 93.5717C81.9121 95.1243 84.8346 96.6059 87.7165 98.1686C88.3761 98.5238 88.8328 98.5339 89.4315 98.0468C92.5874 95.4795 95.4389 92.6178 98.0063 89.472C98.5035 88.8632 98.4731 88.4065 98.1179 87.7469C96.5653 84.865 95.0736 81.9323 93.521 79.0504C93.105 78.2893 93.1354 77.6601 93.5616 76.8991C95.1751 74.0374 96.4638 71.0236 97.3162 67.8372C97.5496 66.9543 98.057 66.4875 98.9196 66.2237C102.055 65.28 105.181 64.2754 108.316 63.3316C108.925 63.149 109.25 62.8953 109.321 62.1951C109.554 60.1249 109.727 58.0751 109.717 55.5889Z" fill="#2043DF"/>
<path d="M48.8817 36.9272C56.3098 36.9577 61.9113 43.1478 61.1706 50.2207C61.0894 50.9513 61.3025 51.4181 61.8099 51.9154C65.5747 55.6497 69.3597 59.3739 73.0535 63.1793C76.25 66.4773 75.6412 71.5714 71.8662 74.0069C69.1061 75.7929 65.5747 75.4073 63.0682 72.9617C59.344 69.2984 55.6604 65.5945 51.9869 61.8804C51.4186 61.3121 50.891 61.099 50.0791 61.1904C41.8392 62.0631 34.9997 53.8637 37.3235 45.9282C37.7497 44.4771 38.6123 44.2437 39.7082 45.3194C41.1898 46.7604 42.6409 48.2216 44.0819 49.7133C44.569 50.2207 45.0053 50.3019 45.7562 50.2309C48.6382 49.967 49.9777 48.4144 50.2415 45.634C50.3024 45.0454 50.2922 44.6699 49.866 44.2539C48.354 42.7825 46.8725 41.2908 45.3909 39.799C44.2036 38.6016 44.4573 37.7086 46.0708 37.3129C46.5072 37.2114 46.9435 37.1201 47.3799 37.0693C47.9684 36.9678 48.5773 36.9475 48.8817 36.9272ZM39.353 48.0796C38.6529 54.3407 43.9804 59.5667 50.0791 58.8361C51.6419 58.6534 52.5349 59.1304 53.5395 60.1553C57.2434 63.9505 60.9879 67.7153 64.8034 71.4091C67.5027 74.0272 71.785 72.7689 72.6577 69.1664C73.0941 67.35 72.4751 65.8279 71.1762 64.5391C67.249 60.6221 63.332 56.6848 59.3947 52.7779C58.8163 52.1995 58.6235 51.6414 58.7554 50.8296C59.3846 47.1866 58.2785 44.0814 55.5285 41.6459C53.5294 39.8802 51.1649 39.0583 48.3845 39.4439C49.6022 40.8443 50.9011 42.1026 52.2305 43.3304C52.8089 43.8683 52.9408 44.4365 52.7175 45.1875C52.2406 46.8212 51.8043 48.4652 51.3983 50.1091C51.2258 50.8194 50.8402 51.2152 50.1197 51.3877C48.5063 51.7835 46.9029 52.1894 45.3199 52.6765C44.4675 52.9403 43.8485 52.7881 43.2599 52.1386C42.0422 50.8499 40.794 49.5814 39.353 48.0796Z" fill="#2043DF"/>
<path d="M66.3354 26.2113C66.9646 27.703 67.5734 29.1846 68.2127 30.6458C68.5375 31.3967 68.8114 32.1984 67.8576 32.6246C66.8631 33.061 66.4064 32.3608 66.0614 31.5287C65.1583 29.3571 64.2145 27.2058 63.3013 25.0443C62.7228 23.6744 62.8852 23.2583 64.2145 22.69C66.447 21.726 68.6795 20.7924 70.912 19.8284C71.6528 19.5037 72.3733 19.4022 72.7589 20.285C73.1344 21.1577 72.6168 21.6347 71.8456 21.9493C70.4655 22.5277 69.1057 23.1264 67.7358 23.715C67.817 24.2731 68.2838 24.2223 68.5679 24.3441C82.318 29.8137 90.7 43.0463 90.0201 58.2374C89.4011 72.1397 79.3143 84.733 65.5642 88.7718C65.2902 88.853 65.0264 88.9443 64.7422 88.995C64.042 89.1066 63.5245 88.8327 63.3418 88.1426C63.1693 87.5033 63.4839 87.0162 64.0826 86.793C64.7219 86.5494 65.4018 86.3871 66.0513 86.174C79.7912 81.6785 88.9445 68.0908 87.6354 53.7115C86.4481 40.6819 79.5883 31.6301 67.5937 26.4548C67.2994 26.3229 66.9849 26.2214 66.6804 26.1301C66.6195 26.0997 66.5384 26.1504 66.3354 26.2113Z" fill="#2043DF"/>
<path d="M45.5022 86.0117C44.7106 84.1445 44.0206 82.6021 43.4016 81.0292C43.0261 80.0854 43.3914 79.3751 44.2134 79.2635C44.8223 79.1924 45.2383 79.4766 45.4717 80.0042C46.5271 82.46 47.5824 84.9056 48.6175 87.3715C48.9524 88.1731 48.7291 88.782 47.8869 89.1372C45.4616 90.1621 43.0464 91.2073 40.6313 92.2424C39.9311 92.5468 39.3324 92.4453 38.9873 91.735C38.6119 90.9435 39.0178 90.4158 39.7484 90.1012C41.1894 89.472 42.6304 88.8632 44.1018 88.234C43.8582 87.7266 43.4219 87.7063 43.0667 87.5643C29.5601 82.0541 21.2289 68.72 21.99 53.7928C22.7003 39.8397 32.777 27.2363 46.3444 23.3193C46.4256 23.299 46.4966 23.2584 46.5778 23.2381C47.4201 23.0351 48.3638 22.7206 48.6682 23.918C48.9422 25.0139 48.0391 25.2372 47.2374 25.4807C38.4901 28.109 31.955 33.4568 27.7437 41.5445C19.1791 57.9432 26.8101 78.5227 43.9394 85.4333C44.3453 85.5956 44.7614 85.7377 45.5022 86.0117Z" fill="#2043DF"/>
</g>
<defs>
<clipPath id="clip0_116_9139">
<rect width="112" height="112.01" fill="white"/>
</clipPath>
</defs>
</svg>
