<svg width="108" height="116" viewBox="0 0 108 116" fill="none" xmlns="http://www.w3.org/2000/svg">
<path d="M1.36409 116C0.313878 115.378 -0.00299655 114.45 2.13096e-05 113.248C0.027182 99.5819 0.027182 85.9156 2.13096e-05 72.2463C-0.00299655 70.9655 0.43761 70.1469 1.56931 69.5185C12.7565 63.3168 23.9256 57.0757 35.1007 50.8528C37.2343 49.6656 38.5863 50.4843 38.5924 52.9674C38.6014 57.5741 38.5954 62.1779 38.5954 66.7847C38.5954 67.1925 38.5954 67.6003 38.5954 68.0172C39.1386 68.0595 39.4494 67.7453 39.7995 67.552C49.7946 61.9906 59.7868 56.4262 69.7789 50.8558C70.4428 50.4843 71.1037 50.1006 71.9034 50.3785C73.017 50.7652 73.2675 51.6503 73.2645 52.7197C73.2524 57.402 73.2585 62.0812 73.2585 66.7635C73.2585 67.1744 73.2585 67.5852 73.2585 68.2528C75.2623 67.129 77.1213 66.108 78.9532 65.0447C79.3726 64.8 79.2127 64.2864 79.2248 63.8877C79.4783 55.1333 79.7227 46.3789 79.9702 37.6246C80.2961 26.0004 80.622 14.3793 80.9359 2.75509C80.9691 1.5528 81.1954 0.495508 82.4599 -0.00292969C87.2794 -0.00292969 92.0989 -0.00292969 96.9184 -0.00292969C97.9898 0.522695 98.3248 1.40478 98.355 2.57082C98.7624 17.5421 99.206 32.5133 99.6224 47.4876C99.6768 49.4028 99.6285 51.321 99.6285 53.2151C99.9786 53.2423 100.069 53.2785 100.123 53.2513C101.575 52.4599 103.024 51.6594 104.472 50.8619C106.636 49.6686 107.979 50.448 107.979 52.916C107.982 73.0257 107.973 93.1384 107.997 113.248C107.997 114.45 107.683 115.378 106.633 115.997C71.5443 116 36.4557 116 1.36409 116ZM69.4047 55.5321C68.783 55.8613 68.3846 56.0637 67.9953 56.2812C58.0998 61.7912 48.2072 67.3042 38.3117 72.8142C36.0211 74.089 34.7416 73.3217 34.7386 70.6664C34.7355 65.9841 34.7144 61.3019 34.7567 56.6226C34.7657 55.6136 34.5454 55.5653 33.7246 56.0214C24.0403 61.4438 14.3439 66.8451 4.63847 72.2312C4.07111 72.5454 3.85081 72.8898 3.85081 73.5483C3.87193 86.0818 3.87193 98.6182 3.84779 111.152C3.84477 111.949 4.06809 112.161 4.85575 112.158C15.0953 112.133 25.3349 112.13 35.5715 112.158C36.3954 112.161 36.6639 111.973 36.6489 111.106C36.5945 107.859 36.6247 104.612 36.6277 101.367C36.6308 99.2314 37.2705 98.582 39.383 98.582C49.1337 98.5789 58.8814 98.5789 68.6321 98.582C70.6873 98.582 71.3572 99.2465 71.3602 101.28C71.3663 104.488 71.3995 107.699 71.3391 110.907C71.321 111.871 71.5262 112.173 72.5583 112.167C82.6832 112.121 92.8111 112.121 102.936 112.167C103.986 112.173 104.146 111.843 104.146 110.895C104.119 92.8484 104.128 74.802 104.119 56.7555C104.119 56.399 104.237 56.0184 104.004 55.674C103.546 55.6922 103.229 55.9822 102.876 56.1785C92.9138 61.7218 82.9548 67.271 72.9929 72.8173C70.7235 74.08 69.3986 73.2855 69.3956 70.6544C69.3896 67.709 69.3956 64.7637 69.3956 61.8184C69.4047 59.7914 69.4047 57.7584 69.4047 55.5321ZM83.2295 62.5555C83.652 62.5766 83.9326 62.2927 84.2525 62.1145C87.8407 60.1268 91.4109 58.1088 95.0172 56.1604C95.7928 55.7435 96.0403 55.2783 96.0101 54.4023C95.7355 45.9893 95.5121 37.5732 95.2677 29.1602C95.1108 23.6502 94.9327 18.1432 94.7999 12.6332C94.7788 11.8146 94.5464 11.5397 93.6924 11.5578C90.9823 11.6152 88.2723 11.6031 85.5623 11.5638C84.8108 11.5518 84.5211 11.73 84.5 12.5517C84.0624 28.8158 83.5976 45.077 83.145 61.3411C83.1389 61.7399 83.0303 62.1568 83.2295 62.5555ZM46.2034 102.452C44.5888 102.452 42.9713 102.47 41.3567 102.443C40.7622 102.434 40.4695 102.566 40.4785 103.249C40.5087 105.962 40.5057 108.675 40.4815 111.387C40.4755 111.991 40.7018 112.155 41.2722 112.152C44.616 112.13 47.9598 112.13 51.3006 112.152C51.9011 112.155 52.0761 111.934 52.0701 111.363C52.052 108.69 52.046 106.013 52.0731 103.34C52.0792 102.648 51.8407 102.424 51.1587 102.44C49.5079 102.479 47.8572 102.452 46.2034 102.452ZM61.685 112.139C63.2995 112.139 64.9171 112.112 66.5317 112.152C67.2137 112.167 67.5426 112.043 67.5276 111.242C67.4793 108.605 67.4883 105.968 67.5245 103.331C67.5336 102.627 67.2922 102.431 66.6162 102.437C63.3478 102.464 60.0795 102.467 56.8112 102.437C56.0929 102.431 55.9209 102.708 55.9269 103.367C55.9511 106.004 55.9571 108.641 55.9239 111.279C55.9149 111.991 56.1744 112.17 56.8413 112.155C58.4559 112.112 60.0704 112.139 61.685 112.139ZM89.6273 7.71832C90.3425 7.71832 91.0578 7.71832 91.77 7.71832C94.8482 7.71832 94.8301 7.71832 94.5796 4.66728C94.5283 4.04499 94.3352 3.83353 93.7044 3.84561C91.7126 3.88186 89.7178 3.8577 87.723 3.8577C84.6086 3.8577 84.6267 3.8577 84.6931 6.94801C84.7052 7.52801 84.844 7.74551 85.4476 7.7304C86.8418 7.69113 88.2361 7.71832 89.6273 7.71832Z" fill="#0C66F3"/>
</svg>
