<svg width="14" height="10" viewBox="0 0 14 10" fill="none" xmlns="http://www.w3.org/2000/svg">
<path d="M4.53124 9.76568L0.182291 5.44278C0.0607636 5.32125 0 5.165 0 4.97403C0 4.78306 0.0607636 4.62681 0.182291 4.50528L1.14583 3.56778C1.26736 3.42889 1.41927 3.35946 1.60156 3.35946C1.78385 3.35946 1.94444 3.42889 2.08333 3.56778L4.99999 6.48444L11.25 0.234456C11.3889 0.0955675 11.5495 0.026123 11.7317 0.026123C11.914 0.026123 12.0659 0.0955675 12.1875 0.234456L13.151 1.17195C13.2725 1.29348 13.3333 1.44973 13.3333 1.6407C13.3333 1.83167 13.2725 1.98792 13.151 2.10945L5.46874 9.76568C5.34721 9.90457 5.19096 9.97402 4.99999 9.97402C4.80902 9.97402 4.65277 9.90457 4.53124 9.76568Z" fill="#36B37E"/>
</svg>
