<svg width="191" height="43" viewBox="0 0 191 43" fill="none" xmlns="http://www.w3.org/2000/svg">
<path d="M20.32 41.3301C19.54 41.6101 18.73 41.8301 17.89 41.9801C17.01 42.1401 16.1 42.2201 15.18 42.2201C14.25 42.2201 13.33 42.1401 12.44 41.9701C10.64 41.6401 8.96 41.0001 7.44 40.1001C2.99 37.4601 0 32.6001 0 27.0401C0 21.5601 2.9 16.7501 7.26 14.0801C8.76 13.1601 10.44 12.4901 12.23 12.1401C13.18 11.9501 14.17 11.8501 15.18 11.8501C16.18 11.8501 17.16 11.9501 18.11 12.1301C18.92 12.2901 19.7 12.5101 20.45 12.7901C19.05 14.1201 17.84 15.6501 16.87 17.3401C16.63 17.3001 16.4 17.2701 16.16 17.2401C15.84 17.2101 15.51 17.1901 15.18 17.1901C14.84 17.1901 14.5 17.2101 14.18 17.2401C12.32 17.4301 10.62 18.1301 9.22 19.2001C6.86 21.0001 5.34 23.8301 5.34 27.0301C5.34 30.3001 6.94 33.2001 9.39 34.9901C10.82 36.0301 12.53 36.7001 14.4 36.8401C14.66 36.8601 14.92 36.8701 15.18 36.8701C15.44 36.8701 15.69 36.8601 15.94 36.8401C16.23 36.8201 16.51 36.7801 16.78 36.7401C17.74 38.4501 18.93 39.9901 20.32 41.3301Z" fill="white"/>
<path d="M37.6699 7.76C36.4799 7.53 35.2399 7.42 33.9899 7.42C32.8999 7.42 31.8299 7.51 30.7899 7.68C29.0699 6.22 26.8399 5.34 24.4099 5.34C21.6599 5.34 19.1699 6.47 17.3799 8.28C16.7199 8.21 16.0499 8.17 15.3699 8.17C13.7299 8.17 12.1399 8.38 10.6299 8.78C13.0499 3.59 18.3099 0 24.4199 0C30.1099 0 35.0699 3.13 37.6699 7.76Z" fill="white"/>
<path d="M50.66 27.0301C50.66 25.9101 50.5401 24.8201 50.3101 23.7701L45.18 28.8701C44.6301 31.8601 42.7201 34.3701 40.1301 35.7601L40.1101 35.7401C38.74 36.4701 37.17 36.8801 35.51 36.8801C30.59 36.8801 26.5101 33.2601 25.7901 28.5401C25.7501 28.3101 25.73 28.0701 25.71 27.8401C25.69 27.5801 25.68 27.3101 25.68 27.0401C25.68 21.6101 30.08 17.2001 35.5201 17.2001C35.5701 17.2001 35.63 17.2001 35.68 17.2001C35.8101 17.2001 35.94 17.2101 36.07 17.2101C36.15 17.2101 36.2301 17.2201 36.3101 17.2301C36.4901 17.2401 36.67 17.2601 36.85 17.2901C36.9 17.3001 36.9501 17.3101 36.9901 17.3101C37.1401 17.3301 37.3001 17.3601 37.4501 17.3901C37.51 17.4001 37.56 17.4101 37.62 17.4301C37.8 17.4701 37.98 17.5101 38.16 17.5601C38.21 17.5701 38.2601 17.5901 38.3101 17.6001C38.4601 17.6401 38.6001 17.6901 38.7401 17.7401C38.7901 17.7601 38.84 17.7701 38.89 17.7901C39.07 17.8601 39.25 17.9301 39.42 18.0001C39.5 18.0301 39.58 18.0701 39.66 18.1101C39.7801 18.1701 39.9 18.2201 40.0201 18.2801C40.09 18.3201 40.1601 18.3501 40.2201 18.3901C40.3201 18.4401 40.42 18.5001 40.5201 18.5601L31.43 27.6501L35.59 31.0401L44.2001 22.4301L44.2201 22.4101L48.07 18.5601L48.09 18.5401C47.16 17.1601 46 15.9501 44.68 14.9401C44.65 14.9101 44.6101 14.8901 44.5801 14.8701C44.5101 14.8201 44.44 14.7601 44.37 14.7101C44.11 14.5201 43.84 14.3401 43.57 14.1701C43.55 14.1601 43.53 14.1401 43.51 14.1301C43.42 14.0701 43.3201 14.0101 43.2201 13.9601C43.1601 13.9301 43.11 13.8901 43.05 13.8601C42.96 13.8101 42.8801 13.7601 42.7901 13.7101C42.7201 13.6701 42.6401 13.6301 42.5601 13.5901C42.4901 13.5501 42.41 13.5101 42.34 13.4701C42.1901 13.3901 42.0401 13.3201 41.8801 13.2501C41.8601 13.2401 41.8301 13.2301 41.8101 13.2201C41.6601 13.1501 41.52 13.0901 41.37 13.0301C41.34 13.0201 41.31 13.0001 41.28 12.9901C41.13 12.9301 40.97 12.8701 40.82 12.8101C40.81 12.8101 40.79 12.8001 40.78 12.8001C39.13 12.1901 37.34 11.8501 35.48 11.8501C27.1 11.8501 20.3 18.6501 20.3 27.0301C20.3 34.4901 25.68 40.6801 32.7701 41.9601C32.8201 41.9701 32.88 41.9801 32.93 41.9901C33.0701 42.0101 33.2 42.0401 33.34 42.0501C33.43 42.0601 33.53 42.0701 33.62 42.0901C33.8 42.1101 33.9701 42.1301 34.1501 42.1501C34.2901 42.1601 34.4201 42.1701 34.5601 42.1801C34.6501 42.1901 34.7401 42.1901 34.8301 42.1901C35.0301 42.2001 35.23 42.2001 35.44 42.2101C35.46 42.2101 35.4701 42.2101 35.4901 42.2101H35.5H35.51C35.75 42.2101 35.99 42.2001 36.23 42.1901C36.26 42.1901 36.3001 42.1901 36.3301 42.1801C36.5601 42.1701 36.7901 42.1501 37.0201 42.1301C37.0301 42.1301 37.04 42.1301 37.05 42.1301C39.6 41.8701 41.9701 40.9801 43.9901 39.6201L43.98 39.6101C48.01 36.8801 50.66 32.2701 50.66 27.0301Z" fill="white"/>
<path d="M58.48 21.1702C58.48 15.7402 63.21 11.1802 68.75 11.1802C71.68 11.1802 74.38 12.4202 76.27 14.4202L73.26 17.1202C72.13 15.8302 70.53 14.9502 68.76 14.9502C65.52 14.9502 62.76 17.8202 62.76 21.1702C62.76 24.5502 65.52 27.4202 68.76 27.4202C70.53 27.4202 72.14 26.5502 73.26 25.2502L76.27 27.9502C74.38 29.9202 71.68 31.1902 68.75 31.1902C63.21 31.1902 58.48 26.6002 58.48 21.1702Z" fill="white"/>
<path d="M78.73 11.1802H82.84V30.8602H78.73V11.1802Z" fill="white"/>
<path d="M84.47 23.56C84.47 19.42 88.1 15.96 92.44 15.96C96.75 15.96 100.35 19.42 100.35 23.56C100.35 27.7 96.75 31.19 92.44 31.19C88.1 31.19 84.47 27.7 84.47 23.56ZM96.43 23.56C96.43 21.31 94.6 19.42 92.43 19.42C90.23 19.42 88.41 21.31 88.41 23.56C88.41 25.81 90.24 27.73 92.43 27.73C94.6 27.73 96.43 25.82 96.43 23.56Z" fill="white"/>
<path d="M115.77 16.3003V30.8503H111.66V29.0203C110.79 30.3403 109.15 31.1903 107.27 31.1903C104.12 31.1903 101.87 28.8503 101.87 25.5603V16.3003H105.84V24.6903C105.84 26.4903 106.97 27.7303 108.6 27.7303C110.32 27.7303 111.64 26.4903 111.64 24.9203L111.67 25.0003V16.3003H115.77Z" fill="white"/>
<path d="M133.15 11.1802V30.8602H129.04V28.7802C127.89 30.3002 126.2 31.2002 124.14 31.2002C120.26 31.2002 117.44 28.0502 117.44 23.5702C117.44 19.1202 120.25 15.9702 124.14 15.9702C126.2 15.9702 127.88 16.8702 129.04 18.3902V11.1802H133.15ZM129.04 23.5602C129.04 21.1402 127.49 19.4202 125.32 19.4202C123.04 19.4202 121.44 21.1402 121.44 23.5602C121.44 26.0102 123.04 27.7302 125.32 27.7302C127.49 27.7302 129.04 26.0102 129.04 23.5602Z" fill="white"/>
<path d="M140.44 15.26V19.12H150.15V22.86H140.44V27.11H151.16V30.85H136.27V11.52H151.16V15.26H140.44Z" fill="white"/>
<path d="M152.77 16.3003H157.08L160.99 26.1203L164.82 16.3003H169.1L162.88 30.8503H159.08L152.77 16.3003Z" fill="white"/>
<path d="M168.65 23.56C168.65 19.42 172.28 15.96 176.62 15.96C180.93 15.96 184.53 19.42 184.53 23.56C184.53 27.7 180.93 31.19 176.62 31.19C172.28 31.19 168.65 27.7 168.65 23.56ZM180.61 23.56C180.61 21.31 178.78 19.42 176.61 19.42C174.41 19.42 172.59 21.31 172.59 23.56C172.59 25.81 174.42 27.73 176.61 27.73C178.78 27.73 180.61 25.82 180.61 23.56Z" fill="white"/>
<path d="M186.19 11.1802H190.3V30.8602H186.19V11.1802Z" fill="white"/>
</svg>
