<svg width="117" height="111" viewBox="0 0 117 111" fill="none" xmlns="http://www.w3.org/2000/svg">
<g clip-path="url(#clip0_116_9174)">
<path d="M98.4521 70.7474H91.6096C90.8194 70.7474 90.1855 70.1072 90.1855 69.3286V66.3354H85.8698C85.1752 66.3354 84.576 65.8336 84.4631 65.1502C83.8379 61.3871 82.327 57.7623 80.1041 54.6566C79.696 54.0943 79.7654 53.3157 80.2517 52.8313L83.2909 49.7948L79.036 45.5559L76.4484 48.1338C76.0923 48.4885 75.58 48.6269 75.0938 48.5058C74.6335 48.3934 74.0952 48.3069 73.5828 48.2376C73.3831 48.2117 73.1834 48.1338 73.0098 48.03C71.9591 47.3639 70.8476 46.7583 69.7101 46.2479C67.765 45.3742 65.707 44.7513 63.6056 44.3966C62.9196 44.2842 62.416 43.6873 62.416 42.9952V38.6957H56.4418V42.9779C56.4418 43.67 55.9382 44.2669 55.2522 44.3793C51.4749 45.0022 47.8366 46.5075 44.7193 48.7221C44.1548 49.1287 43.3733 49.0595 42.8784 48.575L39.8218 45.5386L35.5583 49.7862L38.6062 52.8226C39.1011 53.3157 39.1619 54.0857 38.7538 54.6566C36.5221 57.7623 35.0199 61.3871 34.3947 65.1502C34.2818 65.8336 33.6827 66.344 32.988 66.344H28.6724V69.3372C28.6724 70.1245 28.0298 70.756 27.2483 70.756H21.1004C21.1004 70.756 21.0918 70.756 21.0831 70.756C10.2028 70.756 0.963655 62.2954 0.060583 51.4904C-0.859856 40.348 7.11149 30.4946 18.0612 28.9201C18.1915 25.9875 18.8514 23.1413 20.015 20.4249C22.5853 14.4558 27.3351 9.84485 33.3874 7.4399C39.1532 5.1474 45.44 5.1128 51.1971 7.32743C58.3261 0.951703 68.0428 -1.4619 77.3862 0.865194C84.8452 2.72514 91.1233 7.36204 95.0742 13.9281C98.7039 19.9578 99.9717 26.9477 98.7039 33.7993C108.811 33.9377 116.991 42.1647 116.991 52.269C117 62.4598 108.681 70.7474 98.4521 70.7474ZM93.0336 67.9099H98.4521C107.101 67.9099 114.143 60.894 114.143 52.2776C114.143 43.6613 107.101 36.6454 98.4521 36.6454C98.4087 36.6454 98.3652 36.6454 98.3218 36.6368C97.8963 36.6368 97.4969 36.6454 97.1322 36.6973C96.6633 36.7665 96.1857 36.6022 95.8644 36.2475C95.5431 35.8928 95.4216 35.4083 95.5345 34.9498C97.219 28.2627 96.1857 21.316 92.6168 15.3987C89.0567 9.48151 83.3951 5.30312 76.6828 3.62484C67.9994 1.46211 58.9513 3.84976 52.4735 10.0092C52.0567 10.4072 51.4489 10.511 50.9279 10.286C45.6397 8.01951 39.7871 7.9503 34.4381 10.0698C29.0892 12.1979 24.8951 16.2725 22.6287 21.5409C21.4651 24.2313 20.8834 27.0775 20.8834 30.0102V30.1832C20.8834 30.9185 20.3189 31.5414 19.5722 31.6019C9.55153 32.4411 2.07513 41.2477 2.91742 51.2309C3.69892 60.5739 11.6876 67.8925 21.1004 67.8925C21.1004 67.8925 21.1091 67.8925 21.1178 67.8925H25.8416V64.8993C25.8416 64.1121 26.4841 63.4806 27.2656 63.4806H31.8244C32.5365 60.1154 33.8824 56.8713 35.7667 53.9819L32.5451 50.7724C31.9894 50.2187 31.9894 49.319 32.5451 48.7654L38.8232 42.5107C39.379 41.9571 40.282 41.9571 40.8378 42.5107L44.068 45.7202C46.9596 43.843 50.2158 42.5021 53.5937 41.7927V37.2596C53.5937 36.4724 54.2363 35.8409 55.0178 35.8409H63.8575C64.6476 35.8409 65.2815 36.481 65.2815 37.2596V41.8014C67.2092 42.2166 69.0935 42.8308 70.891 43.6354C72.0633 44.1631 73.2008 44.7686 74.2949 45.4434C74.5207 45.478 74.7551 45.5126 74.9896 45.5559L78.0374 42.5194C78.5758 41.983 79.5223 41.983 80.052 42.5194L86.3301 48.774C86.5993 49.0422 86.7469 49.4055 86.7469 49.7775C86.7469 50.1495 86.5993 50.5128 86.3301 50.781L83.1172 53.9905C85.0015 56.8799 86.3474 60.124 87.0595 63.4892H91.6183C92.4084 63.4892 93.0423 64.1294 93.0423 64.908V67.9099H93.0336Z" fill="white"/>
<path d="M74.9807 48.9989C74.6942 48.9989 74.399 48.9124 74.1471 48.7308C73.9301 48.5837 73.713 48.4453 73.4872 48.3069C73.3309 48.2117 73.1659 48.1165 73.0096 48.0127C72.4452 47.6494 72.2107 46.9487 72.4452 46.3171C72.6797 45.6943 73.3222 45.305 73.9822 45.4088C74.5205 45.4867 75.1023 45.5732 75.7623 45.7289C76.2659 45.8413 76.674 46.222 76.8129 46.7237C76.9519 47.2255 76.8129 47.7532 76.4482 48.1252L75.988 48.5837C75.7188 48.8519 75.3541 48.9989 74.9807 48.9989Z" fill="white"/>
<path d="M63.849 102.765H55.018C54.2278 102.765 53.5939 102.124 53.5939 101.346V96.8128C50.2161 96.1034 46.9598 94.7625 44.0682 92.8853L40.838 96.0948C40.2823 96.6484 39.3792 96.6484 38.8235 96.0948L32.5454 89.8402C32.2762 89.572 32.1286 89.2086 32.1286 88.8367C32.1286 88.4647 32.2762 88.1013 32.5541 87.8331L35.7756 84.6496C33.9087 81.7602 32.5627 78.5248 31.8333 75.1682H27.2659C26.4757 75.1682 25.8418 74.528 25.8418 73.7494V64.9255C25.8418 64.1383 26.4844 63.5068 27.2659 63.5068H31.8073C32.5193 60.1415 33.8652 56.8974 35.7495 54.008L32.528 50.7985C31.9723 50.2449 31.9723 49.3452 32.528 48.7915L38.8061 42.5369C39.3618 41.9833 40.2649 41.9833 40.8206 42.5369L44.0509 45.7464C46.9424 43.8692 50.1987 42.5283 53.5765 41.8189V37.2771C53.5765 36.4899 54.2191 35.8584 55.0006 35.8584H63.8403C64.6305 35.8584 65.2644 36.4986 65.2644 37.2771V41.8102C67.1921 42.2255 69.0764 42.8397 70.8739 43.6442C72.1416 44.2065 73.366 44.8727 74.5382 45.6166C74.6164 45.6685 74.6945 45.7118 74.764 45.7637L78.0116 42.5283C78.5673 41.9746 79.4704 41.9746 80.0262 42.5283L86.3042 48.7829C86.5734 49.0511 86.721 49.4144 86.721 49.7864C86.721 50.1584 86.5734 50.5217 86.3042 50.7899L83.0914 53.9994C84.9757 56.8888 86.3216 60.1329 87.0336 63.4981H91.6098C92.4 63.4981 93.0339 64.1383 93.0339 64.9169V73.7408C93.0339 74.528 92.3913 75.1595 91.6098 75.1595H87.051C86.339 78.5248 84.9844 81.7688 83.1088 84.6496L86.3303 87.8591C86.886 88.4128 86.886 89.3125 86.3303 89.8661L80.0522 96.1207C79.783 96.3889 79.4183 96.536 79.0449 96.536C78.6629 96.536 78.3068 96.3889 78.0377 96.1207L74.8161 92.9112C71.9159 94.7885 68.6683 96.1294 65.2818 96.8388V101.346C65.2818 102.124 64.6392 102.765 63.849 102.765ZM56.4421 99.9185H62.4249V95.6536C62.4249 94.9615 62.9286 94.3646 63.6145 94.2521C67.3918 93.6293 71.0388 92.124 74.1475 89.9094C74.7119 89.5028 75.4934 89.572 75.9884 90.0651L79.0362 93.1016L83.2998 88.854L80.2606 85.8175C79.7656 85.3244 79.7049 84.5544 80.113 83.9921C82.3359 80.8865 83.8382 77.2617 84.472 73.4986C84.5849 72.8151 85.1841 72.3134 85.8788 72.3134H90.1944V66.327H85.8614C85.1667 66.327 84.5676 65.8252 84.4547 65.1418C83.8295 61.3786 82.3186 57.7452 80.0956 54.6482C79.6875 54.0859 79.757 53.3073 80.2432 52.8229L83.2824 49.7864L79.0276 45.5474L75.9797 48.5839C75.4847 49.077 74.7119 49.1376 74.1388 48.731C73.9304 48.5753 73.7046 48.4455 73.4789 48.3071C73.3226 48.2119 73.1576 48.1168 73.0013 48.0129C71.9506 47.3468 70.8391 46.7499 69.7016 46.2395C67.7565 45.3658 65.6986 44.7429 63.5972 44.3882C62.9112 44.2757 62.4076 43.6788 62.4076 42.9868V38.7046H56.4247V43.0041C56.4247 43.6961 55.9211 44.293 55.2351 44.4055C51.4578 45.0284 47.8195 46.5336 44.7021 48.7483C44.1377 49.1549 43.3562 49.0857 42.8612 48.6012L39.8047 45.5647L35.5411 49.8123L38.589 52.8488C39.084 53.3419 39.1448 54.1118 38.7366 54.6828C36.505 57.7885 35.0028 61.4132 34.3776 65.1764C34.2647 65.8598 33.6655 66.3702 32.9709 66.3702H28.6726V72.348H32.9882C33.6829 72.348 34.2734 72.8498 34.3949 73.5332C35.0375 77.2877 36.5484 80.9211 38.754 84.0354C39.1534 84.5977 39.0927 85.3763 38.5977 85.8607L35.5585 88.8713L39.8134 93.1102L42.8699 90.0737C43.3649 89.5806 44.1377 89.5201 44.7108 89.9267C47.8281 92.1413 51.4665 93.6466 55.2438 94.2694C55.9297 94.3819 56.4334 94.9788 56.4334 95.6709V99.9185H56.4421ZM59.4378 85.7656H59.4291C55.018 85.7656 50.8673 84.0527 47.75 80.9384C44.6327 77.8327 42.9133 73.6975 42.9133 69.3029C42.9133 64.9082 44.6327 60.7731 47.7587 57.6674C50.876 54.5617 55.0267 52.8488 59.4291 52.8488C59.4291 52.8488 59.4291 52.8488 59.4378 52.8488C68.5467 52.8488 75.9536 60.2367 75.945 69.3115C75.945 78.3863 68.538 85.7656 59.4378 85.7656ZM59.4291 82.9281H59.4378C66.9663 82.9281 73.0968 76.8205 73.0968 69.3202C73.0968 61.8112 66.975 55.7036 59.4378 55.7036C59.4378 55.7036 59.4378 55.7036 59.4291 55.7036C55.7821 55.7036 52.3522 57.1224 49.7732 59.683C47.1943 62.2524 45.7702 65.6695 45.7702 69.3115C45.7702 72.9449 47.1856 76.3707 49.7645 78.94C52.3435 81.5093 55.7734 82.9194 59.4291 82.9281Z" fill="white"/>
<path d="M59.4288 85.7742C55.0177 85.7742 50.8757 84.0613 47.7497 80.9556C44.6323 77.8499 42.913 73.7148 42.9043 69.3201C42.8956 64.9255 44.615 60.7903 47.741 57.6846C50.8583 54.579 55.009 52.8661 59.4201 52.8574H59.4288C68.5377 52.8574 75.9446 60.2367 75.9446 69.3115C75.9446 78.3863 68.5377 85.7655 59.4288 85.7742C59.4375 85.7742 59.4288 85.7742 59.4288 85.7742ZM59.4288 54.2848V55.7036C55.7818 55.7036 52.3432 57.1223 49.7642 59.6917C47.1852 62.261 45.7612 65.6867 45.7698 69.3201C45.7698 72.9535 47.1939 76.3706 49.7729 78.9486C52.3519 81.5179 55.7818 82.928 59.4288 82.928C66.9573 82.928 73.0878 76.8205 73.0878 69.3115C73.0878 61.8025 66.9573 55.6949 59.4201 55.6949L59.4288 54.2848ZM59.3507 76.9416C55.2347 76.9416 51.883 73.611 51.8656 69.5104C51.8656 69.4672 51.8656 69.372 51.8656 69.2682C51.9872 65.185 55.4431 61.9495 59.5591 62.0793C63.4926 62.2004 66.6708 65.3667 66.7923 69.2855C66.7923 69.3634 66.7923 69.4672 66.7923 69.5624C66.775 73.5677 63.4405 76.907 59.3594 76.9329C59.3594 76.9416 59.3507 76.9416 59.3507 76.9416ZM59.3333 64.9255C56.8499 64.9255 54.8006 66.8979 54.7224 69.3807C54.7224 69.398 54.7224 69.4845 54.7224 69.5018C54.7311 72.0365 56.8064 74.0954 59.3507 74.1041C61.8775 74.0781 63.9355 72.0192 63.9529 69.5018C63.9529 69.4931 63.9529 69.3893 63.9529 69.3807C63.8747 66.9584 61.9123 65.0033 59.4809 64.9255C59.4288 64.9255 59.3767 64.9255 59.3333 64.9255Z" fill="white"/>
<path d="M59.3508 76.4654C55.4867 76.4654 52.2044 73.4982 51.8918 69.5966C51.8831 69.4582 51.8831 69.3457 51.8918 69.2333C52.0133 65.349 55.1915 62.1828 59.125 62.0617C61.1396 61.9924 63.0152 62.7191 64.474 64.0773C65.9241 65.4355 66.7577 67.2782 66.8272 69.2592C66.8359 69.3717 66.8272 69.4755 66.8272 69.588C66.5146 73.2906 63.6317 76.154 59.9586 76.4481C59.7502 76.4568 59.5505 76.4654 59.3508 76.4654ZM59.3595 64.8992C59.3074 64.8992 59.264 64.8992 59.2119 64.8992C56.7805 64.977 54.8181 66.9321 54.7399 69.3544C54.9396 71.9064 57.1713 73.8096 59.7242 73.602C61.9992 73.4203 63.788 71.6469 63.9704 69.3803C63.9704 69.3717 63.9704 69.363 63.9704 69.3457C63.9356 68.1173 63.4146 66.9754 62.5202 66.1362C61.6519 65.3404 60.5404 64.8992 59.3595 64.8992Z" fill="white"/>
<path d="M100.232 70.5919L97.3843 70.3929C97.4277 69.8047 97.4277 69.1905 97.4277 68.5503H100.285C100.285 69.2164 100.285 69.8998 100.232 70.5919Z" fill="white"/>
<path d="M58.4998 111C57.8138 111 57.1278 110.983 56.4505 110.948L56.5895 108.111C57.8659 108.172 59.1684 108.172 60.4536 108.111L60.6012 110.948C59.9065 110.983 59.2032 111 58.4998 111ZM52.3259 110.542C50.9626 110.334 49.5993 110.057 48.2621 109.72L48.9741 106.969C50.2159 107.289 51.4923 107.549 52.7514 107.739L52.3259 110.542ZM64.7258 110.533L64.3003 107.722C65.5681 107.531 66.8359 107.272 68.0776 106.952L68.7896 109.703C67.4524 110.049 66.0804 110.326 64.7258 110.533ZM44.3025 108.483C43.0087 108.007 41.7235 107.462 40.4905 106.857L41.7409 104.305C42.8958 104.867 44.0854 105.369 45.2924 105.81L44.3025 108.483ZM72.7406 108.466L71.7507 105.801C72.949 105.36 74.1473 104.85 75.2935 104.287L76.5439 106.839C75.3195 107.445 74.0344 107.99 72.7406 108.466ZM36.8608 104.867C35.6886 104.149 34.5424 103.362 33.4482 102.522L35.1849 100.265C36.2096 101.043 37.2776 101.778 38.363 102.445L36.8608 104.867ZM80.1822 104.841L78.68 102.427C79.7654 101.753 80.8422 101.017 81.8581 100.239L83.5948 102.497C82.492 103.327 81.3458 104.123 80.1822 104.841ZM30.2875 99.858C29.2889 98.9237 28.3164 97.9288 27.4046 96.8994L29.5407 95.0221C30.3917 95.991 31.3034 96.9167 32.2326 97.7818L30.2875 99.858ZM86.7469 99.8234L84.8018 97.7472C85.7396 96.8734 86.6427 95.9478 87.485 94.9789L89.6298 96.8561C88.718 97.8942 87.7455 98.8891 86.7469 99.8234ZM24.817 93.6726C24.0094 92.5566 23.2539 91.3974 22.5593 90.2122L25.0254 88.7848C25.6679 89.8921 26.38 90.9735 27.1267 92.0116L24.817 93.6726ZM92.2087 93.6293L89.8903 91.9683C90.637 90.9302 91.3491 89.8489 91.9917 88.7416L94.4577 90.169C93.7718 91.3541 93.0076 92.522 92.2087 93.6293ZM20.6489 86.5529C20.0758 85.3071 19.5548 84.0181 19.1033 82.7292L21.7951 81.7949C22.2206 83.006 22.6982 84.2085 23.2366 85.3677L20.6489 86.5529ZM96.3681 86.5096L93.7718 85.3244C94.3101 84.1652 94.7877 82.9627 95.2132 81.7516L97.905 82.6859C97.4622 83.9749 96.9412 85.2639 96.3681 86.5096ZM17.9397 78.767C17.6184 77.4348 17.3492 76.068 17.1582 74.7184L19.9803 74.3205C20.1627 75.5835 20.4058 76.8552 20.7097 78.1009L17.9397 78.767ZM99.0773 78.7151L96.3073 78.049C96.6112 76.8119 96.8544 75.5316 97.028 74.2686L99.8501 74.6665C99.6591 76.0247 99.3986 77.3915 99.0773 78.7151Z" fill="white"/>
<path d="M16.7675 70.5658C16.7328 69.8997 16.7241 69.2163 16.7241 68.5415H19.581C19.581 69.1644 19.5896 69.7959 19.6244 70.4101L16.7675 70.5658Z" fill="white"/>
<path d="M29.8881 32.8649H27.0312V32.7265C27.0312 30.1139 27.5523 27.5705 28.5943 25.1656C30.6175 20.4681 34.36 16.8347 39.1272 14.9402C43.8944 13.0456 49.1218 13.1148 53.8369 15.1305L52.708 17.7431C48.6876 16.0215 44.2417 15.9696 40.1779 17.5787C36.1141 19.1964 32.9273 22.2848 31.208 26.2902C30.3223 28.3318 29.8794 30.5032 29.8794 32.7265V32.8649H29.8881Z" fill="white"/>
</g>
<defs>
<clipPath id="clip0_116_9174">
<rect width="117" height="111" fill="white"/>
</clipPath>
</defs>
</svg>
