<svg width="119" height="121" viewBox="0 0 119 121" fill="none" xmlns="http://www.w3.org/2000/svg">
<g clip-path="url(#clip0_116_9283)">
<path d="M51.97 102.31C46.43 102.31 41.73 98.81 37.58 91.6L37.54 91.52L37.46 91.49C36.75 91.22 35.98 91.08 35.17 91.08C34.44 91.08 33.67 91.19 32.81 91.4L32.75 91.42L32.7 91.46C32.23 91.9 32.15 92.5 32.06 93.09C31.95 93.86 31.86 94.53 30.92 94.72L30.87 94.73H30.76C29.75 94.49 29.65 93.73 29.52 92.86C29.47 92.48 29.41 92.08 29.27 91.74L29.24 91.66L29.16 91.62C28.33 91.16 27.52 91.1 26.83 91.1C26.63 91.1 26.43 91.11 26.23 91.11C26.02 91.12 25.84 91.12 25.66 91.12C23.47 91.11 21.3 91.11 19.13 91.11H13.11C10.34 91.11 7.58001 91.11 4.81001 91.1C1.02001 91.09 0.0400098 90.13 0.0400098 86.47C0.0400098 80.49 0.0400098 74.51 0.0400098 68.53C0.0400098 58.21 0.0400098 47.9 0.0100098 37.59C0.0100098 35.81 0.54001 34.5 1.74001 33.32C4.76001 30.36 7.19001 27.91 9.36001 25.61C10.49 24.42 11.74 23.91 13.54 23.91C16.7 23.94 19.77 23.95 22.84 23.95C25.33 23.95 27.81 23.94 30.3 23.94L33.9 23.93C34.01 23.93 35.09 23.95 35.09 23.95C35.78 23.95 36.61 23.9 37.51 23.55L37.66 23.49L37.67 23.33C37.82 20.24 39.43 19.98 41.2 19.98C41.47 19.98 41.74 19.99 42.02 20C42.36 20.01 42.65 20.02 42.94 20.02C43.5 20.02 44.23 19.99 44.88 19.78L44.94 19.76L44.98 19.72C45.79 18.9 46.22 17.94 46.29 16.79V16.73L46.27 16.68C45.92 15.78 45.15 15.07 44.4 14.38C42.75 12.86 41.84 11.79 43.16 9.78L43.32 9.54C44.75 7.35 46.24 5.09 49.17 5.09C49.38 5.09 49.6 5.1 49.83 5.13L49.91 5.14L50.05 5.21L53.83 8.76H53.93C55.03 8.75 56 8.37 56.88 7.6L56.92 7.56L56.94 7.51C57.35 6.56 57.29 5.55 57.23 4.56C57.14 2.98 57.15 1.88 58.17 0.96C58.88 0.28 59.74 0 61.02 0C61.43 0 61.85 0.03 62.27 0.05C62.74 0.08 63.17 0.11 63.6 0.11H63.75C67.14 0.11 67.19 0.64 67.87 7.18L67.88 7.24L67.9 7.3C68.54 8.23 69.6 8.5 70.54 8.75L70.76 8.81L70.84 8.77C71.77 8.32 72.47 7.58 73.14 6.87C73.7 6.27 74.23 5.71 74.89 5.29L74.95 5.25L75.07 5.21C75.07 5.21 75.3 5.2 75.38 5.2C78.2 5.2 80.77 7.34 82.46 11.06L82.49 11.12L82.51 11.25C82.34 12.64 81.46 13.49 80.53 14.38C79.85 15.03 79.16 15.69 78.76 16.55L78.73 16.61V16.64C78.65 17.69 79.15 18.54 79.63 19.35L79.78 19.6L79.85 19.63C80.54 19.97 81.36 20.01 82 20.01C82.33 20.01 82.67 20 83.01 19.98C83.35 19.97 83.68 19.95 84 19.95C85.94 19.95 87.16 20.48 87.29 23.11V23.22L87.37 23.29C87.91 23.74 88.56 23.81 89.18 23.88C90.03 23.97 90.64 24.03 90.85 24.95L90.86 25.01V25.13C90.58 26.22 89.79 26.33 88.79 26.48C88.37 26.54 87.89 26.61 87.43 26.77L87.26 26.83V27.01C87.23 30.27 85.58 30.54 83.75 30.54C83.43 30.54 83.11 30.53 82.78 30.52C82.44 30.51 82.11 30.5 81.78 30.5C81.07 30.5 80.55 30.55 80.09 30.67L80.02 30.69L79.97 30.75C79.21 31.58 78.78 32.53 78.67 33.66L78.66 33.74L78.7 33.81C79.15 34.66 79.8 35.34 80.43 35.99C81.34 36.93 82.19 37.82 82.5 39.17L82.52 39.24L82.51 39.38C81.62 41.81 79.82 43.83 77.41 45.13C76.84 45.44 76.32 45.59 75.82 45.59C74.6 45.59 73.77 44.68 72.82 43.63C72.2 42.95 71.55 42.24 70.78 41.84L70.72 41.81H70.65C69.72 41.85 68.87 42.2 67.97 42.93L67.92 42.97L67.9 43.03C67.5 43.95 67.56 44.96 67.61 45.94C67.7 47.61 67.67 48.77 66.51 49.69C65.74 50.3 64.85 50.56 63.54 50.56C63.07 50.56 62.6 50.53 62.12 50.5C61.64 50.47 61.19 50.44 60.74 50.43C57.73 50.41 57.67 49.89 56.94 43.52L56.93 43.4L56.89 43.34C56.33 42.52 55.53 42.13 54.44 42.13C54.36 42.13 53.99 42.15 53.99 42.15L53.95 42.33C53.47 44.46 53.54 46.71 53.62 48.88C53.71 51.44 53.79 54.07 53.04 56.71L52.81 57.52L52.21 56.93C50.96 55.71 51.05 54.42 51.14 53.17C51.18 52.69 51.21 52.21 51.16 51.74C51.04 50.45 51.06 49.14 51.09 47.76C51.1 47.08 51.12 46.43 51.12 45.76V45.47L50.84 45.51C50.44 45.57 50.04 45.59 49.66 45.59C45.84 45.59 43.92 42.81 42.55 40.09C41.65 38.31 42.74 37.32 44.11 36.05C44.84 35.38 45.59 34.69 46 33.84L46.02 33.79V33.73C46.02 32.77 45.61 31.83 44.78 30.84L44.74 30.79L44.68 30.77C44.03 30.53 43.28 30.5 42.71 30.5C42.43 30.5 42.14 30.51 41.86 30.52C41.48 30.53 41.2 30.54 40.92 30.54C39.1 30.54 37.47 30.26 37.44 26.88V26.63H12.04L2.67001 35.88V88.55H37.08L37.1 88.32C37.75 79.34 42.17 74.11 50.61 72.35L50.76 72.32L50.8 72.17C51.21 70.56 51.17 68.95 51.13 67.39C51.1 66.07 51.07 64.84 51.28 63.6L51.32 63.34L51.56 63.23C51.93 63.06 52.26 62.97 52.52 62.97C53.54 62.97 53.59 64.48 53.61 64.97C53.66 66.58 53.65 68.15 53.64 69.81C53.63 70.54 53.63 71.27 53.63 72.02V72.22L53.83 72.26C59.28 73.44 62.89 75.87 65.19 79.89C66.8 82.71 67.41 85.9 67.01 89.38C66.31 95.42 61.37 100.59 54.98 101.97C53.95 102.2 52.94 102.31 51.97 102.31ZM52.49 74.91C45.45 74.91 39.9 80.35 39.84 87.3C39.78 94.25 45.36 99.99 52.27 100.09H52.45C59.34 100.09 64.99 94.52 65.04 87.66C65.09 80.68 59.51 74.96 52.6 74.91H52.49ZM60.08 47.6C60.91 47.82 61.67 47.93 62.41 47.93C63.17 47.93 63.89 47.81 64.59 47.57L64.7 47.53L64.74 47.42C65.1 46.49 65.07 45.45 65.04 44.53C64.99 42.97 65.02 41.9 65.97 41.07C67.56 39.68 69.23 38.98 70.94 38.98C71.24 38.98 71.55 39 71.86 39.05L71.94 39.06L72.07 39.12L76.27 42.98C76.27 42.98 76.84 42.48 77.04 42.31C78.12 41.39 79.1 40.55 79.71 39.13L79.75 39L79.66 38.88C79.28 38.39 78.85 37.91 78.46 37.5C76.9 35.81 75.42 34.21 76.59 31.16C77.76 28.1 79.85 28.03 82.06 27.94C82.73 27.92 83.42 27.89 84.08 27.77L84.22 27.75L84.27 27.62C84.83 26.26 85.33 24.48 84.19 22.72L84.15 22.65L84.08 22.62C83.24 22.28 82.37 22.23 81.56 22.23L80.53 22.24C79.86 22.24 79.15 22.21 78.49 21.98L78.43 21.96L78.33 21.89C76.74 20.11 76.03 18.4 76.17 16.77C76.33 14.94 77.57 13.13 79.86 11.39L80.08 11.22L79.88 11.02C79.53 10.66 79.22 10.31 78.93 9.98C78.13 9.07 77.37 8.21 76.22 7.7L76.1 7.65L76 7.72C75.32 8.15 74.73 8.72 74.16 9.27C73.06 10.33 72.02 11.34 70.4 11.34C69.75 11.34 69.06 11.18 68.29 10.87C65.39 9.68 65.29 7.7 65.18 5.61C65.14 4.75 65.09 3.86 64.83 3.05L64.77 2.9L64.62 2.87C63.75 2.72 63.04 2.61 62.31 2.61C61.47 2.61 60.74 2.77 60.03 3.11L59.92 3.16L59.9 3.28C59.76 3.97 59.73 4.69 59.7 5.38C59.6 7.55 59.5 9.59 56.52 10.86C55.74 11.19 55.06 11.35 54.41 11.35C52.82 11.35 51.79 10.35 50.7 9.3C50.1 8.72 49.49 8.13 48.77 7.69L48.64 7.61L48.5 7.7C46.99 8.64 45.91 9.74 45.18 11.06L45.12 11.17L45.18 11.29C45.6 12.16 46.31 12.83 46.94 13.42C48.02 14.44 48.73 15.21 48.73 16.44C48.73 18.18 48.08 19.9 46.74 21.72L46.7 21.78L46.59 21.86C45.8 22.16 45.07 22.22 44.19 22.22H43.36C42.47 22.22 41.45 22.27 40.53 22.83L40.46 22.87L40.43 22.94C39.71 24.58 39.78 26.07 40.65 27.77L40.72 27.9H40.87C41.27 27.91 41.67 27.91 42.07 27.91C44.56 27.91 46.9 27.92 48.24 31.17C49.46 34.13 48.02 35.69 46.51 37.33C46.03 37.85 45.55 38.38 45.14 38.95L45.05 39.08L45.12 39.22C45.98 40.82 47.08 41.95 48.56 42.79L48.7 42.87L48.83 42.78C49.46 42.34 50.01 41.81 50.54 41.3C51.72 40.15 52.74 39.17 54.39 39.17C55.06 39.17 55.77 39.33 56.57 39.67C59.26 40.79 59.34 42.61 59.42 44.54C59.46 45.53 59.5 46.55 59.92 47.46L59.97 47.57L60.08 47.6Z" fill="white"/>
<path d="M115.59 120.5C108.83 120.49 102.06 120.48 95.3 120.48C89.01 120.48 82.72 120.49 76.43 120.5C74.28 120.5 73.36 119.54 73.36 117.31C73.36 117.07 73.37 116.82 73.37 116.57C73.42 115.04 73.46 113.46 72.13 112.04L71.79 111.68L72.15 111.34C73.37 110.17 73.4 108.64 73.44 107.15C73.47 105.68 73.5 104.17 74.62 102.87L74.77 102.7H94.03L94.1 102.58C94.97 101.2 95.09 100.02 94.5 98.74L94.47 98.68L94.42 98.64C93.8 98.16 93.12 98.1 92.6 98.1C92.39 98.1 92.17 98.11 91.95 98.12C91.72 98.13 91.53 98.14 91.34 98.14C90.24 98.13 89.18 98.13 88.12 98.13L82.71 98.14C80.86 98.14 79 98.13 77.15 98.11C74.25 98.07 73.4 97.23 73.38 94.37C73.34 90.53 73.34 86.99 73.38 83.54C73.41 80.9 74.17 80.13 76.78 80.11C79.16 80.09 81.54 80.09 83.92 80.09L93.97 80.1L94.04 80.01C95.24 78.55 94.94 77.28 94.39 75.64L94.33 75.47H79.76C76.51 75.47 74.88 75.47 74.12 74.72C73.37 73.98 73.37 72.38 73.37 69.19V66.87C73.37 64.96 73.38 63.05 73.36 61.14C73.35 59.92 73.44 58.92 74.62 57.98L74.68 57.94L74.81 57.89C76.58 57.69 78.42 57.6 80.84 57.6C82.01 57.6 83.2 57.62 84.39 57.64C85.69 57.66 86.87 57.68 88.05 57.68C90.61 57.68 92.68 57.58 94.56 57.37L94.77 57.35L95.07 52.51L95.23 52.37C95.55 52.09 95.83 51.96 96.09 51.96C96.34 51.96 96.59 52.08 96.86 52.32L96.9 52.36L96.96 52.45C97.23 53.16 97.23 53.88 97.22 54.64C97.22 55.41 97.21 56.28 97.48 57.18L97.53 57.34L97.69 57.36C99.57 57.58 101.65 57.69 104.23 57.69C105.47 57.69 106.7 57.67 107.93 57.65C109.24 57.63 110.41 57.61 111.57 57.61C113.8 57.61 115.58 57.69 117.19 57.86L117.26 57.87L117.38 57.92C118.54 58.77 118.75 59.7 118.74 61.03C118.73 62.68 118.73 64.32 118.73 65.97V66.23C118.73 68.2 118.74 70.17 118.72 72.14C118.69 74.75 117.95 75.47 115.26 75.49C112.86 75.5 110.45 75.51 108.06 75.51L98.11 75.5L98.04 75.6C97.14 76.85 97.02 78.06 97.63 79.51L97.65 79.57L97.7 79.61C98.31 80.11 99.01 80.17 99.48 80.17C99.69 80.17 99.91 80.16 100.12 80.14C100.35 80.13 100.56 80.11 100.76 80.11C102.46 80.12 104.12 80.12 105.79 80.12H110.44C112.04 80.12 113.64 80.12 115.23 80.13C117.9 80.15 118.69 80.9 118.72 83.46C118.76 87.32 118.76 91.15 118.72 94.84C118.69 97.21 117.85 98.14 115.72 98.14L115.24 98.13C114.79 98.13 114.3 98.18 113.87 98.22C113.38 98.27 112.92 98.31 112.46 98.31C111.3 98.31 110.48 97.99 109.82 97.26L109.56 96.98L109.77 96.66C110.35 95.75 111.14 95.57 112.14 95.57C112.37 95.57 112.6 95.58 112.84 95.59C113.08 95.6 113.33 95.61 113.57 95.61C114.23 95.61 115.07 95.54 115.8 95.03L115.91 94.96V82.98H76.11V94.92L76.23 95C77.05 95.55 77.87 95.62 78.5 95.62C78.71 95.62 78.92 95.61 79.12 95.6C79.38 95.59 79.56 95.58 79.75 95.58C83.75 95.59 87.72 95.59 91.7 95.59H92.36C95.2 95.59 98.04 95.59 100.88 95.6L101.68 95.59C102.38 95.59 103.09 95.65 103.42 96.42L103.54 96.69L103.35 96.92C102.8 97.62 102.25 97.71 97.97 98.47L97.85 98.49L97.79 98.59C97.15 99.66 97.16 100.8 97.83 102.4L97.89 102.55H117.34L117.49 102.69C118.62 103.78 118.76 104.78 118.76 105.71C118.73 109.51 118.73 113.44 118.76 117.38C118.77 118.46 118.53 119.22 118.04 119.72C117.54 120.23 116.75 120.47 115.63 120.47H115.59V120.5ZM115.96 117.7V105.39H76.09V117.7H115.96ZM115.97 72.7V60.27H76.15V72.7H115.97Z" fill="white"/>
<path d="M14.51 44.5498L14.36 44.3798C13.93 43.8798 13.83 43.3798 14.04 42.8098L14.13 42.5698L14.38 42.4998C15.67 42.1398 21.14 41.7598 28.72 41.7598C35.66 41.7598 39.33 42.0598 40.44 42.3498L40.64 42.3998L40.75 42.5798C41.03 43.0598 41.01 43.6098 40.67 44.2798L40.53 44.5598H14.51V44.5498Z" fill="white"/>
<path d="M28.3601 60.9602C23.8401 60.9602 19.2401 60.8402 14.9101 60.7102L14.6701 60.7002L14.5301 60.5102C13.9301 59.7102 13.8401 59.1302 14.2001 58.4302L14.3401 58.1602H40.5201L40.6601 58.4102C41.0001 59.0002 40.9301 59.5402 40.7001 60.2702L40.5901 60.5902L40.2501 60.6102C36.6501 60.8402 32.7601 60.9602 28.3601 60.9602Z" fill="white"/>
<path d="M32.3899 68.7602C26.7199 68.7602 21.0499 68.7502 15.3899 68.7302C15.1699 68.7302 14.9299 68.6302 14.6099 68.5002L14.2599 68.3502L14.1799 68.1502C13.8999 67.4102 13.8799 66.8102 14.1399 66.4102C14.3999 65.9902 14.9699 65.7602 15.7799 65.7602C19.0999 65.7202 22.5899 65.7002 27.0999 65.7002C29.1899 65.7002 38.7799 65.7102 38.7799 65.7102C39.8399 65.7102 40.4699 66.1202 40.8299 67.0302L40.8599 67.1102L40.8699 67.2802C40.4399 68.6002 39.6199 68.7602 38.9399 68.7602H32.3899Z" fill="white"/>
<path d="M82.2899 90.3601L82.1399 90.1401C81.6799 89.4701 81.6699 88.9201 82.0999 88.2801L82.2499 88.0601H110.01L110.08 88.1301C110.45 88.4801 110.61 88.7601 110.63 89.0501C110.66 89.3701 110.51 89.7501 110.2 90.1501L110.05 90.3501H82.2899V90.3601Z" fill="white"/>
<path d="M14.5301 52.5298L14.3801 52.3898C13.8901 51.9098 13.8201 51.3498 14.1501 50.5798L14.2801 50.2798H40.5701L40.7001 50.5798C41.0101 51.2798 40.9601 51.8098 40.5301 52.3498L40.3801 52.5398H14.5301V52.5298Z" fill="white"/>
<path d="M20.87 78.7501C19.79 78.7501 18.72 78.7401 17.68 78.7301L14.92 78.7201L14.85 78.6701C14 78.0001 13.82 77.4501 14.07 76.4301L14.15 76.1101L14.48 76.0601C16.36 75.7601 18.34 75.6001 20.37 75.6001C22.32 75.6001 24.36 75.7401 26.43 76.0201L26.76 76.0601L26.84 76.3901C27.05 77.2001 27.02 77.8101 26.76 78.1901C26.55 78.4901 26.17 78.6601 25.63 78.6801C24.23 78.7301 22.72 78.7501 20.87 78.7501Z" fill="white"/>
<path d="M65.8001 112.73C65.3601 112.73 64.7401 112.65 64.2801 112.24C63.8201 111.84 63.5901 111.42 63.6101 111.02C63.6301 110.62 63.9101 110.23 64.4101 109.88C64.7901 109.61 65.3001 109.47 65.8701 109.47C66.9201 109.47 68.0901 109.96 68.8301 110.72L69.1601 111.06L68.8401 111.41C68.1101 112.2 66.8901 112.73 65.8001 112.73Z" fill="white"/>
<path d="M40.91 112.71C40.26 112.71 39.41 112.53 38.31 112.15L38.11 112.08L38.02 111.89C37.92 111.67 37.86 111.51 37.85 111.35C37.83 111.08 37.88 110.79 37.92 110.49L37.96 110.25L38.18 110.07C39.13 109.68 39.87 109.51 40.56 109.51C41.36 109.51 42.08 109.74 42.75 110.22L43.01 110.41L42.95 110.73C42.68 112.11 42.07 112.71 40.91 112.71Z" fill="white"/>
<path d="M48.0999 112.71C47.2199 112.71 46.5599 112.32 45.8899 111.42L45.6799 111.14L45.8799 110.85C46.6599 109.67 47.3799 109.51 48.0499 109.51C48.6699 109.51 49.4599 109.7 50.5299 110.1L50.6199 110.13L50.7499 110.24C51.0699 110.82 51.0799 111.33 50.8299 111.84L50.7899 111.92L50.6599 112.04C49.5199 112.51 48.7399 112.71 48.0999 112.71Z" fill="white"/>
<path d="M58.8 112.68C57.81 112.68 56.79 112.31 55.99 111.67L55.71 111.44L55.84 111.1C56.34 109.77 57.02 109.49 57.89 109.49C58.53 109.49 59.35 109.67 60.48 110.04L60.69 110.11L60.78 110.31C61.12 111.05 60.95 111.55 60.79 111.87C60.28 112.42 59.61 112.68 58.8 112.68Z" fill="white"/>
<path d="M33.54 112.45C30.86 111.54 30.15 110.65 30.35 108.47L30.38 108.16L30.67 108.05C30.96 107.94 31.23 107.88 31.47 107.88C32.31 107.88 32.81 108.56 33.34 109.28C33.69 109.75 34.05 110.24 34.51 110.53L34.74 110.67V110.94C34.75 111.65 34.5 112.11 33.92 112.41L33.73 112.51L33.54 112.45Z" fill="white"/>
<path d="M97.0698 39.1002C95.7798 38.2902 95.8098 37.2502 96.0098 35.7502C96.0598 35.3502 96.1198 34.9402 96.1198 34.5602V34.3202L96.2998 34.1702C96.6798 33.8602 97.0398 33.7002 97.3498 33.7002C97.7298 33.7002 98.0998 33.9202 98.5098 34.3802L98.6498 34.5302L98.6398 34.7302C98.6198 35.1402 98.6598 35.5602 98.7098 35.9602C98.8298 37.1702 98.9498 38.3102 97.5898 39.0902L97.3298 39.2402L97.0698 39.1002Z" fill="white"/>
<path d="M97.3202 49.02C97.0402 49.02 96.7402 48.91 96.4202 48.7L96.3502 48.65L96.2502 48.53C95.8002 47.26 95.7902 45.97 96.1902 44.63L96.2102 44.55L96.3002 44.42C96.7002 44.13 97.0202 44 97.3302 44C97.6802 44 98.0502 44.17 98.4402 44.49L98.5202 44.55L98.6102 44.71C98.7702 46.08 98.8202 47.14 98.6002 48.15L98.5902 48.22L98.5302 48.34C97.9602 48.95 97.5702 49.02 97.3202 49.02Z" fill="white"/>
<path d="M31.43 104.39C31.13 104.39 30.83 104.3 30.5 104.12L30.43 104.08L30.32 103.96C29.83 102.86 29.97 101.79 30.11 100.66L30.16 100.21L30.21 100.15C30.65 99.6298 31.04 99.5698 31.33 99.5698C31.55 99.5698 31.82 99.6198 32.14 99.7098L32.39 99.7798L32.47 100.03C32.95 101.5 32.96 102.73 32.5 103.89L32.47 103.98L32.35 104.11C31.98 104.32 31.71 104.39 31.43 104.39Z" fill="white"/>
<path d="M97.13 30.51C96.38 29.14 95.96 28.03 96.21 26.73L96.27 26.42L96.58 26.34C96.75 26.29 96.92 26.27 97.07 26.27C97.96 26.27 98.28 27.11 98.58 28.11C98.84 28.98 98.85 29.57 98.6 30.01C98.44 30.29 98.17 30.53 97.79 30.71L97.36 30.91L97.13 30.51Z" fill="white"/>
<path d="M63.3001 36.8302C60.9801 36.8302 58.7501 36.1402 56.8501 34.8402C51.7601 31.3402 50.3901 24.4902 53.7401 19.2402C56.2301 15.3302 60.5601 13.9502 63.5001 13.9502C65.2501 13.9502 66.8101 14.4102 67.8901 15.2502L67.9501 15.3002L68.0301 15.4202C68.2401 16.1002 68.0201 16.5702 67.3801 16.9302L67.3101 16.9702L67.1501 17.0002C66.7101 16.9402 66.3401 16.8702 65.9801 16.8002C65.1001 16.6402 64.1901 16.4702 63.2501 16.4702H63.0001C58.1901 16.6202 54.3701 20.4802 54.3001 25.2602C54.2301 30.1702 58.3201 34.4002 63.2501 34.4902H63.4101C68.1101 34.4902 72.1101 30.7102 72.3301 26.0702C72.3901 24.9002 72.3801 23.6502 71.9301 22.4202C71.6601 21.6702 71.6301 21.1502 71.8201 20.7802C71.9301 20.5702 72.1101 20.4102 72.3701 20.2802L72.6701 20.1302L72.9201 20.3502C75.5701 22.6402 75.4901 28.0602 72.7501 31.9502C70.5901 35.0202 67.0601 36.8302 63.3001 36.8302Z" fill="white"/>
<path d="M62.2499 30.9601C60.0199 30.8701 57.8999 28.7001 57.8899 26.4901C57.8899 25.3201 58.3199 24.2401 59.0999 23.4401C59.9399 22.6001 61.0999 22.1401 62.3899 22.1401C65.0699 22.1701 66.6699 23.7801 66.6699 26.4401C66.6699 28.9401 64.7499 30.9701 62.3899 30.9701L62.2499 30.9601ZM62.3299 24.3201C61.0699 24.3201 60.3099 25.0601 60.2399 26.3501C60.1499 28.0101 61.3699 28.4901 62.4199 28.6001H62.4699C63.7499 28.4601 64.4399 27.7401 64.4699 26.5301C64.4899 25.1801 63.7599 24.3701 62.4499 24.3201H62.3299Z" fill="white"/>
<path d="M52.23 92.64C51.82 92.3 51.41 91.96 51 91.63C49.13 90.13 47.38 88.72 46.16 86.51L45.72 85.7L46.64 85.77C48.29 85.89 49.27 86.84 50.21 87.75C50.87 88.38 51.54 89.03 52.4 89.38L52.5 89.42L52.59 89.38C53.86 88.81 54.81 87.8 55.74 86.82C56.95 85.55 58.08 84.34 59.85 84H59.86C60.36 84 60.61 84.38 60.76 84.66L60.91 84.95L60.71 85.21C58.9 87.52 56.62 89.45 54.21 91.5L52.55 92.92L52.23 92.64Z" fill="white"/>
<path d="M82.2401 66.4101L82.0901 66.2001C81.6301 65.5401 81.6601 64.9501 82.1701 64.2901L82.3201 64.1001H110.19L110.26 64.1601C110.65 64.5101 110.82 64.8001 110.86 65.1001C110.9 65.4201 110.78 65.7801 110.49 66.1901L110.34 66.4101H82.2401V66.4101Z" fill="white"/>
<path d="M108.48 112.64C104.42 112.63 100.36 112.63 96.3 112.63C92.24 112.63 88.18 112.63 84.13 112.64C83.07 112.64 82.02 112.53 81.75 111.2L81.74 111.15V111.05C82.02 109.69 83.08 109.58 84.13 109.58H96.13C100.25 109.58 104.37 109.58 108.49 109.57C109.66 109.57 110.43 109.78 110.86 110.86L110.89 110.93L110.9 111.08C110.54 112.51 109.47 112.62 108.49 112.62H108.48V112.64Z" fill="white"/>
</g>
<defs>
<clipPath id="clip0_116_9283">
<rect width="118.75" height="120.5" fill="white"/>
</clipPath>
</defs>
</svg>
