<svg width="22" height="17" viewBox="0 0 22 17" fill="none" xmlns="http://www.w3.org/2000/svg">
<path fill-rule="evenodd" clip-rule="evenodd" d="M13.3099 9.59012C12.5606 10.1692 11.4677 11.0138 10.6666 11C9.86558 11.0138 8.7727 10.1692 8.02338 9.59012C7.86846 9.4704 7.72823 9.36203 7.6083 9.27494C2.48359 5.55594 1.74721 4.97967 0.651728 4.12238C0.565279 4.05472 0.476595 3.98532 0.383341 3.91249C0.141683 3.7208 0 3.43332 0 3.12497V2.33331C0 1.22914 0.895831 0.333313 2 0.333313H19.3333C20.4375 0.333313 21.3333 1.22914 21.3333 2.33331V3.12497C21.3333 3.43332 21.1916 3.72499 20.9499 3.91249C20.8786 3.96843 20.81 4.02233 20.743 4.07496C19.6119 4.9631 18.9448 5.48692 13.725 9.27494C13.6051 9.36203 13.4648 9.4704 13.3099 9.59012ZM21.3333 14.3333C21.3333 15.4375 20.4375 16.3333 19.3333 16.3333H2C0.895831 16.3333 0 15.4375 0 14.3333V5.81665C0 5.60831 0.237508 5.49165 0.404174 5.62085C0.686994 5.84053 0.997748 6.07821 1.4118 6.38871L1.67323 6.58419C2.63583 7.30203 4.12044 8.38939 6.82498 10.3542C6.95826 10.4514 7.10543 10.565 7.26436 10.6876C8.15381 11.3739 9.41172 12.3445 10.6666 12.3375C11.9274 12.3481 13.2061 11.359 14.0816 10.6817C14.2391 10.5599 14.3835 10.4482 14.5125 10.3542C18.7624 7.26667 19.9958 6.34167 20.9291 5.61665C21.0916 5.4875 21.3333 5.60831 21.3333 5.8125V14.3333Z" fill="#0C66F3"/>
</svg>
