<svg width="230" height="37" viewBox="0 0 230 37" fill="none" xmlns="http://www.w3.org/2000/svg">
<path d="M27.4201 9.64049H28.72L32.4201 5.94048L32.6001 4.37047C25.7201 -1.70953 15.2101 -1.0495 9.13005 5.8305C7.44005 7.7405 6.22005 10.0205 5.55005 12.4805C5.96005 12.3105 6.42005 12.2805 6.85005 12.4005L14.25 11.1805C14.25 11.1805 14.6301 10.5605 14.8201 10.5905C18.1101 6.98051 23.6501 6.55048 27.4501 9.63048H27.4201V9.64049Z" fill="#EA4335"/>
<path d="M37.69 12.4805C36.84 9.35053 35.09 6.53049 32.67 4.38049L27.48 9.5705C29.67 11.3605 30.92 14.0605 30.87 16.8905V17.8105C33.42 17.8105 35.49 19.8805 35.49 22.4305C35.49 24.9805 33.42 27.0505 30.87 27.0505H21.63L20.71 27.9805V33.5205L21.63 34.4405H30.87C37.51 34.4905 42.93 29.1505 42.98 22.5105C43 18.5105 41.02 14.7405 37.69 12.4805Z" fill="#4285F4"/>
<path d="M12.36 34.4005H21.6V27.0005H12.36C11.7 27.0005 11.05 26.8605 10.45 26.5805L9.14998 26.9805L5.42998 30.6805L5.10999 31.9805C7.19999 33.5705 9.73999 34.4205 12.36 34.4005Z" fill="#34A853"/>
<path d="M12.36 10.4105C5.72001 10.4505 0.370013 15.8605 0.410013 22.5005C0.430013 26.2105 2.16002 29.7005 5.10002 31.9505L10.46 26.5905C8.14002 25.5405 7.1 22.8005 8.15 20.4805C9.2 18.1605 11.94 17.1205 14.26 18.1705C15.28 18.6305 16.1 19.4505 16.57 20.4805L21.93 15.1205C19.66 12.1305 16.12 10.3905 12.36 10.4105Z" fill="#FBBC05"/>
<path d="M67.58 29.2405C64.36 29.2805 61.27 28.0105 59.01 25.7205C56.68 23.5305 55.37 20.4605 55.42 17.2605C55.38 14.0605 56.68 10.9905 59.01 8.80054C61.26 6.49054 64.35 5.19052 67.58 5.22052C70.65 5.18052 73.61 6.37052 75.8 8.53052L73.49 10.8805C71.91 9.35049 69.78 8.51053 67.58 8.54053C65.27 8.51053 63.06 9.4505 61.48 11.1405C59.84 12.7705 58.94 15.0005 58.97 17.3005C58.95 19.5805 59.85 21.7805 61.48 23.3905C64.82 26.7205 70.21 26.7905 73.63 23.5305C74.65 22.4205 75.27 21.0005 75.41 19.4905H67.62V16.1705H78.64C78.75 16.8405 78.79 17.5205 78.77 18.2005C78.91 21.0305 77.88 23.8005 75.93 25.8605C73.75 28.1105 70.72 29.3505 67.58 29.2405ZM93.2 27.0305C90.13 29.9805 85.28 29.9805 82.2 27.0305C80.71 25.5905 79.9 23.5905 79.95 21.5105C79.89 19.4405 80.71 17.4405 82.2 15.9905C85.28 13.0505 90.12 13.0505 93.2 15.9905C94.69 17.4305 95.5 19.4305 95.45 21.5105C95.5 23.5805 94.68 25.5805 93.19 27.0305H93.2ZM84.64 24.8605C86.23 26.5605 88.89 26.6405 90.58 25.0505C90.65 24.9905 90.71 24.9205 90.77 24.8605C91.64 23.9605 92.1 22.7605 92.07 21.5105C92.11 20.2605 91.64 19.0505 90.77 18.1505C89.14 16.4505 86.43 16.3905 84.73 18.0205C84.69 18.0605 84.64 18.1005 84.6 18.1505C83.73 19.0505 83.26 20.2605 83.3 21.5105C83.27 22.7605 83.74 23.9705 84.61 24.8605H84.64ZM110.1 27.0305C107.03 29.9805 102.18 29.9805 99.1 27.0305C97.61 25.5905 96.8 23.5905 96.85 21.5105C96.79 19.4405 97.61 17.4405 99.1 15.9905C102.17 13.0405 107.02 13.0405 110.1 15.9905C111.59 17.4305 112.4 19.4305 112.35 21.5105C112.41 23.5905 111.59 25.5905 110.1 27.0305ZM101.54 24.8605C103.13 26.5605 105.79 26.6405 107.48 25.0505C107.55 24.9905 107.61 24.9205 107.67 24.8605C108.54 23.9605 109 22.7605 108.97 21.5105C109.01 20.2605 108.54 19.0505 107.67 18.1505C106.04 16.4505 103.33 16.3905 101.63 18.0205C101.59 18.0605 101.54 18.1005 101.5 18.1505C100.63 19.0505 100.16 20.2605 100.2 21.5105C100.17 22.7605 100.64 23.9705 101.51 24.8605H101.54ZM121.21 36.1705C119.65 36.2205 118.13 35.7305 116.89 34.7905C115.79 33.9605 114.92 32.8605 114.37 31.6005L117.33 30.3705C117.65 31.1305 118.16 31.7905 118.8 32.3005C119.48 32.8505 120.35 33.1405 121.23 33.1205C122.36 33.1905 123.46 32.7605 124.25 31.9505C125.03 31.0105 125.42 29.8005 125.33 28.5805V27.4605H125.21C124.21 28.6505 122.7 29.3005 121.15 29.2105C119.18 29.2205 117.3 28.4005 115.96 26.9505C114.51 25.5205 113.71 23.5505 113.74 21.5105C113.7 19.4605 114.51 17.4805 115.96 16.0305C117.3 14.5805 119.18 13.7505 121.15 13.7605C121.98 13.7605 122.79 13.9405 123.54 14.2905C124.19 14.5705 124.76 14.9905 125.23 15.5205H125.35V14.2905H128.57V28.1105C128.74 30.3205 128 32.5005 126.51 34.1505C125.08 35.5105 123.18 36.2405 121.21 36.1705ZM121.45 26.2005C122.57 26.2305 123.65 25.7505 124.38 24.9005C125.18 23.9805 125.6 22.7905 125.56 21.5805C125.61 20.3405 125.19 19.1305 124.38 18.1905C123.64 17.3405 122.57 16.8705 121.45 16.8905C120.3 16.8705 119.19 17.3405 118.41 18.1905C117.55 19.1005 117.08 20.3105 117.11 21.5505C117.08 22.7905 117.55 23.9805 118.41 24.8705C119.19 25.7305 120.29 26.2205 121.45 26.2005ZM134.29 6.08051V28.7705H130.9V6.08051H134.29ZM143.58 29.2405C141.53 29.2905 139.55 28.4905 138.12 27.0205C136.67 25.5605 135.87 23.5705 135.93 21.5205C135.85 19.4605 136.62 17.4505 138.05 15.9605C139.4 14.5405 141.28 13.7505 143.24 13.7905C144.13 13.7805 145.01 13.9505 145.84 14.3005C146.58 14.6005 147.26 15.0405 147.82 15.6005C148.31 16.0705 148.74 16.6005 149.12 17.1705C149.42 17.6505 149.68 18.1605 149.89 18.6905L150.24 19.5705L139.86 23.8405C140.5 25.3205 141.99 26.2505 143.6 26.1805C145.16 26.1905 146.6 25.3705 147.4 24.0405L150 25.7905C149.34 26.7405 148.49 27.5405 147.51 28.1505C146.32 28.8905 144.96 29.2605 143.58 29.2405ZM139.24 21.2805L146.15 18.4105C145.94 17.9005 145.56 17.4905 145.07 17.2305C144.53 16.9205 143.92 16.7705 143.29 16.7805C142.23 16.8105 141.23 17.2505 140.5 18.0105C139.62 18.8605 139.16 20.0605 139.24 21.2805ZM167.97 29.2405C162.06 29.3405 157.19 24.6405 157.09 18.7305C157.09 18.5905 157.09 18.4405 157.09 18.3005C156.95 12.3905 161.63 7.50054 167.53 7.36053C167.67 7.36053 167.82 7.36053 167.96 7.36053C170.91 7.27053 173.75 8.53053 175.66 10.7905L173.79 12.6105C172.39 10.8405 170.23 9.8605 167.98 9.9505C165.82 9.9005 163.73 10.7405 162.2 12.2605C160.61 13.8605 159.76 16.0505 159.85 18.3105C159.76 20.5705 160.61 22.7605 162.2 24.3605C163.73 25.8905 165.82 26.7205 167.98 26.6705C170.49 26.7005 172.88 25.5805 174.47 23.6305L176.34 25.5005C175.36 26.6705 174.13 27.6105 172.75 28.2405C171.25 28.9205 169.62 29.2605 167.97 29.2405ZM181.36 28.7705H178.67V7.81049H181.36V28.7705ZM185.75 16.1505C188.68 13.2405 193.41 13.2405 196.34 16.1505C197.73 17.6205 198.48 19.5805 198.42 21.6005C198.48 23.6205 197.73 25.5805 196.34 27.0505C193.41 29.9605 188.68 29.9605 185.75 27.0505C184.36 25.5805 183.61 23.6205 183.67 21.6005C183.61 19.5805 184.36 17.6205 185.75 16.1505ZM187.75 25.3705C189.47 27.1905 192.34 27.2705 194.15 25.5505C194.21 25.4905 194.27 25.4305 194.33 25.3705C195.28 24.3505 195.78 23.0005 195.72 21.6105C195.78 20.2205 195.28 18.8605 194.33 17.8505C192.61 16.0305 189.74 15.9505 187.93 17.6705C187.87 17.7305 187.81 17.7905 187.75 17.8505C186.8 18.8705 186.3 20.2205 186.36 21.6105C186.31 23.0005 186.81 24.3505 187.76 25.3605L187.75 25.3705ZM213.31 28.7705H210.71V26.7905H210.63C210.17 27.5405 209.51 28.1605 208.73 28.5805C207.92 29.0505 207 29.3005 206.07 29.2905C204.53 29.3905 203.03 28.7905 202 27.6505C201.02 26.4105 200.52 24.8405 200.61 23.2605V14.4305H203.3V22.7605C203.3 25.4305 204.48 26.7705 206.84 26.7705C207.91 26.8005 208.92 26.3205 209.57 25.4705C210.27 24.5905 210.64 23.4905 210.62 22.3705V14.4205H213.31V28.7705ZM222.43 29.2405C220.59 29.2505 218.83 28.4505 217.63 27.0505C216.28 25.5605 215.56 23.6205 215.62 21.6105C215.57 19.6005 216.29 17.6605 217.63 16.1705C218.83 14.7705 220.59 13.9705 222.43 13.9805C223.45 13.9605 224.46 14.2005 225.36 14.6805C226.15 15.0805 226.83 15.6805 227.31 16.4305H227.43L227.31 14.4505V7.8205H230V28.7805H227.4V26.8005H227.28C226.8 27.5505 226.13 28.1505 225.33 28.5505C224.45 29.0105 223.45 29.2505 222.43 29.2405ZM222.87 26.7905C224.1 26.8105 225.28 26.3005 226.1 25.3905C227.01 24.3505 227.48 22.9905 227.4 21.6105C227.48 20.2305 227.01 18.8705 226.1 17.8305C224.47 16.0405 221.7 15.9105 219.9 17.5405C219.8 17.6305 219.7 17.7305 219.61 17.8305C218.7 18.8605 218.23 20.2205 218.31 21.5905C218.23 22.9705 218.69 24.3205 219.61 25.3505C220.45 26.2805 221.63 26.8005 222.87 26.7905Z" fill="#5F6368"/>
</svg>
