<svg width="623" height="449" viewBox="0 0 623 449" fill="none" xmlns="http://www.w3.org/2000/svg">
<path d="M409.6 436.421C411.7 440.161 413.96 443.851 413.92 448.371C390.86 448.371 367.79 448.371 344.73 448.371C345.18 447.321 345.63 446.261 346.08 445.211C348.62 441.681 352.75 442.211 356.26 441.461C366.25 439.311 376.44 438.111 386.59 437.231C393.88 436.601 401.12 434.641 408.54 435.611C408.98 435.771 409.33 436.041 409.6 436.421Z" fill="#F7B708"/>
<path d="M623 138.541C623 143.051 623 147.561 623 152.081C622.66 152.221 622.35 152.441 621.95 152.431C610.71 151.991 599.52 153.561 588.27 153.161C583.05 152.971 582.24 152.261 582.07 147.021C581.77 137.361 581.8 137.351 591.31 137.311C600.81 137.271 610.28 138.131 619.78 137.811C620.91 137.761 622.06 137.741 623 138.541Z" fill="#FABB0A"/>
<path d="M623 138.541C610.51 138.471 598.01 138.411 585.52 138.321C583.8 138.311 583.19 139.011 583.03 140.761C582.03 151.901 581.99 151.881 593.02 151.911C603.01 151.941 613.01 152.021 623 152.091C623 152.341 623 152.591 623 152.841C617.24 152.851 611.47 152.851 605.71 152.861C602.83 154.731 599.61 153.731 596.55 153.881C592.25 154.091 587.79 153.131 584.2 156.781C583.05 157.951 581.09 157.781 579.7 156.531C578.2 155.181 578.15 153.331 578.81 151.661C579.7 149.411 580.2 147.261 579.97 144.771C579.81 143.051 579.43 141.741 578.42 140.361C576.37 137.541 577.17 135.201 580.4 133.821C582.29 133.011 584.31 133.091 586.31 132.971C590.39 132.721 594.58 133.801 598.53 131.841C599.9 131.161 600.51 132.411 601.18 133.301C602.19 136.541 604.41 137.331 607.67 137.141C612.76 136.851 617.88 137.061 622.99 137.061C623 137.531 623 138.041 623 138.541Z" fill="#F1F3F4"/>
<path d="M168.73 356.591C166.14 352.861 166.47 348.621 166.47 344.391C166.5 308.371 166.44 272.351 166.57 236.331C166.58 232.751 165.7 231.431 162.02 231.751C158.42 232.061 154.77 231.861 151.14 231.801C149.97 231.781 148.58 232.301 147.73 230.921C149.34 229.621 151.28 229.901 153.12 229.901C164.1 229.871 175.07 229.901 186.05 229.881C191.35 229.871 191.59 229.611 191.64 224.471C191.64 224.101 191.64 223.721 191.64 223.351C191.61 218.241 191.61 218.241 186.52 217.841C185.77 217.781 185.03 217.721 184.29 217.561C180.33 216.591 176.3 217.181 172.31 217.081C166.63 216.941 166.2 216.581 166.18 210.761C166.16 207.001 166.11 203.241 166.2 199.491C166.29 195.521 167.08 194.751 171.11 194.511C172.11 194.451 173.11 194.471 174.12 194.471C207.31 194.471 240.51 194.471 273.7 194.471C275.45 194.471 277.21 194.391 278.93 194.791C281.99 196.921 281.95 197.361 278.56 199.481C275.77 199.271 274.67 200.841 274.48 203.381C272.99 205.151 270.92 205.001 268.94 204.991C260.07 204.981 251.21 205.111 242.34 204.921C240.52 204.881 238.37 204.751 238.17 206.971C237.95 209.371 239.87 210.141 242.13 210.441C249.97 211.491 257.81 211.471 265.66 210.661C266.66 210.561 267.66 210.431 268.64 210.661C270.25 211.041 271.34 211.951 270.08 213.531C268.57 215.411 269.46 216.181 271.18 216.671C273.68 217.381 275.83 219.121 278.57 219.101C279.2 219.121 279.78 219.281 280.26 219.701C281.09 221.671 280.13 222.531 278.3 222.711C276.43 222.891 274.57 222.721 272.71 222.461C267.98 221.801 263.51 222.381 259.55 225.301C257.46 225.511 257.33 223.601 256.56 222.451C253.68 218.161 249.54 216.891 244.8 218.701C241.74 219.871 241.42 222.821 240.16 225.191C238.6 228.691 238.85 232.051 241.48 234.871C244.25 237.851 247.71 238.141 251.41 236.681C252.43 236.271 253.47 235.751 254.64 236.121C257.09 239.691 253.8 241.341 252.17 243.541C250.39 244.281 248.51 243.981 246.66 244.071C245 244.151 243.26 243.781 241.36 244.761C243.01 246.141 244.63 245.761 246.16 245.681C250.52 245.451 250.89 245.701 252.02 249.991C252.76 252.621 254.06 254.711 257.01 255.261C257.93 255.431 258.66 255.821 258.42 256.981C256.86 258.761 257.8 261.911 255.08 263.051C249.32 263.081 243.56 262.971 237.8 263.051C233.64 263.111 233.17 263.501 233.16 267.521C233.1 289.181 233.11 310.851 233.16 332.511C233.17 336.241 233.58 336.571 237.73 336.591C250.75 336.631 263.78 336.601 276.8 336.611C278.67 336.611 280.56 336.491 282.42 336.871C283.57 337.151 284.5 337.701 284.79 338.961C283.58 341.301 281.33 340.891 279.3 341.011C277.82 341.101 276.37 340.611 274.89 340.751C274.21 340.971 273.65 341.361 273.19 341.891C272.63 343.801 272.16 345.621 269.92 346.491C268.38 347.091 268.38 348.881 268.28 350.411C268.16 352.241 268.69 354.191 267.35 355.811C247.02 355.821 226.69 355.831 206.36 355.851C204.5 355.921 204.27 354.301 203.73 353.151C202.77 351.111 201.73 349.111 200.58 347.181C197.22 341.531 192.05 339.311 185.58 340.451C182.15 341.051 180.05 343.141 178.54 346.061C176.87 349.301 174.99 352.401 172.22 354.841C171.21 355.731 170.42 357.091 168.73 356.591Z" fill="#F1F3F4"/>
<path d="M601.19 133.271C600.54 132.921 599.52 132.121 599.31 132.301C595.12 135.751 590.23 133.281 585.74 134.011C584.52 134.211 583.22 134.011 582.04 134.311C580.4 134.741 578.32 135.041 578.08 137.161C577.89 138.851 578.78 140.271 580.59 140.861C580.91 140.971 581.43 141.441 581.4 141.491C579.92 144.231 582.86 147.321 580.67 150.031C579.14 151.911 578.35 154.371 580.37 156.041C582.41 157.711 584.42 156.141 585.68 154.261C586.62 152.871 587.83 152.801 589.24 152.811C594.73 152.841 600.22 152.831 605.71 152.841C607.15 164.231 605.92 175.411 602.69 186.361C600.04 195.351 596.58 204.021 590.66 211.481C588.53 208.721 588.36 208.751 586.64 212.301C587.75 213.521 588.82 211.461 589.91 212.241C588.99 215.481 586.48 217.701 584.38 220.021C579.09 225.881 573.94 232.011 566.59 235.561C565.73 234.861 566.69 233.111 565.06 232.881C564.28 232.771 563.54 233.021 563.07 233.681C561.8 235.421 563.7 236.021 564.34 237.071C562.71 238.931 560.79 240.321 558.32 240.831C557.72 239.581 557.17 238.421 555.39 238.431C553.24 238.441 552.33 236.991 552.2 234.991C552.08 233.101 552.53 231.721 554.57 230.841C558.42 229.181 561.23 225.991 564.14 223.141C566.2 221.131 568.04 218.801 570.54 217.441C575.33 214.811 576.93 209.601 580.38 205.911C582.02 204.161 582.05 201.761 579.9 199.901C579.04 199.151 578.35 198.211 578.02 197.121C576.03 190.591 571.9 185.121 569.04 179.021C568 176.811 567.55 174.521 567.21 172.161C567.05 171.051 567.34 169.761 566.81 168.821C563.82 163.521 567.09 159.701 569.85 155.611C567.39 155.031 566.11 156.021 565.14 158.161C564.11 160.441 562.47 160.601 561.44 158.381C559.57 154.391 556.53 150.661 557.72 145.721C558.14 143.961 557.54 142.511 555.51 142.751C551.82 143.201 549.03 141.131 546.06 139.661C544.48 138.881 542.9 138.201 541.27 137.561C539.43 136.841 537.94 136.911 536.5 138.401C535.2 139.741 533.52 140.231 531.67 139.801C530.14 139.441 528.15 139.601 527.71 137.571C527.25 135.471 527.82 133.291 529.72 132.291C533.9 130.101 533.88 126.391 533.56 122.661C533.21 118.581 532.88 114.751 537.89 113.211C538.51 113.021 538.84 112.451 539.05 111.821C539.63 110.041 537.9 108.751 538 107.201C538.11 105.581 538.29 104.431 536.36 103.681C534.31 102.891 533.72 100.661 533.17 98.8006C531.88 94.4506 528.15 93.2406 524.61 92.2606C522.26 91.6106 520.01 91.2806 518.41 89.2606C518.02 88.7706 517.52 88.2406 516.93 88.1506C511.88 87.3706 508.75 83.5206 505 80.6906C503.22 79.3406 501.37 78.6505 499.18 78.3905C497.19 78.1605 495.87 78.7906 494.68 80.3506C490.23 86.2006 488.37 92.8706 488.83 100.071C489.01 102.921 488.6 104.911 486 106.321C483.43 107.711 482.39 110.001 482.56 112.911C482.68 115.001 481.78 116.531 480.43 118.231C477.9 121.411 475.72 124.931 474.78 129.061C473.48 134.801 469.99 135.911 465.73 131.871C461.45 127.811 456.89 124.131 451.99 120.841C450.54 119.871 448.96 118.861 448.24 117.241C447.59 115.791 446.6 115.241 445.19 114.831C442.21 113.971 439.49 112.681 438.85 109.181C438.46 107.061 436.37 107.911 435.27 107.031C433.35 101.591 430.59 96.3106 431.84 90.2206C433.93 89.3006 434.75 90.4406 435.1 92.2706C435.39 93.8206 435.04 95.4406 435.56 96.9606C436.29 98.6506 437.6 99.2705 439.38 99.0305C450.66 98.9605 461.94 99.0306 473.21 98.9806C478.65 98.9606 479.68 98.1005 479.6 92.6405C479.36 76.6205 478.56 60.6106 478.92 44.5806C478.97 42.4906 478.51 40.2705 480.16 38.5005C481.31 39.6405 480.85 41.1006 480.85 42.4306C480.89 52.3306 480.95 62.2306 480.83 72.1306C480.79 75.2006 481.89 75.8706 484.67 74.9906C494.02 72.0506 503.68 70.6806 513.41 70.9606C527.21 71.3606 540.51 74.2606 553.15 80.2206C563.69 85.1906 573.01 91.7806 581.02 100.101C585.99 105.261 590.92 110.641 593.67 117.491C592.14 119.071 591.62 122.981 592.98 124.351C595.35 126.721 595.5 123.461 596.67 122.761C599.08 125.871 600.07 129.601 601.19 133.271Z" fill="#F1F3F4"/>
<path d="M418.98 355.171C410.9 374.671 407.14 394.891 408.72 416.021C409.15 421.761 409.94 427.461 411.23 433.071C411.64 434.851 411.57 435.991 409.6 436.411C409.38 436.391 409.23 436.281 409.15 436.081C405.91 435.841 402.68 435.901 399.44 436.321C391.05 437.401 382.59 437.981 374.22 439.101C366.48 440.141 358.67 441.041 351.09 443.101C347.11 444.181 346.37 443.641 346.24 439.711C345.69 422.631 344.44 405.641 340.62 388.921C339.76 385.161 340.57 384.411 344.31 385.161C346.23 385.501 346.04 387.771 347.44 388.611C348.63 389.331 349.21 391.081 351.65 390.721C349.69 387.751 347.45 385.791 344.29 384.901C335.89 382.271 329.3 376.771 322.69 371.301C322.11 370.821 321.75 370.131 322.17 369.311C322.28 368.831 322.39 368.351 322.5 367.881C322.6 365.921 323.64 364.311 324.63 362.751C328.97 355.891 332.76 348.721 336.85 341.711C337.98 339.851 339.48 338.951 341.49 340.321C343.79 341.891 346.31 342.201 348.98 342.111C350.99 342.041 352.65 342.601 353.49 344.691C356.15 351.231 361.74 353.301 368.08 354.031C373.13 354.611 378.02 353.781 382.66 351.671C385.92 351.731 388.91 349.761 392.24 350.361C394.93 352.671 397.94 351.811 400.96 351.181C399.13 349.431 396.51 350.691 394.57 349.451C395.29 345.271 400.33 342.111 403.05 344.611C407.84 349.031 413.09 352.521 418.98 355.171Z" fill="#4384F4"/>
<path d="M168.73 356.591C172.24 354.071 175.12 350.941 176.91 347.001C179.12 342.121 182.4 339.341 188.09 339.231C194.34 339.111 198.59 341.851 201.55 347.031C203.21 349.941 204.74 352.921 206.33 355.871C209.37 364.241 215.04 369.301 224.13 370.191C230.44 370.811 235.86 376.841 235.67 382.901C235.47 389.171 229.64 394.931 223.08 394.941C189.14 395.001 155.21 394.981 121.27 394.951C116.61 394.951 112.71 392.071 112.34 388.571C111.81 383.641 114.01 380.821 119.72 379.651C123.95 378.781 128.45 379.181 132.35 376.741C133.64 375.941 135.08 375.281 135.84 373.981C141.46 364.391 149.65 359.191 160.88 358.921C163.68 358.861 166.2 357.631 168.73 356.591Z" fill="#CDE0FC"/>
<path d="M296.57 56.6506C299.81 56.5806 302.94 55.6206 306.24 55.7406C310.27 55.8906 313.45 57.3406 314.95 61.0606C319.28 71.7806 327.76 75.4606 338.59 76.2306C345.4 76.7106 350.9 80.4906 354.58 86.2206C358.75 92.7306 364.41 95.7806 372.07 95.7106C377.33 95.6606 380.45 98.1106 380.82 102.071C381.29 107.041 378.97 110.021 373.6 111.201C372.52 111.441 371.37 111.431 370.25 111.431C338.18 111.441 306.11 111.471 274.04 111.411C268.87 111.401 263.69 110.891 260.23 106.211C257.53 102.561 256.44 98.5006 258.63 94.2906C260.87 89.9906 264.34 87.2406 269.43 86.6006C277.32 85.6006 283.1 81.5906 285.99 73.9406C287.89 72.1706 290.25 73.0106 292.42 72.8706C294.53 72.7306 296.66 72.9306 298.78 72.7906C302.7 72.5206 305.51 69.9506 305.88 66.3706C306.23 63.0106 304.07 60.0106 300.53 58.7106C299.16 58.2006 297.15 58.7606 296.57 56.6506Z" fill="#CDE0FC"/>
<path d="M200.32 51.9906C204.05 52.3206 204.89 54.6806 204.88 57.9906C204.83 83.8106 204.85 109.621 204.85 135.441C204.85 140.241 202.91 142.231 198.06 142.251C186.78 142.301 175.5 142.281 164.22 142.291C159.91 143.111 155.6 142.791 151.31 142.151C150.33 141.671 150.26 140.801 150.61 139.971C151.9 136.961 153.01 133.781 156.21 132.131C161.63 132.041 161.65 132.031 161.67 126.691C161.68 124.061 161.68 121.441 161.72 118.811C161.76 117.071 162.34 115.431 162.67 113.741C163.31 110.471 165.06 108.221 168.18 106.861C169.49 106.291 171.49 106.111 171.39 103.881C172.07 101.161 174.58 99.7406 175.92 97.4806C177.21 96.5106 178.37 95.2506 180.21 95.4006C184.23 93.9106 188.52 95.1506 192.6 94.1206C188.49 93.8206 184.31 92.7606 180.41 95.1206C178.83 94.5506 179.06 92.7006 178.01 91.7506C175.9 90.0406 175.12 87.2906 171.53 86.6406C168.3 86.0506 166.9 85.5206 164.82 88.9106C163.66 90.8006 163.51 93.7106 160.36 93.8306C153.67 93.7106 146.99 93.7006 140.31 94.1006C144.92 94.7806 149.56 94.4506 154.19 94.5706C156.16 94.6206 158.18 94.3006 160.08 95.1606C161.52 98.7106 159.15 100.241 156.62 101.691C154.34 102.111 152.05 102.051 149.75 101.811C147.18 100.801 144.61 99.8806 141.95 101.561C141.07 101.941 139.95 101.571 139.2 102.451C139.79 103.371 140.81 102.881 141.56 103.211C143.77 104.381 145.95 105.871 148.47 103.851C149.89 103.501 151.38 102.611 152.51 104.391C152.42 107.301 149.99 108.631 148.23 110.231C142.7 115.291 137.31 120.531 131.58 125.371C130.37 126.401 128.91 127.871 127.97 125.011C127.5 122.641 127.67 120.261 127.67 117.891C127.66 99.1206 127.66 80.3406 127.66 61.5706C127.66 59.9406 127.59 58.3106 127.8 56.6906C128.26 53.1406 130.07 50.9906 133.63 51.0006C143.98 51.0106 154.35 50.0706 164.7 51.5406C168.77 52.1206 172.95 51.6006 177.08 51.6806C184.84 51.8506 192.59 51.3206 200.32 51.9906Z" fill="#BCD2F9"/>
<path d="M280.06 195.701C243.87 195.701 207.68 195.751 171.49 195.611C167.93 195.601 166.97 196.691 167.17 200.061C167.44 204.431 167.31 208.821 167.2 213.201C167.15 215.321 167.95 215.971 170.04 216.051C174.87 216.241 179.75 215.261 184.53 216.631C184.14 217.151 183.62 217.571 182.99 217.601C177.43 217.901 171.85 218.801 166.37 216.991C165.32 215.751 165.31 214.221 165.31 212.741C165.3 203.771 165.17 194.811 165.37 185.851C165.41 184.111 165.32 182.361 165.48 180.621C165.9 176.071 167.11 174.691 171.67 173.591C172.32 173.431 172.81 173.131 173.18 172.601C174.39 170.171 172.68 167.081 174.93 164.891C176.09 166.301 175.7 168.021 175.51 169.521C175.06 173.181 176.55 174.481 180.04 173.891C181.45 176.741 183.84 177.331 186.85 177.291C197.23 177.161 207.61 177.271 217.99 177.231C222.15 177.211 222.31 176.891 222.52 172.721C222.67 169.651 221.76 166.461 223.41 163.531C225.5 165.321 223.98 167.701 224.45 169.761C224.81 171.321 223.33 173.811 226.59 173.891C229.82 173.961 228.73 171.531 228.86 169.901C229 168.171 228.85 166.421 228.95 164.691C229 163.791 229.5 163.321 230.42 163.991C230.9 167.061 230.67 170.151 230.64 173.231C230.62 175.861 231.55 176.101 233.77 175.101C235.78 174.201 237.53 172.121 240.15 173.251C241.46 174.351 243.03 173.881 244.48 173.881C265.87 173.931 287.26 173.941 308.65 173.951C309.38 174.711 309.7 175.661 309.73 176.671C309.9 182.271 309.95 187.861 309.7 193.461C309.66 194.341 309.38 195.171 308.82 195.881C299.23 197.471 289.63 197.771 280.06 195.701Z" fill="#DEE0E4"/>
<path d="M405.65 90.4205C399.64 90.4305 393.64 90.4505 387.63 90.4305C382.68 90.4106 381.55 89.2406 381.55 84.1506C381.54 58.2505 381.54 32.3505 381.55 6.44055C381.55 1.86055 382.89 0.410554 387.5 0.230554C390.87 0.100554 394.26 0.20054 397.64 0.20054C415.03 0.20054 432.43 0.19054 449.82 0.20054C455.93 0.20054 457.55 1.85055 457.56 7.94055C457.58 17.5705 457.61 27.2106 457.63 36.8406C455.21 38.7806 452.67 38.4205 450.08 37.2705C448.96 34.8705 449.74 32.3505 449.64 29.8805C449.51 26.6305 449.65 23.3805 449.59 20.1305C449.52 16.0005 449.2 15.6505 445.04 15.6305C436.79 15.5805 428.53 15.5805 420.28 15.6305C416.14 15.6505 415.93 15.9405 415.83 20.1705C415.64 27.9105 416.26 35.6706 415.49 43.4006C414.68 45.5406 413.39 44.6705 412.35 43.7505C410.33 41.9505 408.17 40.2406 406.84 37.7906C406.57 36.3005 406.95 34.8106 406.94 33.3205C406.9 29.5705 405.18 26.7505 402.15 25.6105C398.64 24.2905 394.11 25.4106 391.92 28.1806C391.14 29.1606 390.51 30.2305 389.91 31.3305C387.73 38.0105 388.93 41.0605 395.02 44.1305C395.92 44.5905 396.84 44.9905 397.27 46.0005C398.28 51.9705 397.52 57.9905 397.74 63.9905C397.85 66.8605 397.61 69.7406 398.13 72.6206C398.6 69.3806 398.39 66.1006 398.5 62.8406C398.69 57.2206 397.98 51.5806 398.95 45.9806C400.04 44.1106 401.74 42.9005 403.8 43.5005C405.95 44.1305 406.94 46.0806 407.02 48.3706C406.97 48.7706 406.84 49.1605 406.65 49.5205C405.68 50.8105 404.76 52.1506 404.01 53.5906C401.29 58.8406 401.92 61.4505 407.05 64.3605C409.5 65.7505 410.29 67.3505 409.76 70.1405C408.71 75.6505 407.38 81.1205 407.16 86.7705C407.13 88.0905 407.08 89.6105 405.65 90.4205Z" fill="#BBD2FA"/>
<path d="M34.14 126.571C34.14 99.0205 34.13 71.4606 34.13 43.9106C34.13 38.0806 35.92 36.2706 41.64 36.2706C47.9 36.2706 54.17 36.4306 60.43 36.2106C64.15 36.0806 67.48 35.9706 68.06 40.7906C69.47 42.9406 68.32 44.4405 66.58 45.4205C59.42 49.4405 59.32 56.4705 65.09 61.7805C66.58 63.1505 67.81 64.8106 68.34 66.7406C70.18 73.4906 73.97 78.5706 80.41 81.5406C81.04 83.0006 80.77 84.2706 79.6 85.3406C75.22 84.4106 73.04 87.4906 70.64 90.2306C62.96 99.0406 57.78 109.201 54.72 120.401C53.33 125.491 51.31 130.311 49.45 135.201C48.11 138.741 48.87 142.961 45.83 145.961C44.93 146.841 44.82 148.891 42.98 148.181C41.27 147.521 40.89 145.841 41 144.091C41.02 143.841 41.02 143.531 41.18 143.371C45.08 139.301 43.27 134.121 43.89 129.421C44.38 125.741 43.55 124.991 39.87 125.291C38.21 125.431 36.74 126.111 35.24 126.721C34.85 126.821 34.48 126.771 34.14 126.571Z" fill="#F1F3F4"/>
<path d="M337.23 342.361C332.75 351.121 327.74 359.581 322.48 367.881C318.68 364.541 314.82 361.261 311.09 357.841C309.75 356.611 308.49 355.561 306.56 355.841C304.16 350.201 298.8 346.951 295.42 342.101C294.66 341.291 293.96 340.451 293.32 339.541C276.23 317.731 265.04 293.311 260.61 265.881C260.42 265.331 260.27 264.781 260.14 264.211C259.58 261.911 259.02 259.621 259.22 257.221C261.88 253.531 265.52 252.341 269.9 253.001C272.34 254.311 272.71 256.951 273.8 259.121C273.98 259.441 274.14 259.771 274.3 260.101C282.69 275.321 290.92 290.621 298.66 306.181C300.5 309.881 303.01 312.841 306.22 315.331C316.2 323.081 325.68 331.421 335.5 339.361C336.44 340.111 337.64 340.791 337.23 342.361Z" fill="#EEC4B0"/>
<path d="M407.06 37.6206C409.58 39.9206 412.1 42.2106 414.62 44.5106C419.12 47.2206 422.68 50.6206 424.04 55.9906C425.83 63.0106 427.18 70.1606 429.61 77.0106C430.07 81.5406 432.34 85.7606 431.98 90.4306C432.39 96.1306 434.51 101.441 435.77 106.951C437.97 113.481 444.12 116.121 448.84 120.131C455.47 125.771 461.97 131.571 468.92 136.831C469.08 137.171 469.13 137.521 469.07 137.891C464.89 143.101 460.07 147.761 456.72 153.671C454.14 158.241 452.59 163.231 450.23 167.871C449.91 168.071 449.56 168.121 449.19 168.011C445.42 162.541 440.06 158.511 435.96 153.311C431.62 147.801 427.78 142.021 424.35 135.921C423.6 134.581 423.54 133.081 422.94 131.731C419.83 124.011 416.86 116.251 415.18 108.061C414.21 103.321 413.39 98.5506 413.13 93.7106C413.07 92.5806 413.04 91.4706 412.37 90.4906C411.23 89.1306 411.27 87.4806 411.29 85.8606C411.36 80.7506 410.99 75.6306 411.85 70.5406C412.17 68.6606 411.99 66.9706 410 65.7006C402.45 60.8506 401.72 57.2306 406.36 49.0306V49.0406C407.7 47.5806 406.41 46.5906 405.74 45.4706C404.78 43.8706 403.57 42.4606 402.38 41.0306C401.63 40.1906 400.96 39.2906 400.45 38.2906C399.67 36.7606 399.21 35.1406 400.86 33.9306C402.52 32.7206 403.9 33.7606 405.16 34.8806C406.04 35.6406 406.74 36.5106 407.06 37.6206Z" fill="#EEC4B0"/>
<path d="M422.97 131.741C427.67 139.921 432.32 148.141 438.78 155.121C441.57 158.131 444.44 161.071 447.32 164.001C448.38 165.081 449.53 166.061 449.25 167.801C451.62 171.111 455.16 173.101 458.23 175.601C461.81 178.521 465.5 181.301 469.1 184.201C472.77 187.141 476.66 198.841 475.42 203.361C475.28 203.861 474.94 204.221 474.5 204.491C471.33 205.511 468.06 204.851 464.84 205.031C463.11 205.131 461.29 204.871 460.06 206.531C458.71 208.611 459.49 210.931 459.29 213.131C459.13 214.841 458.9 216.701 456.83 216.751C451.1 216.881 447.03 220.051 443.14 223.691C441.52 223.861 440.65 222.651 439.77 221.671C435.67 217.111 432.01 212.221 429.06 206.841C428.43 205.691 427.48 204.511 428.24 203.011C429.19 202.271 430.34 202.381 431.44 202.251C435.54 201.781 438.47 198.581 438.26 194.831C438.06 191.451 434.66 188.281 430.95 188.031C429.61 187.941 428.22 188.481 426.92 187.751C425.32 186.301 425.74 184.351 425.69 182.551C425.56 176.671 425.34 176.361 419.65 174.671C419.17 174.531 418.76 174.271 418.43 173.881C418.35 170.291 417.66 166.761 417.62 163.141C417.47 152.301 419.63 141.931 422.97 131.741Z" fill="#F1F3F4"/>
<path d="M200.32 51.9906C178.64 52.0006 156.96 52.0206 135.28 52.0406C129.93 52.0506 128.86 53.1006 128.86 58.3706C128.87 81.0506 128.9 103.731 128.92 126.421C129.1 129.301 126.79 130.051 124.85 130.961C123.41 131.641 122.9 130.311 122.5 129.301C121.68 127.231 120.96 125.131 120.28 123.011C122.04 119.361 120.43 116.531 118.26 113.631C113.77 107.641 109.43 101.551 103.93 96.4006C102.21 94.7906 100.45 93.1506 99.63 90.8206C99.5 90.4406 99.42 90.0605 99.38 89.6705C99.27 88.4205 99.33 87.1705 99.31 85.9205C99.26 83.5705 100.29 82.3505 102.67 81.7805C108.68 80.3305 110.41 77.9005 110.56 71.7805C110.63 68.7005 109.9 65.5206 111.51 62.5906C114.59 58.7706 117.63 55.0005 117.43 49.6105C117.31 46.5105 116.79 43.6605 114.79 41.2005C114.18 40.4405 113.43 39.6706 113.82 38.5206C114.21 37.3106 114.24 36.1606 116.26 36.1806C130.53 36.3206 144.79 36.2306 159.06 36.2706C162.37 36.2806 164.09 38.1105 164.22 41.4205C164.23 41.6705 164.22 41.9205 164.22 42.1705C164.44 51.2905 164.44 51.2906 173.48 51.2906C181.11 51.2906 188.75 51.2705 196.38 51.3105C197.72 51.3305 199.18 50.8506 200.32 51.9906Z" fill="#F1F3F4"/>
<path d="M296.57 56.6506C298.36 57.9406 300.66 57.1506 302.59 58.3406C305.63 60.2206 307.69 63.8505 307.02 67.1105C306.21 71.0605 303.1 73.7806 299.15 73.8506C294.77 73.9306 290.38 73.9105 285.99 73.9405C266.06 73.9205 246.14 73.9105 226.21 73.8905C221.33 73.8805 219.24 72.4406 219.13 69.0906C219.02 65.5706 221.69 63.2705 226.4 63.4405C231.85 63.6406 235.19 61.7105 237.11 56.2505C239.52 49.4205 242.67 48.0805 249.8 48.9705C257.08 49.8805 263.83 49.0905 268.71 42.6405C269.68 41.3605 270.93 40.2306 272.22 39.2606C277.3 35.4506 281.61 36.4906 284.52 42.1006C286.7 46.3006 288.21 50.9005 292.06 54.0805C293.46 55.2105 294.79 56.3006 296.57 56.6506Z" fill="#A7C6F9"/>
<path d="M113.82 38.5306C120.65 47.2606 120.1 55.4806 112.21 62.5906C111.44 62.6306 110.97 62.1106 110.95 61.5006C110.87 56.9406 107.63 56.2706 104.13 55.6906C99.53 54.9306 95.49 55.9206 92.09 59.1606C91.07 60.1306 90.1 60.8906 88.57 60.9506C84.13 61.1306 83.72 61.7306 84.65 66.1406C84.75 66.6306 84.85 67.1106 84.82 67.6106C84.76 67.8506 84.71 68.1306 84.53 68.2706C79.93 71.8006 79.12 76.1106 81.88 81.1506C81.55 82.6806 80.77 82.3106 79.92 81.6006C74.13 80.1306 70.9 76.0206 68.9 70.7506C67.47 66.9906 65.79 63.5806 62.83 60.6006C57.95 55.6906 59.1 49.0706 65.07 45.3406C66.87 44.2206 68.53 43.2606 68.05 40.7706C68.22 39.2906 68.44 37.8206 68.54 36.3406C68.92 30.5606 72.28 27.5606 78.08 27.9906C79.68 28.1106 81.3 28.4106 82.85 28.8406C85.05 29.4606 86.92 29.1306 88.83 27.8206C91.86 25.7306 95.33 24.6806 98.98 24.3806C105.53 23.8406 109.84 27.0506 111.5 33.5606C111.97 35.3806 112.24 37.2606 113.82 38.5306Z" fill="#2A0C0D"/>
<path d="M110.92 173.191C109.65 174.391 108.06 173.891 106.61 173.901C97.27 173.941 87.92 173.921 77.93 173.921C80.83 175.421 83.3 175.511 85.77 175.371C87.71 175.261 89.57 175.631 91.17 176.621C92.66 177.541 94.09 178.831 93.32 180.931C92.66 182.731 91.74 184.401 89.41 184.411C88.91 184.411 88.41 184.421 87.91 184.421C61.47 184.421 35.04 184.431 8.6 184.401C4.41 184.401 1.39 181.811 1.04 178.141C0.67 174.171 2.77 170.661 7.01 170.391C16.78 169.761 20.64 163.201 23.61 155.391C25.46 150.511 28.29 146.831 34.11 146.791C37.62 144.741 39.99 147.161 42.24 149.131C43.79 150.481 45.23 152.051 46.53 153.691C46.77 154.301 46.81 154.921 46.71 155.561C45.91 159.751 44.17 163.661 43.15 167.791C42.21 171.581 42.42 172.001 46.26 172.021C56.63 172.061 67 172.101 77.37 171.991C85.28 172.011 93.18 171.851 101.08 172.061C104.23 171.871 107.69 173.001 110.21 169.981C112 170.711 111.57 171.921 110.92 173.191Z" fill="#D9E5FD"/>
<path d="M418.42 173.861C424.76 173.171 427.33 176.291 426.78 182.101C426.62 183.841 425.98 185.861 427.53 187.451C425.76 190.461 423.35 193.061 421.82 196.231C420.03 196.871 418.25 196.901 416.48 196.191C414.94 195.021 415.23 193.291 415.23 191.711C415.24 189.001 414.08 188.821 411.95 189.851C407.47 192.031 403.1 194.441 398.58 196.571C388.45 197.221 378.31 196.731 368.18 196.861C362.56 196.941 362.5 196.951 362.47 202.481C362.44 208.861 362.58 215.251 362.38 221.631C362.33 223.141 362.98 225.341 360.38 225.751C359.14 224.271 359.39 222.471 359.32 220.741C358.78 206.411 360.19 192.111 360.1 177.781C360.09 176.411 360.15 175.021 361.2 173.931C380.28 173.921 399.35 173.891 418.42 173.861Z" fill="#DEE0E4"/>
<path d="M361.21 173.941C360.99 191.211 360.77 208.491 360.56 225.761C359.24 228.941 356.4 228.201 353.91 228.351C343.53 228.611 333.15 228.431 322.77 228.461C321.27 228.461 319.76 228.451 318.35 227.801C316.24 226.561 315.8 224.551 315.8 222.331C315.78 204.601 315.79 186.871 315.8 169.141C315.8 167.041 316.13 165.121 318.39 164.221C331.09 164.181 343.8 164.151 356.5 164.081C359.19 164.071 360.75 165.111 360.83 167.981C360.87 169.971 361.07 171.961 361.21 173.941Z" fill="#6298F1"/>
<path d="M449.98 36.9105C452.53 36.8905 455.08 36.8705 457.63 36.8405C463.55 36.8905 469.47 36.9705 475.39 36.9705C477.18 36.9705 478.82 37.2105 480.17 38.4905C480.21 41.8605 480.26 45.2405 480.29 48.6105C480.42 63.7305 480.57 78.8505 480.65 93.9705C480.68 99.4705 479.91 100.241 474.37 100.231C462.25 100.201 450.12 100.101 438 100.031C436.09 98.6905 435.42 96.8405 435.42 94.5405C435.43 77.3005 435.43 60.0705 435.41 42.8305C435.41 40.9105 436.33 39.2005 436.33 37.3105C440.82 34.8505 445.39 35.3805 449.98 36.9105Z" fill="#6298F2"/>
<path d="M110.92 173.191C110.72 172.161 111.18 170.981 110.18 170.141C109 169.401 108.66 168.171 108.5 166.931C107.83 161.491 106.75 156.091 106.55 150.601C108.28 148.081 109.52 150.041 110.5 151.231C112.97 154.211 115.77 156.851 118.51 159.561C121.6 162.631 122.53 162.631 125.6 159.681C128.11 157.271 130.53 154.771 133 152.321C134.34 150.991 135.73 149.761 137.74 149.581C145.39 149.201 153.03 149.441 160.68 149.441C161.94 149.441 163.19 149.611 164.19 150.521C164.2 153.261 164.35 156.011 164.19 158.741C164.02 161.541 165.34 162.481 167.92 162.631C169.69 162.741 171.68 161.801 173.22 163.441C171.64 164.831 169.68 164.531 167.84 164.541C156.69 164.581 145.54 164.561 134.39 164.571C130.45 164.891 130.02 165.301 130.02 169.391C129.99 185.901 130.02 202.411 129.99 218.921C129.99 220.751 130.39 222.721 128.88 224.261C127.65 223.151 128.16 221.681 128.15 220.371C128.11 205.871 128.05 191.381 128.19 176.881C128.22 173.951 127.43 172.891 124.41 173.061C119.93 173.321 115.42 173.171 110.92 173.191Z" fill="#F1F3F3"/>
<path d="M223.41 163.511C224.18 167.611 223.51 171.761 223.84 175.871C223.99 177.751 223 178.201 221.34 178.201C208.44 178.171 195.53 178.141 182.63 178.211C179.09 178.231 180.7 175.451 180.04 173.891C180.1 172.771 180.21 171.651 180.22 170.531C180.27 163.561 180.26 163.571 187.42 163.561C199.42 163.551 211.41 163.531 223.41 163.511Z" fill="#36A854"/>
<path d="M166.6 216.621C172.58 216.621 178.56 216.631 184.54 216.631C192.69 217.101 192.69 217.101 192.72 225.331C192.73 226.581 192.65 227.831 192.72 229.081C192.81 230.721 192.05 231.261 190.49 231.241C176.24 231.071 161.99 231.561 147.74 230.921C147.7 229.511 147.66 228.111 147.63 226.701C145.94 223.981 146.5 221.051 146.82 218.151C147.39 216.011 149.14 215.731 150.93 215.651C154.29 215.511 157.66 215.541 161.02 215.601C162.91 215.771 164.92 215.321 166.6 216.621Z" fill="#DE392A"/>
<path d="M147.61 218.201C147.62 221.031 147.63 223.861 147.63 226.691C143.11 226.591 138.6 226.481 134.08 226.381C131.07 225.821 130.03 223.831 130.03 220.971C130.03 203.811 130 186.651 130.06 169.491C130.07 166.731 130.61 164.151 134.05 163.641C147.11 163.011 160.17 163.461 173.23 163.461C173.8 163.941 174.37 164.421 174.93 164.901C174.89 167.881 175.3 170.871 174.69 173.841C172.38 174.941 170.99 174.061 170.77 171.681C170.52 168.851 168.87 168.291 166.45 168.301C157.94 168.341 149.44 168.391 140.93 168.281C137.8 168.241 136.78 169.541 136.8 172.521C136.87 185.901 136.8 199.291 136.85 212.671C136.87 216.721 137.24 216.961 141.48 217.111C143.57 217.161 145.78 216.671 147.61 218.201Z" fill="#F8BA0D"/>
<path d="M34.14 126.571C34.38 126.701 34.62 126.701 34.86 126.591C36.02 125.691 37.45 125.651 38.79 125.551C41.45 125.351 43.08 126.651 43.42 129.341C43.64 131.081 43.52 132.841 43.51 134.591C43.5 141.201 40.43 143.001 34.11 140.121C24.87 140.071 15.63 139.931 6.40001 140.031C3.72001 140.061 2.69001 139.461 2.68001 136.541C2.65001 126.731 2.54001 126.751 12.41 126.731C19.66 126.691 26.9 126.621 34.14 126.571Z" fill="#4384F3"/>
<path d="M305.85 139.961C300.35 139.961 294.85 139.831 289.35 140.021C286.79 140.111 286.07 139.161 286.23 136.781C286.39 134.421 286.35 132.031 286.24 129.661C286.14 127.681 286.63 126.711 288.9 126.721C300.27 126.811 311.65 126.801 323.02 126.721C325.2 126.701 325.87 127.531 325.76 129.591C325.63 132.081 325.6 134.601 325.77 137.081C325.94 139.471 324.92 140.041 322.71 140.001C317.1 139.871 311.47 139.961 305.85 139.961Z" fill="#DE3A2C"/>
<path d="M318.37 227.161C330.41 227.241 342.44 227.331 354.48 227.411C353.64 232.131 352.17 233.611 347.65 233.671C336.62 233.801 325.59 233.801 314.57 233.671C310.11 233.621 308.4 232.101 308.3 227.931C308.06 217.661 308.23 207.381 308.21 197.111C308.21 196.611 308.42 196.131 308.64 195.681C308.64 188.431 308.65 181.181 308.65 173.931C310.59 173.901 312.54 173.871 314.48 173.841C316.19 175.261 315.74 177.251 315.75 179.061C315.79 193.381 315.78 207.701 315.75 222.011C315.75 224.251 315.82 226.301 318.37 227.161Z" fill="#D2D7DC"/>
<path d="M294.27 339.411C294.83 340.101 295.39 340.791 295.94 341.491C294.99 344.451 292.43 343.031 290.55 343.461C287.68 343.581 284.8 343.521 281.92 343.491C279.49 343.461 278.19 344.321 278.19 346.951C278.18 356.711 278.23 366.471 278.17 376.241C278.16 377.741 278.72 378.791 280.24 378.801C286.99 378.861 293.74 379.121 300.49 378.661C300.99 378.631 301.34 378.161 301.64 377.761C302.89 371.941 301.82 366.051 302.23 360.211C302.36 357.971 301.91 355.711 302.38 353.481C302.58 352.571 302.66 351.261 304 351.441C304.99 351.571 305.67 352.461 305.9 353.531C305.95 353.771 305.96 354.031 305.96 354.281C305.79 364.371 306.35 374.481 305.66 384.561C305 385.941 303.73 385.981 302.47 385.971C293.24 385.931 284.02 385.871 274.79 385.821C273.19 384.641 272.98 382.931 272.98 381.121C272.96 368.851 272.97 356.591 272.97 344.321C272.97 342.771 273.34 341.361 274.04 340.001C277.51 339.171 281.12 340.591 284.57 339.361C287.82 337.541 291.05 337.631 294.27 339.411Z" fill="#6499F0"/>
<path d="M34.12 140.101C34.24 140.081 34.36 140.061 34.49 140.031C36.99 139.541 41.01 141.191 41.75 139.171C42.95 135.891 42.22 131.881 42.2 128.181C42.2 126.851 41.08 126.741 40.05 126.711C38.32 126.661 36.59 126.621 34.86 126.581C37.26 123.491 40.63 124.221 43.79 124.421C45.13 124.501 45.6 125.821 45.35 126.991C44.6 130.561 44.45 134.071 45.06 137.711C45.33 139.331 44.01 140.991 42.77 142.261C41.55 143.511 41.35 144.821 42.18 146.331C42.53 146.971 42.72 147.871 43.64 147.781C44.34 147.711 44.4 146.951 44.64 146.361C48.57 136.611 51.59 126.551 54.98 116.621C58.63 105.931 63.47 96.0806 71.5 87.9906C71.68 87.8106 71.93 87.6705 72.02 87.4505C73.49 83.9405 75.92 83.3706 79.11 85.1206C79.44 85.4406 79.46 85.7706 79.17 86.1206C73.03 89.9506 69.52 96.0906 65.65 101.831C59.55 110.881 57.11 121.431 53.97 131.681C52.14 137.641 50.31 143.601 48.6 149.601C48.17 151.101 47.97 152.861 46.16 153.561C44.45 153.461 43.58 152.171 42.7 150.991C40.55 148.111 37.82 146.501 34.14 146.761C34.11 144.561 34.11 142.331 34.12 140.101Z" fill="#F0F3F4"/>
<path d="M322.16 369.311C328.77 375.781 336.12 381.141 344.89 384.351C345.56 384.321 346.04 384.611 346.26 385.231C346.5 385.891 346.02 386.021 345.54 386.121C344.81 385.961 344.05 385.871 343.35 385.611C341.34 384.861 340.68 385.741 341.16 387.561C343.87 397.841 345.02 408.381 345.96 418.921C346.58 425.871 347.41 432.861 347 439.871C346.82 442.941 348 443.431 350.83 442.741C359.29 440.671 367.9 439.411 376.58 438.571C383.76 437.881 390.91 436.861 398.08 435.981C401.78 435.531 405.48 435.151 409.17 436.091C398.5 437.191 387.84 438.251 377.18 439.401C367.63 440.421 358.18 442.071 348.77 443.961C347.84 444.151 346.99 444.791 346.11 445.221C344.78 440.091 345.27 434.821 344.99 429.621C344.21 415.371 342.75 401.251 339.32 387.361C338.68 384.781 337.54 382.981 335.08 381.661C330.44 379.181 326.39 375.801 322.43 372.351C321.39 371.461 319.91 370.501 322.16 369.311Z" fill="#3267B9"/>
<path d="M164.19 150.521C154.91 150.521 145.62 150.521 136.34 150.531C137.4 146.451 140.23 143.791 143.57 141.531C145.94 141.341 148.32 140.831 150.69 141.551C155.2 141.821 159.77 140.911 164.22 142.301C164.22 145.041 164.21 147.781 164.19 150.521Z" fill="#D4D8DD"/>
<path d="M406.4 49.0405C406.43 51.6805 404.96 53.9305 404.7 56.6005C404.26 61.0305 406.49 63.5305 409.93 64.4305C413.49 65.3605 413.53 67.5005 413.1 69.9805C411.93 76.8105 412.72 83.6705 412.41 90.5105C410.16 90.4805 407.91 90.4505 405.65 90.4205C406.67 82.9505 407.35 75.4205 409.22 68.0805C409.62 66.5205 408.3 66.2305 407.38 65.7005C400.01 61.4705 399.62 54.8405 406.4 49.0405Z" fill="#B2C3DF"/>
<path d="M134.05 163.631C131.8 164.831 131.13 166.781 131.14 169.231C131.18 186.581 131.22 203.921 131.1 221.271C131.08 223.791 132.21 225.201 134.08 226.391C131.78 227.091 130.1 226.261 128.88 224.281C128.9 205.661 128.9 187.031 128.94 168.411C128.96 164.231 129.88 163.421 134.05 163.631Z" fill="#DA9718"/>
<path d="M318.37 227.161C314.84 227.461 314.66 225.071 314.65 222.531C314.64 207.671 314.62 192.811 314.6 177.951C314.6 176.581 314.52 175.211 314.48 173.841C314.54 171.751 314.54 169.661 314.67 167.571C314.82 165.311 315.75 163.791 318.38 164.221C317.18 165.631 316.9 167.241 316.91 169.071C316.96 186.811 316.97 204.551 316.91 222.291C316.91 224.141 317.22 225.741 318.37 227.161Z" fill="#2E65BB"/>
<path d="M274.59 126.731C278.01 126.841 281.36 130.251 281.3 133.531C281.24 136.901 277.84 140.021 274.3 139.941C270.54 139.861 267.77 136.981 267.83 133.221C267.9 129.621 271.02 126.611 274.59 126.731Z" fill="#F9BB0B"/>
<path d="M290.51 342.421C292.3 342.001 294.36 343.111 295.95 341.491C299.1 344.871 302.21 348.281 305.41 351.611C306.62 352.861 306.36 354.381 306.57 355.831C306.47 364.081 306.4 372.331 306.26 380.581C306.24 381.911 306.68 383.351 305.68 384.551C305.15 373.701 306.39 362.761 305.04 351.951C304.44 351.951 303.84 351.961 303.24 351.961C303.24 354.811 303.24 357.671 303.24 360.521C299.51 359.521 299.04 355.521 296.59 353.341C294.47 349.761 291.16 346.831 290.51 342.421Z" fill="#7BA2E1"/>
<path d="M240.15 173.231C237.48 174.461 234.8 175.691 232.14 176.941C231.1 177.431 229.58 178.081 229.63 176.351C229.76 172.221 228.51 167.981 230.42 163.971C234.85 166.131 239.27 168.281 243.77 170.471C242.94 172.261 241.13 172.181 240.15 173.231Z" fill="#F7BB10"/>
<path d="M267.32 355.841C267.31 353.611 267.33 351.381 267.26 349.151C267.22 347.811 267.49 346.321 268.66 345.951C271.29 345.121 271.81 342.961 272.57 340.861C273.45 341.921 273.27 343.211 273.27 344.431C273.29 356.611 273.29 368.801 273.26 380.981C273.26 382.191 273.53 383.501 272.44 384.481C271.06 382.421 271.85 380.111 271.8 377.931C271.68 372.071 271.53 366.181 271.84 360.331C272.05 356.711 270.89 355.271 267.32 355.841Z" fill="#CAD4E2"/>
<path d="M272.45 384.481C272.49 369.941 272.54 355.401 272.58 340.851C273.07 340.571 273.57 340.291 274.06 340.011C274.05 353.571 274.06 367.141 274.01 380.701C274 382.471 274.21 384.171 274.81 385.821C273.51 386.271 273.02 385.301 272.45 384.481Z" fill="#2F63B2"/>
<path d="M596.68 122.751C596.66 124.511 596.89 126.591 594.25 126.411C592.15 126.271 591.43 124.721 591.4 122.721C591.38 121.621 591.07 120.531 590.92 119.441C590.57 117.001 591.58 116.461 593.69 117.481C595.56 118.731 596.14 120.731 596.68 122.751Z" fill="#F1F3F4"/>
<path d="M449.96 167.701C453.25 155.831 459.41 145.781 468.86 137.811C469.44 137.241 470.18 137.031 470.93 137.231C478.19 139.111 485.42 141.071 491.32 145.591C491.25 142.941 493.34 142.871 495.26 142.841C502.76 142.741 510.25 142.841 517.75 142.781C520.24 142.761 522.75 143.091 525.2 142.341C531.32 141.731 537.45 141.971 543.57 142.161C547.13 142.271 550.02 144.011 552.09 146.971C556.6 153.441 560.4 160.361 564.68 166.991C565.98 169.001 565.65 170.511 563.34 171.431C562.61 171.781 561.86 172.091 561.11 172.401C557.59 173.691 554.18 175.251 550.63 176.461C548.87 177.061 547.4 178.011 547.4 180.101C547.39 184.081 546.83 188.091 547.96 192.031C548.13 203.841 549.41 215.611 548.93 227.421C548.84 229.661 548.7 231.901 549.41 234.081C549.55 238.111 550.74 242.231 548.45 246.061C526.77 254.321 504.84 255.311 482.56 248.531C478.58 247.321 475.33 246.061 475.9 241.081C477.39 239.171 479.54 239.831 481.45 239.701C483.43 239.561 484.91 239.031 484.93 236.731C484.99 226.991 485.23 217.251 484.8 207.511C484.77 206.761 484.43 206.061 484.17 205.371C483.53 203.871 482.73 202.291 483.06 200.691C483.86 196.801 481.56 194.871 478.93 192.701C469.89 185.281 460.7 178.041 451.65 170.631C450.72 169.881 449.31 169.351 449.96 167.701Z" fill="#DE392A"/>
<path d="M440.83 322.211C447.01 336.021 437.91 351.201 420.63 351.411C414.54 352.271 410.21 349.061 406.09 345.251C404.62 343.891 403.92 341.291 402.14 340.971C400.2 340.621 399.18 343.311 397.47 344.331C393.67 346.581 389.69 348.311 385.29 349.021C384.92 349.131 384.54 349.201 384.15 349.251C378.39 349.801 372.92 348.991 368.15 345.471C365.3 343.361 362.97 340.781 362.2 337.141C362.07 336.121 362.1 335.151 363.11 334.531C363.97 334.191 364.84 334.371 365.65 334.621C368.79 335.571 371.58 335.041 373.66 332.451C375.84 329.721 375.79 326.771 373.85 323.871C372.68 322.241 373.37 320.921 374.36 319.471C375.48 317.821 375.61 315.601 373.39 315.211C368.64 314.381 368.09 310.921 367.47 307.271C367.28 306.161 367.05 305.061 367.09 303.921C367.62 298.081 369.77 293.491 376.13 292.121C388.5 288.011 401.9 295.891 406.99 310.191C408.37 314.071 408.36 314.061 412.1 312.321C413.23 311.791 414.37 311.301 415.55 310.881C423.36 308.701 430.36 310.371 436.56 315.461C438.72 317.201 440.54 319.251 440.83 322.211Z" fill="#2A0C0D"/>
<path d="M440.83 322.211C434.95 312.581 426.36 309.441 415.53 311.671C414.37 310.341 415.39 309.351 416.11 308.401C420.49 302.671 424.04 296.361 428.39 290.611C429.64 288.961 430.14 287.101 430.51 285.111C430.8 283.571 430.83 281.831 432.41 280.831C434.72 279.991 437.13 280.371 439.49 280.321C441.85 280.271 442.94 279.201 442.89 276.871C442.87 275.871 442.91 274.871 442.91 273.861C442.92 267.101 442.92 267.101 436.42 265.731C435.8 265.601 435.23 265.351 434.78 264.871C434.04 261.831 435.23 258.951 435.54 255.991C435.94 252.281 435.66 251.801 431.92 251.761C422.94 251.661 413.95 251.791 404.97 251.681C403.26 251.661 401.11 252.221 400.28 249.801C401.84 248.381 403.79 248.721 405.62 248.711C414.47 248.661 423.32 248.731 432.18 248.671C436.36 248.641 436.76 248.251 437.52 244.101C438.15 240.671 438.58 237.201 439.35 233.791C440.54 230.411 439.62 226.371 442.5 223.511C445.98 218.981 450.2 215.791 456.25 215.981C457.97 216.031 458.22 215.041 458.32 213.611C458.48 211.171 457.72 208.661 458.82 206.291C460.34 207.311 460.02 208.931 460.11 210.381C460.38 214.851 460.36 214.851 464.98 214.911C466.36 214.931 467.74 214.861 469.11 215.061C470.4 215.251 471.85 215.641 471.84 217.121C471.83 218.641 470.4 218.961 469.06 218.981C468.06 219.001 467.06 218.991 466.26 219.011C468.19 219.041 470.33 218.781 472.45 218.871C474.53 218.961 476.38 219.681 474.57 222.361C471.88 223.211 469.11 222.511 466.72 222.761C468.55 222.921 470.74 222.461 472.88 223.041C474.75 225.131 473.62 226.111 471.5 226.621C470.01 226.981 468.52 226.241 467.27 226.541C468.11 226.641 469.57 226.331 469.76 227.931C469.92 229.251 468.62 229.731 467.72 229.611C461.71 228.831 459.32 231.601 459.72 237.371C459.75 237.851 459.31 238.261 458.82 238.481C457.59 235.881 458.72 233.051 458.08 230.391C451.37 231.341 451.2 232.281 451.72 239.091C452.87 253.891 453.67 268.681 451.86 283.571C450.22 297.131 446.99 310.041 440.83 322.211Z" fill="#EEC4B0"/>
<path d="M562.78 170.801C564.31 170.141 565.23 169.551 563.95 167.581C559.81 161.201 555.93 154.661 551.86 148.231C549.63 144.711 546.37 142.931 542.13 142.961C536.52 143.001 530.91 142.961 525.29 142.961C524.92 142.871 524.56 142.771 524.2 142.661C521.84 142.181 521.21 140.501 521.22 138.371C521.19 137.011 521.16 135.651 521.59 134.331C528.31 127.161 528.8 117.541 531.51 108.821C532.71 104.961 531.14 101.781 527.54 99.6105C519.5 94.7705 511.66 89.6206 503.74 84.6006C498.97 81.5806 496.66 82.4505 494.75 87.7505C494.37 88.8105 494.15 89.9205 493.68 90.9505C491.92 94.2405 492.05 97.5906 493.35 100.981C493.79 102.131 494.35 103.251 494.39 104.521C494.39 105.511 494.06 106.381 493.37 107.101C492.74 107.701 491.95 108.041 491.17 108.411C486.48 110.651 486.48 110.651 487.46 115.421C485.71 119.921 482.22 123.281 479.68 127.271C477.26 131.081 477.49 131.191 480.87 134.291C485.3 138.371 490.4 138.761 495.91 138.051C497.85 139.091 497.72 140.631 496.94 142.321C492.73 143.401 488.59 144.181 484.38 142.041C479.5 139.551 474.08 138.601 468.86 137.091C465.3 136.651 463.4 133.641 460.98 131.641C453.48 125.441 446.25 118.901 438.31 113.271C435.89 111.551 436.73 109.011 435.76 106.971C438.28 106.141 439.86 105.581 440.02 109.701C440.15 113.251 444.19 113.741 447.26 114.281C447.86 114.391 449.18 113.581 448.88 114.731C447.96 118.281 451.09 119.051 452.8 120.241C457.61 123.591 462.32 127.011 466.35 131.271C467.87 132.871 469.49 133.711 471.66 133.181C473.82 132.651 473.38 130.561 473.77 129.151C475.07 124.371 477.04 120.031 480.81 116.691C481.97 115.661 481.7 114.341 481.55 113.191C481.05 109.281 482.69 106.681 486.14 105.091C487.86 104.301 488.2 103.351 487.96 101.291C486.91 92.5606 489.64 84.8306 495.17 78.0706C496.34 76.6506 502.17 77.2005 504.14 78.7705C506.48 80.6305 508.93 82.3706 511.14 84.3706C512.68 85.7606 514.1 86.9905 516.36 86.7505C516.89 86.6905 517.71 87.0405 518 87.4705C520.11 90.6205 523.51 90.4405 526.58 91.5605C529.98 92.8005 534.26 94.9005 534.81 99.8905C535.02 101.841 535.9 103.491 538.42 103.311C539.19 103.261 540.28 104.221 539.93 104.551C537.48 106.921 540.54 108.861 540.28 111.011C540.12 112.371 540.36 113.741 538.63 114.401C534.33 116.021 533.08 117.521 534.49 121.711C535.62 125.071 533.32 127.691 533.81 130.761C533.94 131.561 532.68 132.451 531.61 132.471C528.94 132.521 528.94 134.711 528.38 136.391C528.1 137.251 528.22 138.341 529.38 138.421C531.4 138.551 533.95 140.371 535.36 138.221C538.57 133.301 542.12 136.671 544.95 137.911C548.72 139.561 551.92 142.361 556.51 141.641C558.69 141.301 559.63 143.151 558.96 144.821C556.82 150.151 560.98 153.791 562.18 158.201C562.34 158.781 562.82 159.341 563.55 159.251C564.4 159.141 564.19 158.351 564.35 157.781C565.22 154.731 568.51 153.211 571.28 154.591C571.68 154.791 572.09 155.221 572.21 155.631C572.39 156.231 571.82 156.561 571.32 156.551C567.83 156.461 569.71 160.341 567.65 161.411C564.63 162.981 566.9 165.061 567.41 166.871C567.82 168.331 568.09 169.751 568.12 171.281C568.22 177.431 571.92 182.221 574.57 187.341C575.52 189.181 576.66 190.851 577.41 192.881C578.36 195.451 579.08 198.121 581.57 200.201C584.1 202.311 582.52 205.361 580.67 207.491C578.78 209.661 576.9 211.661 575.87 214.511C575.01 216.901 572.01 217.291 570.12 218.891C565.96 222.421 562.41 226.581 558.15 229.981C557.28 230.671 556.7 231.801 555.44 231.781C552.25 231.721 553.01 234.051 553.14 235.751C553.3 237.831 554.61 237.711 556.4 237.411C559.55 236.881 559.25 238.811 558.31 240.851C555.28 243.101 551.76 244.421 548.42 246.081C548.42 242.121 548.42 238.151 548.41 234.191C547.81 228.281 547.81 228.291 552.69 225.671C561.54 220.911 568.83 214.351 575.02 206.481C576.68 204.371 576.49 202.501 575.35 200.271C571.32 192.351 567.38 184.381 563.42 176.431C562.57 174.641 561.28 172.861 562.78 170.801Z" fill="#F1F3F4"/>
<path d="M474.11 222.171C475.86 219.971 474.34 219.691 472.59 219.671C469.53 219.631 466.48 219.661 463.4 219.291C465.29 218.161 467.38 218.751 469.37 218.561C470.24 218.481 471.35 218.511 471.4 217.381C471.46 216.001 470.27 215.981 469.26 215.981C466.76 215.961 464.24 215.801 461.76 216.021C459.33 216.231 458.75 215.241 458.89 213.031C459.04 210.791 458.86 208.541 458.82 206.291C459.49 204.321 460.97 203.781 462.92 203.781C466.91 203.791 470.9 203.681 474.88 203.621C478.17 202.331 481.39 202.361 484.54 204.081C486.09 205.281 486.26 206.941 486.25 208.761C486.2 217.771 486.24 226.781 486.22 235.781C486.21 240.631 485.95 240.851 481.13 240.921C479.38 240.941 477.63 241.011 475.88 241.051C471.53 241.041 467.18 241.011 462.83 241.041C460.89 241.061 459.41 240.491 458.82 238.481C458.84 238.361 458.87 238.231 458.88 238.111C459.2 235.271 457.75 231.751 459.5 229.741C461.2 227.781 464.73 229.261 467.44 228.971C468.15 228.891 469.2 229.061 469.28 228.181C469.41 226.861 468.18 227.101 467.38 227.071C465.77 227.011 464.15 227.051 462.51 226.691C465.24 225.661 468.11 226.071 470.93 225.941C472.61 225.861 474.26 225.771 472.61 223.451C472.23 221.981 473.65 222.641 474.11 222.171Z" fill="#292D32"/>
<path d="M385.64 348.031C392.18 346.841 397.79 343.941 402.38 338.451C406.24 346.321 412.56 350.171 420.63 351.411C420.08 352.661 419.53 353.911 418.98 355.171C413.78 354.261 409.37 351.991 405.69 348.091C401.18 343.301 401.08 343.401 396.14 347.631C395.58 348.111 394.94 348.521 394.34 348.961C393.87 349.891 393 350.281 392.08 350.581C389.11 351.291 386.3 352.761 383.11 352.351C383.04 350.381 385.48 349.871 385.64 348.031Z" fill="#2F65BB"/>
<path d="M461.9 273.581C461.9 265.251 461.9 265.251 469.41 268.921C471.66 270.021 473.87 271.181 476.16 272.191C478.22 273.101 477.98 273.931 476.21 274.801C472.17 276.781 468.1 278.701 464.08 280.721C462.28 281.621 461.88 280.831 461.9 279.211C461.92 277.331 461.9 275.461 461.9 273.581Z" fill="#F8BB0C"/>
<path d="M564.34 237.051C562.14 237.131 560.8 236.161 561.55 233.921C562.34 231.561 564.59 231.311 566.54 231.971C569.27 232.891 565.99 234.341 566.59 235.551C566.17 236.551 565.42 237.051 564.34 237.051Z" fill="#F1F3F4"/>
<path d="M589.91 212.241C588.38 212.491 587.46 215.841 585.76 213.731C584.26 211.861 586.27 210.141 587.74 208.781C588.38 208.191 589.11 207.421 589.99 208.031C591.21 208.891 590.46 210.311 590.66 211.481C590.41 211.731 590.16 211.981 589.91 212.241Z" fill="#F1F3F4"/>
<path d="M385.64 348.031C386.23 348.291 387.45 348.291 386.46 349.361C385.45 350.451 384.25 351.361 383.13 352.351C376.04 356.011 368.73 356.141 361.35 353.491C357.32 352.051 353.97 349.621 352.74 345.271C352.18 343.281 350.96 343.201 349.38 343.261C346.64 343.361 343.8 343.631 341.6 341.491C339.65 339.591 338.41 340.631 337.24 342.361C332.66 337.571 327.19 333.841 322.16 329.581C316.17 324.511 310.08 319.551 303.91 314.691C298.6 310.511 297.02 304.101 293.97 298.601C286.94 285.951 280.21 273.121 273.35 260.371C273.91 259.161 274.55 258.001 275.13 256.811C275.76 255.001 276.84 254.801 278.64 255.401C283.87 257.151 287.11 255.781 289.83 250.961C290.15 250.151 290.57 249.381 290.91 248.571C292.83 244.051 291.53 240.021 287.4 237.671C283.55 235.481 278.79 236.601 276.14 240.331C275.28 241.551 274.7 242.971 273.49 243.931C271.69 244.341 269.87 244.091 268.05 244.121C264.09 241.431 261.12 237.711 257.81 234.331C256.9 233.401 256.6 232.171 256.69 230.861C257.09 228.841 257.5 226.821 258.73 225.081C262.86 220.531 268.23 220.811 273.55 221.551C275.14 221.771 276.72 221.491 278.3 221.891C279.85 222.281 280.09 221.001 280.06 219.771C280.85 218.781 282.02 218.911 283.09 218.751C286.79 218.201 289.48 216.421 290.53 212.641C290.95 211.341 291.49 210.071 291.69 208.711C292.39 204.021 289.21 200.081 284.48 199.671C282.37 199.491 280.27 200.151 278.16 199.741C278.02 199.611 277.89 199.481 277.75 199.351C277.86 197.711 281.86 198.531 280.06 195.691C289.59 195.681 299.11 195.681 308.64 195.671C309.47 197.031 309.38 198.541 309.38 200.051C309.37 209.321 309.45 218.601 309.34 227.871C309.3 231.241 310.6 232.601 314.01 232.571C325.04 232.461 336.07 232.451 347.1 232.581C350.16 232.621 352.58 232.301 353.22 228.711C353.31 228.211 354.06 227.841 354.5 227.411C356.59 227.121 358.92 227.691 360.57 225.761C361.79 224.651 361.28 223.181 361.29 221.861C361.34 214.361 361.46 206.851 361.24 199.361C361.15 196.271 362.25 195.591 365.11 195.631C376.61 195.771 388.12 195.701 399.62 195.701C403.45 195.581 406.31 198.151 409.68 199.321C410.74 199.691 411.71 200.301 412.71 200.811C414.47 201.711 415.26 201.191 415.26 199.221C415.26 197.991 415.12 196.691 416.12 195.681C418.12 195.691 420.12 195.701 422.11 195.711C423.79 198.651 427.14 200.481 427.69 204.181C428.11 213.501 427.75 222.821 427.9 232.131C427.91 232.631 427.72 233.101 427.43 233.521C425.89 234.621 424.1 234.441 422.37 234.451C416.75 234.491 411.13 234.531 405.52 234.441C402.66 234.401 401.61 235.541 401.51 238.411C401.37 242.201 402.56 246.161 400.46 249.771C401.53 251.081 403.02 250.511 404.31 250.511C414.17 250.551 424.04 250.611 433.9 250.451C436.87 250.401 437.7 251.481 437.14 254.191C436.42 257.711 435.76 261.241 435.08 264.761C433.49 266.431 431.39 266.011 429.45 266.031C418.36 266.161 407.27 265.881 396.2 266.211C394.51 266.571 394.74 267.931 394.6 269.161C394.16 273.051 393.58 273.301 390.33 270.951C388.5 269.621 386.6 268.421 384.61 267.361C363.74 256.191 336.9 267.081 330.48 289.611C325.26 307.921 334.44 325.891 352.44 333.311C358.19 335.681 358.68 336.781 357.21 342.981C355.59 344.531 355.85 345.861 357.42 347.381C361.59 351.431 366.79 352.431 372.24 352.361C374.17 352.331 376.21 352.051 378.13 351.511C380.43 350.731 382.48 349.451 384.63 348.361C384.94 348.271 385.29 348.151 385.64 348.031Z" fill="#F1F3F4"/>
<path d="M283.06 337.821C267.42 337.821 251.79 337.741 236.15 337.891C233.01 337.921 231.81 337.311 231.84 333.821C232 311.181 231.97 288.541 231.86 265.901C231.85 262.921 232.48 261.641 235.75 261.801C241.12 262.061 246.5 261.881 251.88 261.871C253.26 261.871 254.65 261.761 255.85 262.641C257.9 263.241 259.64 264.301 260.93 266.031C262.01 273.831 263.39 281.581 265.14 289.261C265.71 291.781 265.8 293.871 263.56 296.051C260.48 299.051 262.1 303.601 266.3 304.461C268.37 304.881 269.73 305.831 270.42 307.791C273.73 317.141 277.82 326.131 282.81 334.711C283.39 335.651 283.96 336.711 283.06 337.821Z" fill="#FEFEFE"/>
<path d="M283.06 337.821C282.09 334.291 279.9 331.341 278.15 328.221C274.65 321.991 272.24 315.341 269.75 308.711C268.95 306.591 268.23 305.231 265.65 305.411C263.75 305.551 261.44 305.051 261.41 302.751C261.37 300.111 259.71 296.791 262.98 294.931C264.79 293.901 264.84 292.981 264.44 291.081C262.64 282.721 260.82 274.351 260.46 265.761C260.67 265.431 260.93 265.371 261.25 265.601C262.49 270.761 263.63 275.941 264.98 281.071C267.29 289.841 270.15 298.391 274.13 306.591C279.77 318.211 286.37 329.191 294.27 339.401C291.04 339.391 287.81 339.371 284.58 339.361C284.3 338.641 283.79 338.121 283.06 337.821Z" fill="#DCDDE0"/>
<path d="M216.88 271.271C216.88 251.221 216.88 231.171 216.88 211.111C216.88 210.361 216.85 209.601 216.89 208.851C216.95 207.651 216.61 205.951 218.3 205.861C220.08 205.761 219.82 207.461 219.88 208.671C219.92 209.291 219.89 209.921 219.89 210.551C219.89 251.281 219.9 292.011 219.84 332.741C219.84 334.371 220.92 337.381 218.3 337.291C215.89 337.211 216.94 334.231 216.93 332.551C216.85 312.121 216.88 291.691 216.88 271.271Z" fill="#DFE1E5"/>
<path d="M257.43 230.961C257.29 232.621 258.3 233.661 259.36 234.741C262.3 237.711 265.18 240.741 268.09 243.751C271.04 247.351 270.99 250.271 267.93 252.551C264.51 253.211 261.72 255.511 258.32 256.231C254.46 256.221 252.04 254.471 251.39 250.551C251.53 248.041 249.36 245.301 252.14 243.051C252.6 240.691 255.99 239.351 254.46 236.311C253.63 235.961 252.87 235.511 252.36 234.741C251.2 233.001 250.02 231.271 248.91 229.491C248.17 228.321 247.42 227.041 248.78 225.851C250.19 224.611 251.51 225.301 252.76 226.261C254.54 227.621 255.61 229.661 257.43 230.961Z" fill="#EEC4B1"/>
<path d="M192.81 253.601C187.24 253.601 182.65 249.291 182.53 243.971C182.42 238.891 187.38 234.121 192.79 234.101C197.86 234.081 202.67 239.101 202.6 244.331C202.52 249.421 198.11 253.601 192.81 253.601Z" fill="#DEE0E4"/>
<path d="M257.43 230.961C254.65 231.521 254.38 228.521 252.66 227.561C251.55 226.941 250.8 224.931 249.28 226.121C247.62 227.411 249.52 228.511 250.07 229.611C250.94 231.381 252.73 232.631 252.96 234.761C250.3 237.731 247.29 236.461 244.47 235.271C241.32 233.941 239.31 231.501 239.06 227.961C238.99 227.011 238.89 225.981 239.34 225.041C241.52 218.711 243.73 216.861 249.05 216.901C253.45 216.941 256.7 219.701 258.72 225.111C259.02 227.221 258.15 229.071 257.43 230.961Z" fill="#DD392C"/>
<path d="M278.56 219.741C276.31 221.651 275.14 218.681 273.28 218.521C271.61 218.381 270.03 217.341 268.39 216.761C267.66 216.501 266.92 216.241 266.81 215.391C266.7 214.491 267.37 214.071 268.12 213.831C268.95 213.571 270.11 213.361 269.87 212.301C269.56 210.981 268.14 211.371 267.32 211.551C262.38 212.621 257.38 212.011 252.42 212.291C248.53 212.501 244.73 211.781 240.9 211.441C238.14 211.201 236.39 209.191 236.64 206.691C236.86 204.421 238.96 203.821 241.44 203.871C251.3 204.071 261.18 203.941 271.04 204.011C272.59 204.021 273.61 203.241 274.7 202.421C274.83 202.591 274.96 202.751 275.09 202.921C275.33 204.101 274.75 204.971 274.06 205.821C272.51 207.491 270.45 207.311 268.47 207.321C261.23 207.361 253.99 207.321 246.76 207.351C245.42 207.361 244.03 207.071 241.99 208.041C248.68 208.211 254.63 208.091 260.58 208.131C263.33 208.151 266.07 208.141 268.82 208.151C271.51 208.161 273.37 208.981 273.74 212.041C273.96 213.811 275.24 215.131 276.45 216.431C277.33 217.381 278.71 218.091 278.56 219.741Z" fill="#F1F3F4"/>
<path d="M278.56 219.741C275.67 217.241 272.33 215.151 272.38 210.541C272.4 208.751 270.53 209.261 269.39 209.251C261.03 209.211 252.66 209.231 244.3 209.231C243.43 209.231 242.55 209.251 241.68 209.201C240.77 209.151 239.85 208.891 239.78 207.811C239.71 206.691 240.61 206.371 241.52 206.291C242.39 206.211 243.27 206.241 244.14 206.241C252.75 206.241 261.37 206.211 269.98 206.261C271.54 206.271 272.97 206.231 273.91 204.761C275.12 205.621 274.88 206.961 275.02 208.181C275.77 214.811 282.38 217.921 288.1 214.361C289.09 213.741 289.86 212.431 291.35 213.151C289.45 218.221 286.86 219.751 280.05 219.821C279.55 219.771 279.06 219.751 278.56 219.741Z" fill="#DFE0E2"/>
<path d="M239.34 225.031C239.95 233.211 244.98 236.801 252.96 234.751C253.65 235.091 254.21 235.561 254.47 236.311C251.43 237.811 248.39 239.301 244.84 238.201C239.58 236.591 236.32 230.331 239.34 225.031Z" fill="#DED6D8"/>
<path d="M258.33 256.241C261.08 254.261 264.22 253.111 267.4 252.061C268.43 251.581 269.57 251.461 270.65 251.411C274.22 251.261 276 253.381 275.79 257.321C275.35 258.641 274.87 259.921 273.35 260.381C273.26 260.091 273.16 259.801 273.07 259.501C273.64 256.791 272.79 254.761 270.23 253.551C266.18 253.261 262.73 254.591 259.81 257.371C257.64 261.851 257.64 261.851 261.24 264.211C261.25 264.681 261.26 265.151 261.27 265.621C261.01 265.671 260.74 265.731 260.48 265.781C258.51 265.371 256.96 264.361 255.88 262.651C255.89 260.191 256.03 257.801 258.33 256.241Z" fill="#687AA0"/>
<path d="M252.14 243.061C250.95 245.471 251.67 248.061 251.39 250.561C250.88 246.851 248.89 245.931 245.29 246.711C243.35 247.131 239.84 247.601 239.82 244.791C239.79 241.891 243.15 243.291 245.05 243.111C247.4 242.901 249.78 243.061 252.14 243.061Z" fill="#EDEEF0"/>
<path d="M260.52 217.411C259.13 216.411 257.11 217.251 255.69 216.001C255.04 215.421 254.32 214.771 254.72 213.781C255.15 212.721 256.24 212.841 256.98 213.071C258.58 213.571 259.97 214.441 261.86 213.951C262.87 213.691 263.61 214.851 263.31 216.021C262.97 217.401 261.83 217.531 260.52 217.411Z" fill="#F1F3F4"/>
<path d="M236.21 221.991C235.34 219.591 235.66 217.601 235.78 215.681C235.86 214.381 236.75 213.031 238.12 213.341C239.57 213.671 240.22 215.101 239.47 216.601C238.59 218.341 238.07 220.301 236.21 221.991Z" fill="#F1F3F4"/>
<path d="M274.7 202.401C274.52 201.341 272.59 200.601 274.02 199.281C275.22 198.161 276.52 198.871 277.76 199.361L277.92 199.571C277.79 201.451 276.82 202.481 274.9 202.531L274.7 202.401Z" fill="#F1F3F4"/>
<path d="M569.72 138.341C573.69 138.371 576.44 141.011 576.49 144.821C576.54 148.781 573.65 151.571 569.55 151.531C565.47 151.491 562.65 148.631 562.77 144.651C562.89 140.891 565.73 138.311 569.72 138.341Z" fill="#4485F2"/>
<path d="M431.98 90.4306C430.42 86.0206 428.95 81.5806 428.88 76.8206C433.37 74.6006 433.2 70.6106 433.1 66.4206C432.93 58.8106 432.95 51.2006 433.13 43.5906C433.17 42.0806 432.3 39.6906 435.22 39.4506C435.98 40.7206 435.71 42.1306 435.71 43.4806C435.73 60.2006 435.74 76.9106 435.7 93.6306C435.7 95.0806 436.12 96.6506 434.94 97.9206C433.66 96.3906 434.35 94.5806 434.3 92.9106C434.25 91.2606 433.84 90.2506 431.98 90.4306Z" fill="#C0D5F9"/>
<path d="M434.95 97.9205C434.95 78.3705 434.94 58.8205 434.94 39.2705C434.73 38.0505 435.33 37.5805 436.48 37.6105C436.71 37.6905 437.15 37.8005 437.15 37.8605C435.76 56.1905 436.93 74.5505 436.53 92.9005C436.47 95.4205 436.56 97.8505 438.01 100.031C436.32 100.301 435.68 99.0405 434.95 97.9205Z" fill="#3164B7"/>
<path d="M589.12 112.651C589.08 113.641 588.87 114.221 588.11 114.321C587.27 114.441 586.4 113.961 586.25 113.331C584.57 106.481 578.12 103.511 574.27 98.4406C573.9 97.9506 573.29 97.4306 573.83 96.8506C574.47 96.1606 575.16 96.6206 575.8 97.1006C581 100.951 584.31 106.491 588.48 111.261C588.87 111.701 588.99 112.361 589.12 112.651Z" fill="#F1F3F4"/>
<path d="M603.96 167.061C601.77 164.721 604.22 162.981 603.96 161.251C603.96 162.991 603.96 164.721 603.96 167.061Z" fill="#F1F3F4"/>
<path d="M411.57 358.341C411.25 359.761 410.75 361.951 410.28 364.141C410.01 365.411 409.21 365.741 408.06 365.481C406.89 365.221 406.35 364.501 406.59 363.301C407.01 361.221 407.54 359.161 407.83 357.061C408.02 355.671 408.56 355.061 410 355.171C411.6 355.301 411.73 356.321 411.57 358.341Z" fill="#96BEFC"/>
<path d="M338.2 367.981C337.22 369.621 339.59 372.931 336.17 372.981C332.69 373.031 334.31 369.731 334.39 368.071C334.48 366.291 332.46 362.781 336.26 362.881C339.54 362.971 337.25 366.291 338.2 367.981Z" fill="#96BDFC"/>
<path d="M392.09 350.581C392.19 349.131 393.29 349.071 394.35 348.961C396.48 349.001 398.6 349.061 400.73 349.081C401.87 349.101 402.67 349.421 402.69 350.771C402.71 351.931 402.39 352.771 401.07 352.781C398.57 352.801 396.07 352.811 393.57 352.761C392.12 352.741 392.23 351.551 392.09 350.581Z" fill="#96BEFB"/>
<path d="M378.11 413.751C376.82 412.921 373.44 415.431 373.53 411.771C373.6 408.571 376.63 410.471 378.3 410.061C379.36 409.801 380.54 410.031 381.66 410.011C382.91 409.991 383.87 410.251 383.9 411.811C383.93 413.311 383.13 413.771 381.79 413.751C380.67 413.731 379.55 413.751 378.11 413.751Z" fill="#96BEFD"/>
<path d="M378.47 388.801C378.57 389.811 378.13 390.221 377.57 390.541C375.63 391.641 373.68 392.741 371.74 393.841C370.31 394.651 369.36 393.941 368.65 392.781C367.79 391.371 369.15 391.111 369.92 390.661C371.84 389.531 373.83 388.501 375.75 387.371C377.81 386.161 377.9 388.011 378.47 388.801Z" fill="#97BFFC"/>
<path d="M402.72 393.421C400.13 392.341 397.48 390.951 395.1 389.141C394.3 388.531 395.01 387.751 395.34 387.141C395.81 386.291 396.49 385.861 397.5 386.441C399.66 387.681 401.85 388.871 404 390.131C404.74 390.561 404.97 391.251 404.52 392.041C404.16 392.701 403.84 393.421 402.72 393.421Z" fill="#98BFFC"/>
<path d="M365.65 365.621C365.6 366.471 359.52 372.641 358.87 372.681C357.97 372.741 357.59 372.001 357.15 371.441C356.61 370.761 356.69 369.991 357.31 369.421C359.22 367.631 361.04 365.711 363.15 364.181C364.75 363.021 365.09 364.831 365.65 365.621Z" fill="#98BFFC"/>
<path d="M346.94 355.081C344.9 354.541 342.85 354.031 340.83 353.431C339.71 353.091 339.33 352.201 339.55 351.071C339.77 349.951 340.62 349.691 341.52 349.911C343.93 350.491 346.31 351.161 348.69 351.861C349.65 352.141 350.13 352.861 349.74 353.881C349.25 355.221 348.11 355.211 346.94 355.081Z" fill="#99BFFC"/>
<path d="M353.86 417.411C352.48 417.591 352.01 416.871 351.55 416.101C350.92 415.061 351.45 414.531 352.32 414.061C354.39 412.941 356.44 411.791 358.5 410.641C359.35 410.171 360.08 410.001 360.68 411.041C361.16 411.871 361.5 412.761 360.59 413.351C358.31 414.831 355.95 416.171 353.86 417.411Z" fill="#99C0FC"/>
<path d="M401.73 429.071C400.98 429.961 400.42 431.781 398.73 430.371C396.83 428.781 394.97 427.051 393.46 425.101C392.24 423.521 393.73 422.641 395.08 422.271C395.94 422.021 401.81 428.071 401.73 429.071Z" fill="#98BFFC"/>
<path d="M366.65 430.461C366.41 431.781 366.09 433.361 365.85 434.961C365.64 436.331 364.71 436.421 363.64 436.351C362.28 436.271 362.04 435.391 362.19 434.261C362.38 432.781 362.57 431.301 362.79 429.831C362.99 428.481 362.27 426.521 364.7 426.551C367.47 426.591 366.29 428.771 366.65 430.461Z" fill="#98C0FB"/>
<path d="M383.63 363.341C386.77 364.091 388.83 364.531 390.86 365.101C391.93 365.401 393.15 365.821 392.65 367.371C392.28 368.511 391.32 368.841 390.25 368.601C388.07 368.111 385.9 367.581 383.75 366.981C382.62 366.661 382.21 365.761 382.42 364.641C382.67 363.281 383.69 363.351 383.63 363.341Z" fill="#98C0FC"/>
<path d="M345.53 386.121C346.52 385.081 345.29 384.871 344.88 384.351C346.73 384.461 352.69 388.961 352.75 390.361C352.8 391.531 351.9 392.221 351 392.491C349.49 392.961 345.28 387.951 345.53 386.121Z" fill="#97BFFC"/>
<path d="M143.35 142.201C141.02 144.971 138.68 147.751 136.35 150.521C132.7 154.071 129 157.561 125.41 161.171C122.91 163.691 120.87 163.301 118.43 160.951C114.61 157.281 111.52 152.871 107.19 149.711C104.81 147.581 102.73 145.201 101.25 142.331C101.07 140.321 102.56 139.251 103.72 138.011C106.58 134.961 109.82 132.261 112.41 128.951C115.27 126.961 116.86 123.291 120.76 122.681C122.44 125.011 122.81 127.891 124.06 130.621C126.12 129.691 127.54 128.061 128.93 126.411C136.95 119.481 144.84 112.411 152.31 104.881C153.24 102.981 155 101.991 156.7 100.941C158.88 99.8805 159.49 97.7405 160.31 95.7305C160.02 94.6605 160.43 93.9305 161.41 93.4805C162.06 92.2905 162.9 91.1605 163.31 89.8905C164.44 86.4105 167.02 84.7905 170.34 83.9905C171.24 83.7705 172.3 82.8705 173 83.9705C173.67 85.0205 171.98 85.3505 171.84 86.2705C173.4 86.8405 176.39 84.8205 176.28 86.8505C176.14 89.3005 177.99 89.6305 178.59 91.0605C177.21 92.0505 175.5 91.7805 173.99 92.2805C170.53 91.7005 169.7 94.9505 167.76 96.5705C166.82 100.411 165.56 104.161 164.29 107.901C159.8 118.961 154.01 129.281 146.79 138.801C145.79 140.111 144.88 141.471 143.35 142.201Z" fill="#A95F40"/>
<path d="M166.64 81.3706C158.13 81.3706 149.62 81.3006 141.11 81.4106C138.72 81.4406 137.76 80.7706 137.83 78.2506C137.99 72.8706 137.97 67.4906 137.84 62.1106C137.78 59.7406 138.44 58.8006 140.99 58.8106C158.26 58.9006 175.53 58.8906 192.79 58.8206C195.02 58.8106 195.92 59.4406 195.86 61.7906C195.73 67.2906 195.7 72.8006 195.87 78.3006C195.95 80.9006 194.87 81.4306 192.54 81.4006C183.91 81.3106 175.28 81.3706 166.64 81.3706Z" fill="#FEFEFE"/>
<path d="M182.46 110.721C185.71 110.721 188.96 110.801 192.21 110.691C194.27 110.621 195.12 111.301 195.08 113.461C194.97 119.081 194.95 124.711 195.09 130.331C195.15 132.731 194.16 133.291 191.98 133.261C185.61 133.161 179.23 133.171 172.86 133.251C170.49 133.281 169.45 132.451 169.5 129.981C169.6 124.481 169.6 118.981 169.5 113.481C169.46 111.341 170.26 110.611 172.35 110.681C175.71 110.801 179.08 110.721 182.46 110.721Z" fill="#FEFEFE"/>
<path d="M143.35 142.201C148.91 134.211 154.7 126.371 158.92 117.531C160.48 114.261 161.97 110.961 163.49 107.671C165.73 105.501 168.38 104.191 171.51 103.941C172.39 104.071 173.53 104.141 172.62 105.441C172.23 106.001 171.46 106.451 170.78 106.641C164.92 108.301 163.21 112.821 162.7 118.201C161.39 123.411 159.26 128.251 155.99 132.551C153.88 135.341 152.15 138.361 150.7 141.541C148.34 142.781 145.8 142.071 143.35 142.201Z" fill="#89AAE1"/>
<path d="M161.4 93.4906C161.03 94.2406 160.67 94.9906 160.3 95.7406C153.69 95.7306 147.08 95.7506 140.47 95.6806C139.35 95.6706 137.55 96.3206 137.36 94.5906C137.16 92.6806 138.93 92.7006 140.31 92.7006C146.54 92.6906 152.78 92.6906 159.01 92.6906C159.91 92.6806 160.78 92.7306 161.4 93.4906Z" fill="#F4FAFE"/>
<path d="M171.51 103.951C168.84 105.191 166.16 106.441 163.49 107.681C164.23 103.691 166.65 100.141 166.56 95.9306C166.56 95.8606 166.69 95.7906 166.76 95.7206C166.97 95.9606 167.18 96.2106 167.39 96.4506C169.68 99.9506 171.8 96.9306 173.97 96.2606C175.32 95.9806 176.74 95.5806 176.44 97.8506C175.46 100.421 173.05 101.831 171.51 103.951Z" fill="#81462E"/>
<path d="M184.56 103.991C182.06 103.991 179.55 104.011 177.05 103.971C176.36 103.961 175.38 104.241 175.16 103.261C174.93 102.231 175.81 101.661 176.57 101.321C177.22 101.031 178.02 100.991 178.76 100.991C183.14 100.961 187.52 100.971 191.91 100.981C193.16 100.981 194.74 100.901 194.84 102.551C194.97 104.601 193.15 103.921 192.07 103.971C189.57 104.051 187.07 103.991 184.56 103.991Z" fill="#F7FAFE"/>
<path d="M155.99 132.561C157.72 127.541 160.46 122.991 162.7 118.211C162.71 121.451 162.73 124.691 162.73 127.941C162.73 133.601 161.64 134.351 155.99 132.561Z" fill="#9FC0F9"/>
<path d="M180.29 94.8106C180.88 93.7906 181.08 92.5506 182.84 92.6406C186.08 92.8206 189.33 92.6806 192.58 92.7106C193.79 92.7206 194.98 93.0606 194.91 94.5206C194.85 95.9806 193.52 95.6906 192.59 95.7006C188.39 95.7206 184.19 95.6906 179.98 95.6706C179.8 95.2806 179.89 94.9906 180.29 94.8106Z" fill="#F6FAFE"/>
<path d="M148.64 104.681C146.07 106.881 143.79 106.191 141.68 103.961C140.9 102.931 140.84 101.931 141.77 100.961C144.22 98.6206 146.68 98.5806 149.14 100.951C150.38 102.381 149.91 103.581 148.64 104.681Z" fill="#EEBD30"/>
<path d="M180.29 94.8105C180.19 95.1005 180.08 95.3805 179.98 95.6705C178.8 96.4005 177.62 97.1306 176.44 97.8506C176.1 96.2506 175.11 96.5805 174.07 97.0605C172.77 95.3505 171.17 93.6505 173.97 91.8605C175.34 90.6205 176.91 90.5306 178.59 91.0706C180.28 91.8006 180.18 93.3505 180.29 94.8105Z" fill="#D23E34"/>
<path d="M148.64 104.681C148.8 103.441 148.97 102.201 149.13 100.951C151.65 100.951 154.16 100.951 156.68 100.951C155.52 102.611 154.1 103.971 152.29 104.891C151.18 103.141 149.87 104.711 148.64 104.681Z" fill="#F6F4F4"/>
<path d="M141.77 100.961C141.74 101.961 141.71 102.961 141.68 103.961C140.2 103.601 137.55 104.981 137.46 102.741C137.35 100.101 140.15 101.251 141.77 100.961Z" fill="#F6FAF9"/>
<path d="M147.61 218.201C144.61 218.201 141.6 218.111 138.61 218.241C136.39 218.341 135.51 217.631 135.52 215.281C135.6 200.151 135.59 185.031 135.53 169.901C135.52 167.791 136.27 167.071 138.37 167.081C148.5 167.151 158.62 167.191 168.75 167.051C171.52 167.011 171.9 168.351 171.68 170.501C171.44 172.771 172.06 174.201 174.71 173.821C174.41 174.481 173.83 174.591 173.19 174.651C167.34 175.131 166.61 175.921 166.53 181.841C166.52 182.961 166.47 184.071 166.43 185.191C164.85 186.321 163.19 187.311 162.66 189.451C162.32 190.841 161.15 191.261 159.79 191.141C155.22 189.781 151.14 187.321 146.83 185.361C144.47 184.291 143.33 184.591 143.4 187.441C143.49 190.931 143.5 194.431 143.39 197.921C143.32 200.261 144.2 201.151 146.49 200.601C146.74 200.621 146.99 200.651 147.2 200.781C152.1 203.711 152.72 203.401 153.28 197.731C153.32 197.361 153.54 197.041 153.78 196.751C156.44 195.471 158.7 192.881 162.16 194.231C163.36 195.891 163.12 197.821 163.14 199.681C163.18 203.811 163.21 207.951 163.12 212.081C163.08 213.811 163.19 215.671 161.24 216.641C157.66 216.671 154.09 216.701 150.51 216.751C149.32 216.771 147.91 216.401 147.61 218.201Z" fill="#FCDF87"/>
<path d="M161.22 216.631C162.82 211.131 161.66 205.501 161.9 199.941C161.98 198.041 162.66 195.951 161.23 194.181C162.38 192.301 159.58 191.941 159.79 190.421C161.02 190.471 161.94 190.221 161.98 188.681C162.05 185.771 163.88 184.991 166.43 185.191C166.49 195.671 166.55 206.151 166.61 216.621C164.81 216.621 163.02 216.631 161.22 216.631Z" fill="#EDC166"/>
<path d="M177.93 187.421C175.98 187.531 174.75 186.911 174.76 184.731C174.78 182.651 176.14 181.691 177.83 181.721C179.52 181.761 180.84 182.781 180.78 184.861C180.72 186.791 179.67 187.491 177.93 187.421Z" fill="#FBFDFD"/>
<path d="M199.2 187.391C196.78 187.481 195.79 186.681 195.82 184.801C195.86 182.961 196.7 181.521 198.59 181.601C200.17 181.671 201.84 182.431 201.75 184.511C201.68 186.401 200.42 187.281 199.2 187.391Z" fill="#FCFCFD"/>
<path d="M188.67 187.391C186.27 187.501 185.31 186.711 185.28 184.801C185.25 182.721 186.59 181.751 188.29 181.731C189.78 181.711 191.29 182.511 191.24 184.421C191.19 186.351 189.94 187.241 188.67 187.391Z" fill="#FCFDFD"/>
<path d="M436.47 37.6206C435.96 38.1706 435.45 38.7205 434.93 39.2805C433.8 40.4305 434.28 41.8805 434.27 43.1905C434.23 51.9105 434.25 60.6306 434.25 69.3506C434.25 75.2906 434.25 75.2905 428.88 76.8305C426.53 73.5605 426.33 69.5705 425.53 65.8806C423.77 57.7306 421.74 49.8705 414.62 44.5205C414.64 35.7805 414.75 27.0405 414.62 18.3005C414.58 15.5105 415.16 14.3405 418.31 14.4105C428.05 14.6205 437.79 14.5505 447.53 14.4405C449.93 14.4105 450.85 15.0906 450.78 17.6006C450.62 22.9706 450.72 28.3406 450.74 33.7106C450.74 34.8605 450.65 35.9506 449.97 36.9306C445.5 37.4406 440.91 36.1406 436.47 37.6206Z" fill="#FEFEFE"/>
<path d="M407.06 37.6206C405.94 36.6706 404.85 35.6706 403.69 34.7706C402.87 34.1306 401.92 33.8006 400.99 34.5506C400 35.3406 400.32 36.3306 400.85 37.2006C401.62 38.4506 402.5 39.6406 403.33 40.8506C401.61 43.5106 397.34 44.1606 393.88 42.2906C389.44 39.8806 388.09 36.6706 389.16 31.0006C390.88 26.9306 393.53 24.2006 398.34 24.1206C406.03 24.0006 410.14 30.2806 407.06 37.6206Z" fill="#35A754"/>
<path d="M399.66 45.2805C399.65 53.9205 399.65 62.5505 399.64 71.1905C399.64 72.0705 399.66 72.9406 399.62 73.8206C399.57 74.8906 399.25 75.9106 398 75.9606C396.49 76.0306 396.64 74.7806 396.63 73.8206C396.6 70.8206 396.62 67.8105 396.61 64.8105C396.6 58.3005 396.6 51.7906 396.59 45.2906C396.71 45.1706 396.82 45.0505 396.93 44.9405C397.72 44.5505 398.52 44.5405 399.32 44.9405C399.43 45.0405 399.54 45.1605 399.66 45.2805Z" fill="#F9FDFE"/>
<path d="M389.17 31.0005C389.07 38.6905 392.78 42.6706 399.67 42.3306C401.09 42.2606 402.39 42.0306 403.34 40.8506C404.63 42.7306 405.89 44.6506 407.23 46.4906C408.18 47.7906 407.52 48.4706 406.41 49.0506C405.42 44.1206 404.61 43.6705 399.67 45.2805L399.66 45.2606C398.66 43.9906 397.65 43.9906 396.63 45.2406L396.6 45.2805C389.03 44.0605 386.04 38.3005 389.17 31.0005Z" fill="#B0C5D9"/>
<path d="M399.59 19.0306C399.59 20.3006 399.63 21.1806 399.58 22.0506C399.53 22.9306 399 23.3806 398.11 23.3806C397.21 23.3806 396.71 22.9106 396.65 22.0406C396.59 21.1706 396.5 20.2706 396.62 19.4206C396.85 17.8206 395.73 15.0306 397.94 14.9606C400.78 14.8606 399.11 17.8506 399.59 19.0306Z" fill="#F7FDFE"/>
<path d="M79.15 85.7606C79.17 85.5506 79.15 85.3506 79.1 85.1406C79.85 84.0706 80.26 82.9306 79.92 81.6106C80.45 81.3506 81.12 82.2706 81.58 81.4106C83.43 80.7806 84.32 82.7906 86.01 82.9406C90.31 83.3206 93.94 81.4506 95.03 77.9106C96.28 73.8606 94.55 70.5906 90.02 68.4306C94.71 70.6606 96.65 75.2106 94.56 79.0406C92.49 82.8406 87.63 84.0306 84.14 81.6006C84.11 79.3606 85.76 77.7806 86.45 75.8006C87.45 72.9406 87.19 70.7706 84.26 69.3606C84.03 68.7906 84.12 68.2706 84.49 67.7906C83.78 66.6106 82.96 65.4406 82.98 64.0106C83.01 61.5106 84 58.9106 86.74 59.7006C89.64 60.5406 90.63 59.0406 92.24 57.5506C96.16 53.9106 105.4 53.4406 109.99 56.2206C112.66 57.8306 110.6 60.7706 112.21 62.5706C110.87 66.0906 111.8 69.7406 111.63 73.3206C111.4 78.1806 109.06 81.9506 104.44 82.4506C100.39 82.8906 99.91 84.8006 100.28 88.0006C100.37 88.7306 100.21 89.4906 100.17 90.2406C99.49 90.4506 99.21 90.0106 98.96 89.5106C98.09 87.7006 99.65 84.8706 96.69 83.5106C96.36 85.8606 99.72 87.1906 97.47 89.4006C93.27 89.1206 89.07 89.0306 84.91 89.8106C82.41 89.2906 80.16 88.4106 79.15 85.7606Z" fill="#A95F40"/>
<path d="M261.22 264.201C259.59 264.171 257.88 264.071 257.37 262.171C256.77 259.961 258.04 258.491 259.79 257.361C260.27 259.641 260.75 261.921 261.22 264.201Z" fill="#E5EAF1"/>
<path d="M270.22 253.541C274.54 254.221 275.13 255.461 273.06 259.491C272.11 257.511 271.17 255.531 270.22 253.541Z" fill="#EDF0F3"/>
<path d="M484.54 204.091C481.32 203.941 478.1 203.791 474.88 203.631C474.74 202.261 474.58 200.901 474.46 199.531C473.77 191.521 470.64 185.151 463.44 180.761C458.78 177.921 454.73 174.071 450.46 170.611C449.65 169.951 447.85 169.501 449.25 167.801C449.5 167.811 449.73 167.781 449.97 167.701C454.01 173.041 459.86 176.291 464.88 180.481C470.87 185.491 477.1 190.201 483.27 195.001C484.18 195.711 484.48 196.311 484.16 197.501C483.57 199.701 483.66 201.941 484.54 204.091Z" fill="#AC2B28"/>
<path d="M525.17 142.431C525.24 142.601 525.28 142.781 525.3 142.961C524.25 144.281 522.76 143.781 521.45 143.781C512.95 143.831 504.45 143.801 495.95 143.861C494.63 143.871 492.85 143.211 492.1 144.561C491.2 146.181 493.79 146.321 494.35 148.601C486.26 142.761 477.83 139.601 468.86 137.821C468.89 137.581 468.89 137.331 468.87 137.091C473.28 137.121 477.51 138.341 481.31 140.271C486.3 142.801 491.37 142.671 496.6 142.201C497.21 141.751 497.87 141.311 498.62 141.311C507.48 141.331 516.41 139.981 525.17 142.431Z" fill="#AE2C23"/>
<path d="M427.46 233.271C426.9 232.271 426.69 231.211 426.69 230.051C426.72 221.961 426.7 213.881 426.71 205.791C426.71 204.801 426.63 203.771 427.63 203.121L427.97 203.001L428.2 203.281C431.81 210.841 437.04 217.261 442.5 223.521C441.34 226.731 441.75 230.331 440.1 233.421C435.87 235.011 431.65 235.191 427.46 233.271Z" fill="#FDFDFD"/>
<path d="M428.2 203.281C428.03 203.131 427.84 203.081 427.63 203.121C424.73 201.441 422.59 199.191 422.1 195.711C422.13 191.791 424.39 189.331 427.53 187.451C429.02 187.391 430.42 186.761 431.99 187.071C436.2 187.891 439.45 191.541 439.27 195.421C439.06 199.841 435.51 203.171 430.84 203.301C429.96 203.331 429.08 203.291 428.2 203.281Z" fill="#4485F3"/>
<path d="M79.15 85.7605C80.95 86.8705 82.76 87.9806 84.56 89.0906C84.73 90.7206 83.21 91.0005 82.37 91.8205C80.68 93.4705 78.85 95.0105 77.85 97.8905C79.83 93.7405 82.54 91.1305 86.39 89.7805C90.22 88.4305 93.95 88.5705 97.61 90.3505C98.5 90.7805 99.38 91.3005 100.45 91.0505C101.59 93.3505 103.83 94.6105 105.5 96.4105C110.93 102.261 115.77 108.551 120.31 115.111C122.09 117.681 123.01 120.031 120.75 122.701C118.2 124.961 115.65 127.221 113.09 129.481C109 133.241 104.28 135.971 99.1 137.931C95.93 139.671 93.78 138.571 91.94 135.671C89.47 131.781 87.1 127.851 85.62 124.601C87.64 128.071 88.85 132.981 90.53 137.681C94.19 147.911 97.86 158.131 101.34 168.421C101.83 169.881 102.9 171.371 101.84 173.041C93.55 173.071 85.27 173.101 76.98 173.121C75.59 172.431 74.66 171.341 73.94 169.971C71.02 164.391 66.14 161.911 60.08 161.291C56.61 160.941 53.18 160.381 50.02 158.781C48.37 157.941 46.63 157.141 46.1 155.081C46.11 154.581 46.12 154.081 46.13 153.581C49.82 141.661 53.49 129.731 57.2 117.821C60.8 106.261 67.29 96.4305 75.3 87.5005C76.37 86.3105 77.46 85.4505 79.15 85.7605Z" fill="#34A753"/>
<path d="M100.45 91.0406C100.21 92.2506 99.58 92.1706 98.57 91.8006C88.05 87.9406 84.48 89.2206 78.35 98.9106C78.02 99.4306 77.67 99.9606 76.61 99.8306C76.87 94.4306 81.16 92.0706 84.56 89.0806C89.05 87.7706 93.55 87.7206 98.07 88.9306C98.69 88.8406 99.12 89.2006 99.53 89.5806C99.75 89.8106 99.96 90.0306 100.18 90.2506C100.27 90.5206 100.36 90.7806 100.45 91.0406Z" fill="#196B25"/>
<path d="M84.5 81.2606C88.75 83.2006 92.79 81.8006 94.32 77.8506C95.98 73.5606 93.63 70.3006 87.3 68.1606C87.65 66.8806 88.6 67.2306 89.4 67.4406C92.64 68.3106 95.06 70.1806 95.84 73.5706C96.6 76.8906 95.72 79.8406 92.95 81.9406C90.12 84.0906 86.97 84.3406 83.75 82.8506C82.97 82.4906 82.3 81.9006 81.58 81.4206C77.53 75.8406 78.45 71.5306 84.49 67.8206C84.54 68.3206 84.58 68.8206 84.63 69.3206C84.57 69.8206 84.33 70.2506 84.03 70.6406C80.68 75.0506 80.76 76.6706 84.5 81.2606Z" fill="#F5E1D4"/>
<path d="M101.84 173.031C95.82 155.761 89.8 138.501 83.79 121.231C83.95 121.161 84.11 121.081 84.28 121.011C87.12 125.731 90.08 130.381 92.74 135.201C94.25 137.931 95.99 138.711 98.7 137.141C100.59 138.321 101.06 140.361 101.83 142.231C103.42 144.871 106.25 146.621 107.19 149.731C108.19 156.541 109.19 163.341 110.19 170.151C110.48 172.311 110.01 173.661 107.35 173.291C105.53 173.021 103.68 173.101 101.84 173.031Z" fill="#126A26"/>
<path d="M46.11 155.081C50.35 158.781 55.46 159.861 60.89 160.391C66.91 160.981 71.77 163.691 74.69 169.271C75.38 170.591 76.21 171.831 76.97 173.111C65.75 173.141 54.54 173.161 43.32 173.231C41.43 173.241 40.4 172.791 41.09 170.661C42.79 165.471 44.45 160.271 46.11 155.081Z" fill="#60B196"/>
<path d="M416.11 195.681C416.05 196.421 415.95 197.151 415.94 197.891C415.86 203.471 415.87 203.451 410.67 200.941C407 199.171 403.3 197.451 399.61 195.701C403.89 191.821 409.47 190.361 414.44 187.751C416.01 186.931 415.89 188.451 415.93 189.381C416.02 191.481 416.05 193.581 416.11 195.681Z" fill="#38A756"/>
<path d="M320.69 193.241C320.69 185.861 320.76 178.471 320.65 171.091C320.61 168.711 321.27 167.771 323.8 167.801C334.06 167.921 344.33 167.911 354.59 167.801C356.97 167.781 357.55 168.711 357.54 170.901C357.47 185.921 357.47 200.941 357.54 215.951C357.55 218.151 356.95 219.071 354.58 219.041C344.32 218.941 334.05 218.931 323.79 219.051C321.23 219.081 320.61 218.111 320.65 215.751C320.76 208.261 320.69 200.751 320.69 193.241Z" fill="#9EC0F9"/>
<path d="M441.06 91.7706C439.85 90.9806 440.3 89.7406 440.29 88.6906C440.26 73.9106 440.34 59.1306 440.22 44.3606C440.2 41.6006 440.93 40.6606 443.79 40.7006C453.81 40.8606 463.83 40.8206 473.85 40.7206C476.23 40.7006 477.15 41.3406 477.13 43.8806C477.03 58.9106 477.04 73.9406 477.12 88.9606C477.13 91.2706 476.34 92.0406 474.07 91.9706C469.32 91.8206 464.55 91.8806 459.8 91.8506C460.32 89.8206 462.06 90.2306 463.44 90.1606C466.31 90.0006 469.2 90.1206 472.07 90.0906C473.94 90.0706 475.24 89.4806 475.25 87.3206C475.31 73.4706 475.27 59.6206 475.29 45.0306C469.8 51.3806 466.2 58.1606 461.26 63.9306C459.5 65.2806 458.09 64.0506 456.57 63.3306C454.43 62.3106 452.66 60.3506 449.98 60.7506C448.94 66.1906 449.59 71.6606 449.62 77.0906C449.63 79.6106 449.19 81.7506 447.54 83.6306C445.25 86.2406 443.86 89.5706 441.06 91.7706Z" fill="#9EC0F9"/>
<path d="M460.55 64.0605C464.96 56.5005 470.4 49.6905 476.34 42.9305C476.34 46.7405 476.34 50.5505 476.34 54.3605C476.34 65.2205 476.18 76.0905 476.43 86.9505C476.51 90.5505 475.29 91.3005 471.97 91.2705C467.93 91.2405 463.79 90.3905 459.8 91.8505C453.55 91.8305 447.31 91.8005 441.06 91.7805C442.39 88.0705 445.15 85.2805 447.4 82.1805C448.32 80.9105 448.74 79.8105 448.66 78.1305C448.4 72.3805 448.53 66.6105 448.52 60.8505C448.52 60.0805 448.58 59.3405 449.28 58.8505C450.89 60.9605 450.05 63.4205 450.21 65.7205C450.33 67.3305 450.23 68.9605 450.23 70.5805C450.23 77.4505 450.28 77.5405 456.12 74.2005C459.24 72.4205 462.52 70.9205 465.68 68.8605C464.56 66.4605 460.82 67.0605 460.55 64.0605Z" fill="#BBD2FA"/>
<path d="M290.51 342.421C292.79 345.901 295.07 349.381 297.35 352.871C296.44 354.231 295.28 355.291 293.72 355.851C293.48 355.921 293.24 356.001 292.99 356.021C285.19 356.771 285.19 356.771 285.71 364.881C285.76 365.631 285.89 366.371 285.94 367.121C285.87 369.861 283.69 371.491 282.49 373.631C281.77 374.911 280.7 376.001 280.12 378.061C285.4 378.231 290.35 378.021 295.29 378.191C297.98 378.281 300.81 377.421 303.31 379.161C302.52 380.351 301.28 379.931 300.22 379.931C293.59 379.971 286.95 379.871 280.32 379.991C278 380.031 276.96 379.501 276.99 376.901C277.12 366.391 277.09 355.871 277.01 345.361C276.99 343.101 277.7 342.211 280.02 342.321C283.5 342.481 287.01 342.391 290.51 342.421Z" fill="#9FC1F9"/>
<path d="M294.31 355.031C295.06 353.941 295.84 352.881 297.35 352.861C299.49 355.291 300.77 358.361 303.24 360.531C303.26 366.741 303.28 372.941 303.29 379.151C295.91 379.161 288.54 379.191 281.16 379.171C280.2 379.171 278.9 379.641 278.35 378.721C277.56 377.411 279.2 376.881 279.74 376.001C281.54 373.051 283.43 370.151 285.28 367.241C286.77 365.661 288.74 366.171 290.55 366.081C294.46 365.901 294.66 365.701 294.76 361.711C294.83 359.471 294.56 357.251 294.31 355.031Z" fill="#BBD2FA"/>
<path d="M562.78 170.801C562.59 172.641 563.4 174.191 564.19 175.771C568.38 184.151 572.48 192.591 576.76 200.931C577.81 202.971 577.84 204.471 576.38 206.321C570.07 214.361 562.87 221.441 553.71 226.081C550.05 227.931 547.86 229.941 548.43 234.161C547.33 231.381 548.04 228.491 547.94 225.661C547.55 214.201 547.27 202.751 546.95 191.291C546.05 187.611 546.91 184.621 549.89 182.041C553.8 178.651 556.98 174.471 561.26 171.481C561.76 171.251 562.27 171.031 562.78 170.801Z" fill="#EEC4B0"/>
<path d="M561.26 171.481C558.4 175.611 554.57 178.851 550.96 182.241C548.23 184.811 546.51 187.481 546.95 191.291C545.81 187.001 546.59 182.621 546.37 178.281C546.3 177.001 547.38 176.631 548.29 176.281C552.6 174.651 556.93 173.071 561.26 171.481Z" fill="#EE9992"/>
<path d="M432.01 281.551C431.59 285.631 430.78 289.381 428.01 292.841C423.6 298.361 420.35 304.741 415.84 310.241C415.57 310.571 415.63 311.181 415.53 311.671C412.9 313.021 410.17 314.171 407.63 316.351C406.42 310.601 404.64 305.591 401.22 301.331C394.76 293.291 386.38 290.751 376.44 292.761C374.63 293.601 373.75 291.981 372.55 291.271C365.6 287.131 356.65 291.621 356.48 299.341C356.44 301.331 357.62 303.171 357.16 305.211C356.63 306.161 355.79 306.951 356.05 308.261C356.6 310.951 354.89 311.791 352.66 312.141C349.07 311.151 347.97 308.031 347.32 305.061C345.55 297.071 346.97 289.701 353.77 284.471C360.25 279.491 367.52 278.091 375.25 281.721C377.8 282.911 380.32 284.171 379.9 287.801C382.59 287.421 383.8 285.551 385.32 284.161C386.34 283.241 387.27 282.221 388.25 281.251C392.15 277.361 392.15 277.361 396.23 280.151C406.3 280.351 416.35 280.131 426.41 280.251C428.35 280.271 430.45 279.841 432.01 281.551Z" fill="#F1F3F4"/>
<path d="M352.99 311.511C354.87 310.761 356.25 309.961 354.84 307.491C353.87 305.801 355.39 305.471 356.71 305.361C360.42 304.291 364.13 303.291 368.05 303.951C368.33 305.791 368.56 307.651 368.91 309.481C369.35 311.831 369.76 313.761 373.15 313.851C376.48 313.941 377.51 317.581 375 320.251C373.75 321.591 373.83 322.341 374.74 323.521C374.57 324.041 374.31 324.481 373.7 324.541C372.16 324.131 370.72 323.431 369.04 323.511C367.74 323.571 366.6 323.051 366.3 321.551C364.51 321.361 362.53 322.521 361.3 324.641C360.01 326.851 360.17 329.051 361.34 331.311C361.96 332.491 363.5 333.041 363.52 334.601C362.22 335.081 363.14 336.171 362.87 336.941C364.35 345.381 368.03 349.261 376.32 351.131C377.16 351.321 378.05 351.381 378.63 352.161C370.41 354.431 362.74 353.911 356.23 347.691C353.87 345.441 354.05 344.091 356.78 343.061C357.98 338.341 356.43 333.741 356.14 329.091C356.05 327.661 354.63 326.881 353.64 325.941C350.85 323.281 349.76 319.961 349.73 316.191C349.7 313.801 350.51 312.091 352.99 311.511Z" fill="#EEC4B1"/>
<path d="M368.05 303.951C364.35 305.071 360.62 305.961 356.71 305.361C355.29 300.721 354.48 296.161 358.4 292.201C362.87 287.681 370.13 287.561 374.86 291.901C375.29 292.291 375.91 292.481 376.44 292.771C370.66 294.251 368.4 298.391 368.05 303.951Z" fill="#DEE0E4"/>
<path d="M378.62 352.151C373.59 352.341 369.5 350.481 366.05 346.811C363.36 343.951 362.35 340.731 362.87 336.931C366 345.251 372.58 348.131 380.86 348.331C382.11 348.361 383.36 348.371 384.61 348.381C383.17 350.551 380.93 351.401 378.62 352.151Z" fill="#E89B96"/>
<path d="M374.01 324.291C374.25 324.031 374.49 323.781 374.73 323.521C377.15 327.561 376.94 330.451 373.99 333.571C371.24 336.481 368.05 336.791 363.5 334.601C359.82 332.051 358.49 328.571 359.86 325.041C361.01 322.071 364.82 319.821 368.18 320.111C368.09 321.341 367.03 321.201 366.27 321.481C365.94 322.071 365.43 322.501 364.96 322.961C361.64 326.621 361.37 328.321 363.52 332.011C365.74 333.701 368.08 334.471 370.72 333.001C373.48 331.471 374.17 329.011 373.75 326.071C373.68 325.471 373.66 324.841 374.01 324.291Z" fill="#F3E7E2"/>
<path d="M432.01 281.551C419.49 281.501 406.98 281.451 394.46 281.401C392.73 275.901 393.81 270.411 394.54 264.921C408.05 264.871 421.55 264.831 435.06 264.781C435.31 264.811 435.55 264.871 435.8 264.881C443.83 265.151 443.83 265.151 443.82 273.391C443.81 281.401 443.81 281.401 435.74 281.421C434.49 281.431 433.25 281.511 432.01 281.551Z" fill="#4385F4"/>
<path d="M427.46 233.271C431.67 233.321 435.89 233.371 440.1 233.421C440.18 238.441 438.58 243.221 437.98 248.141C437.72 250.301 436.08 249.721 434.83 249.731C423.37 249.771 411.91 249.771 400.44 249.781C400.37 245.301 400.4 240.821 400.19 236.341C400.08 234.021 400.91 233.361 403.17 233.381C411.27 233.451 419.36 233.321 427.46 233.271Z" fill="#DE392A"/>
<path d="M474.11 222.171C473.61 222.591 473.12 223.021 472.62 223.441C469.46 223.441 466.3 223.441 463.14 223.441C463.13 223.021 463.12 222.591 463.11 222.171C466.78 222.171 470.45 222.171 474.11 222.171Z" fill="#755A51"/>
<path d="M495.16 138.511C489.08 140.511 481.16 137.821 477.1 132.481C475.84 130.821 476.85 129.671 477.69 128.461C480.77 124.051 483.9 119.671 487 115.271C487.69 113.621 488.67 114.361 489.64 114.951C491.41 116.451 492.5 118.291 493.04 120.611C493.8 123.881 495.94 124.421 498.49 122.161C500.1 120.731 501.1 118.811 502.34 117.091C503.65 115.291 503.38 113.931 501.48 112.741C497.77 110.441 495.7 106.951 494.48 102.871C494.68 98.6206 493.62 94.5306 492.96 90.3906C494.05 87.6406 494.39 84.5406 496.94 82.5006C498.45 81.2906 499.75 80.8506 501.62 82.0606C510.65 87.9206 519.8 93.5906 528.85 99.4106C532.77 101.931 533.87 104.841 532.59 109.411C530.83 115.671 528.87 121.881 527.04 128.121C526.26 130.801 524.61 132.731 522.26 134.141C519.15 137.111 515.64 135.521 512.23 135.051C509.92 134.661 508.28 133.511 507.93 131.031C507.56 128.461 508.77 126.721 510.95 125.511C511.82 125.031 512.78 124.641 513.48 123.921C514.73 122.641 515.47 121.121 513.95 119.671C512.28 118.081 510.94 119.191 509.96 120.681C507.01 125.181 503.75 129.471 500.79 133.961C499.4 136.081 497.85 138.001 495.16 138.511Z" fill="#834427"/>
<path d="M495.16 138.511C500.44 134.641 502.96 128.611 506.77 123.601C507.67 122.411 508.45 121.131 509.32 119.921C510.16 118.751 510.73 117.071 512.69 117.641C514.15 118.061 515.7 118.721 515.92 120.391C516.16 122.151 515.66 123.881 513.99 124.931C513.26 125.391 512.47 125.811 511.65 126.081C509.43 126.821 508.57 128.501 508.48 130.631C508.39 132.781 509.88 133.651 511.7 134.131C515.1 135.861 518.89 136.661 522.22 138.561C521.41 141.211 524.02 141.271 525.16 142.441C517 141.741 508.83 142.451 500.66 142.341C499.3 142.321 497.94 142.251 496.59 142.201C496.32 140.881 497.56 138.991 495.16 138.511Z" fill="#EFC3AF"/>
<path d="M495.3 103.461C497.24 107.461 499.68 111.021 503.73 113.201C504.69 113.721 505.41 114.311 504.54 115.531C502.6 118.291 501.1 121.411 498.43 123.581C495.67 125.831 492.72 124.711 492.25 121.161C491.93 118.731 490.45 117.101 489.05 115.351C488.25 111.581 490.86 109.351 492.87 106.851C493.17 106.081 493.47 105.321 493.76 104.551C494.23 104.121 494.57 103.521 495.3 103.461Z" fill="#EEC4B0"/>
<path d="M495.3 103.461C495.08 104.221 494.56 104.581 493.77 104.551C491.34 99.9606 490.03 95.3006 492.95 90.4006C495.71 94.4006 495.28 98.9706 495.3 103.461Z" fill="#583222"/>
<path d="M492.88 106.851C492.11 109.911 489.56 112.171 489.06 115.351C488.39 114.921 487.71 114.871 487.01 115.281C484.9 110.211 484.89 110.211 490.48 107.731C491.26 107.381 492.08 107.141 492.88 106.851Z" fill="#E8A19B"/>
<path d="M522.23 138.551C518.12 138.521 514.8 136.591 511.71 134.121C515.23 134.481 518.75 135.681 522.27 134.161C522.26 135.621 522.24 137.081 522.23 138.551Z" fill="#E89C93"/>
<path d="M473.36 232.561C475.15 232.761 476.45 233.561 476.55 235.501C476.65 237.431 475.56 238.551 473.67 238.651C471.78 238.751 470.54 237.651 470.41 235.821C470.29 233.931 471.62 232.991 473.36 232.561Z" fill="#D9DCE0"/>
<path d="M478.49 206.501C475.1 207.751 471.72 207.351 468.32 206.501C471.71 206.501 475.1 206.501 478.49 206.501Z" fill="#FAFCFD"/>
<path d="M394.54 264.921C394.11 270.411 394.2 275.911 394.46 281.401C392.98 280.791 394.18 279.031 392.83 277.961C390.04 280.781 387.28 283.651 384.43 286.421C383.37 287.461 382.19 288.491 380.87 289.131C379.22 289.931 377.89 288.751 378.57 287.331C379.44 285.511 378.7 284.801 377.54 283.961C371.13 279.331 360.98 279.671 354.44 285.001C347.49 290.671 346.15 298.461 348.83 306.651C349.47 308.611 350.31 311.011 352.98 311.511C349.73 314.401 349.54 321.231 353.68 324.261C357.73 327.221 357.68 330.731 357.44 334.681C357.27 337.471 358.33 340.381 356.76 343.051C357.51 338.401 356.33 335.701 351.23 333.711C338.78 328.841 330.93 319.301 328.59 306.071C325.93 291.041 332.03 276.801 345.23 268.411C360.57 258.661 378.57 260.021 393.17 271.851C394.55 269.691 392.38 266.851 394.54 264.921Z" fill="#DEE0E4"/>
<path d="M273.35 243.841C275.31 238.251 278.62 235.531 283.42 235.581C287.72 235.631 291.38 238.431 292.59 242.491C293.59 245.831 292.24 248.571 290.54 251.261C287.59 254.941 284.53 255.971 280.45 254.631C276.19 253.231 272.9 249.371 272.68 245.501C272.65 244.871 272.85 244.291 273.35 243.841Z" fill="#35A754"/>
<path d="M274.89 202.541C275.9 201.551 276.9 200.561 277.91 199.581C281.4 198.321 284.92 197.681 288.33 199.731C292.95 202.501 293.87 206.731 291.36 213.121C284.88 218.311 278.81 217.961 275.03 212.331C273.39 209.891 274.14 207.281 273.92 204.741C274.24 204.011 274.56 203.271 274.89 202.541Z" fill="#F9BA08"/>
<path d="M385.03 249.841C380.37 249.781 376.6 246.051 376.67 241.551C376.74 237.181 380.83 233.381 385.33 233.481C390.01 233.591 393.68 237.301 393.62 241.851C393.56 246.421 389.82 249.901 385.03 249.841Z" fill="#35A754"/>
<path d="M353.21 241.731C358.75 239.041 363.53 236.711 368.31 234.391C369.93 233.611 370.25 234.511 370.25 235.891C370.24 240.361 370.24 244.821 370.24 249.971C364.55 247.231 359.35 244.701 353.21 241.731Z" fill="#4685F0"/>
<path d="M273.35 243.841C275.06 253.961 282.18 257.041 290.54 251.261C288.5 256.391 283.47 258.661 278.24 256.261C276.36 255.401 276.35 256.411 275.78 257.311C275.09 252.991 273.93 252.261 267.39 252.051C271.53 249.611 268.12 246.541 268.09 243.751C269.86 242.811 271.61 242.861 273.35 243.841Z" fill="#D6DEDE"/>
<path d="M247.06 283.681C246.31 283.681 245.56 283.661 244.81 283.681C242.19 283.751 239.7 283.791 239.43 280.131C239.04 274.821 239.52 274.001 243.56 272.871C245.18 272.421 246.78 272.311 248.38 272.461C253.87 272.961 255.81 275.781 254.42 281.071C253.99 282.721 252.93 283.631 251.19 283.661C249.81 283.681 248.43 283.661 247.06 283.661C247.06 283.671 247.06 283.671 247.06 283.681Z" fill="#DFE1E4"/>
<path d="M253.72 326.561C253.22 326.561 252.72 326.561 252.22 326.561C246.45 326.561 244.74 324.871 246.35 319.071C247.99 313.171 253.34 316.931 256.94 316.091C259.28 315.551 261.01 316.641 261.28 319.421C261.91 325.831 261.18 326.561 253.72 326.561Z" fill="#DEE0E4"/>
<path d="M101.83 142.221C100.42 140.751 99.12 139.211 98.7 137.131C103.94 135.401 108.25 131.931 113.1 129.471C110.09 132.621 107.07 135.751 104.08 138.921C103.15 139.891 101.85 140.631 101.83 142.221Z" fill="#794B29"/>
<path d="M173.97 91.8706C172.43 93.6306 174.07 95.3406 174.07 97.0706C173.11 97.6406 172.16 98.2506 171.17 98.7706C168.65 100.091 167.37 99.3106 167.39 96.4506C168.99 94.0706 169.58 90.2406 173.97 91.8706Z" fill="#D6D5E5"/>
<path d="M166.36 74.5406C163.55 75.7906 160.73 77.0306 157.67 78.3906C157.67 73.5906 157.67 69.1806 157.67 64.3906C160.55 65.6306 163.15 66.7506 165.75 67.8806C166.95 68.5606 168.41 68.1506 169.62 68.8606C170.58 69.4206 171.78 69.8706 171.85 71.1106C171.94 72.5706 170.66 73.1406 169.54 73.6606C168.54 74.1206 167.37 74.0406 166.36 74.5406Z" fill="#DA3C2F"/>
<path d="M166.36 74.5405C167.89 73.1505 170.21 73.0405 171.66 71.3605C170.05 69.4905 167.44 69.4505 165.74 67.8805C166.74 67.8205 167.12 67.0005 167.71 66.3705C170.25 63.6505 173.6 63.3105 176.37 65.4005C178.52 67.0205 179.35 70.8305 178.04 73.0905C176.52 75.7305 173.05 76.8205 169.9 75.5405C168.75 75.0605 167.64 74.5205 166.36 74.5405Z" fill="#DFDFE3"/>
<path d="M159.79 190.421C160.19 190.671 160.55 191.061 160.98 191.151C161.83 191.331 162.87 191.361 163.09 192.321C163.42 193.721 161.56 193.251 161.23 194.181C158.72 195.231 156.22 196.291 153.71 197.341C150.86 197.441 148.25 198.021 146.86 200.911C142.53 203.081 142.53 203.081 142.52 198.221C142.51 194.481 142.51 190.751 142.53 187.011C142.54 182.281 142.55 182.281 146.67 184.221C151.04 186.281 155.41 188.351 159.79 190.421Z" fill="#F9BA09"/>
<path d="M146.86 200.911C147.87 196.411 148.95 195.851 153.71 197.341C153.92 198.861 155.05 200.271 153.85 201.941C151.8 204.781 149.77 204.531 146.86 200.911Z" fill="#ED9E8A"/>
<path d="M396.61 45.2406C396.67 44.2806 396.55 43.2006 397.95 43.1106C399.55 43.0006 399.63 44.1106 399.64 45.2606C398.63 45.2606 397.62 45.2506 396.61 45.2406Z" fill="#BBD2FA"/>
<path d="M84.5 81.2606C81.66 80.7406 80.89 78.5506 80.63 76.1606C80.29 72.9706 81.75 70.7006 84.63 69.3206C87.85 69.3206 88.61 70.8405 87.94 73.8905C87.33 76.6605 86.06 78.9906 84.5 81.2606Z" fill="#2C0D0D"/>
<path d="M104.06 60.8105C105.3 62.6105 106.44 64.4806 107.79 66.1906C109.28 68.0706 108.83 68.9906 106.74 69.9806C104.09 71.2306 103.11 70.7406 103.29 67.7706C103.42 65.5506 103.32 63.3106 103.32 61.0806C103.57 60.9906 103.82 60.9005 104.06 60.8105Z" fill="#864427"/>
<path d="M99.53 89.5906C98.92 89.6506 98.38 89.5606 98.07 88.9406C96.88 86.9306 95.69 84.9306 94.45 82.8406C100.7 83.0606 99.45 82.3506 99.53 89.5906Z" fill="#834629"/>
<path d="M100.82 75.6705C101.18 75.5105 101.4 75.3306 101.61 75.3306C103.46 75.3106 105.32 75.3206 107.23 75.3206C107.32 77.5706 106.02 78.5906 104.33 78.7206C102.37 78.8506 101.15 77.6605 100.82 75.6705Z" fill="#FAEFE7"/>
<path d="M343.19 185.201C347.17 183.551 348.35 179.391 350.95 176.511C352.82 174.431 353.63 171.461 356.76 169.521C356.76 171.041 356.76 172.091 356.76 173.131C356.76 186.881 356.67 200.631 356.83 214.371C356.87 217.541 355.87 218.371 352.8 218.321C342.58 218.141 332.36 218.251 321.71 218.251C324.69 212.581 328.94 208.301 331.96 203.201C333.44 202.561 334.59 203.601 335.86 203.991C340.67 205.451 345.51 203.591 347.77 199.361C350.04 195.121 348.99 190.841 344.85 187.441C344.11 186.841 343.02 186.481 343.19 185.201Z" fill="#BBD2FA"/>
<path d="M343.19 185.201C348.97 188.981 350.87 192.591 349.58 197.291C347.41 205.171 340.32 207.551 331.95 203.211C325.68 195.491 328.07 186.661 336.92 184.651C339.11 184.151 341.1 185.021 343.19 185.201Z" fill="#FEFEFE"/>
<path d="M460.55 64.0606C462.58 66.0906 465.63 66.5106 468.21 68.7506C462.35 71.8606 456.82 74.8106 451.27 77.7306C449.23 78.8006 449.29 77.3006 449.28 76.0006C449.27 70.2806 449.28 64.5506 449.28 58.8306C453.42 59.7506 456.51 62.9406 460.55 64.0606Z" fill="#FDFEFE"/>
<path d="M294.31 355.031C297.08 355.881 295.78 358.191 295.81 359.791C295.97 367.131 295.88 367.131 288.66 367.151C287.54 367.151 286.41 367.201 285.29 367.231C283.55 363.711 284.72 359.991 284.61 356.371C284.57 355.041 285.92 355.141 286.89 355.121C289.36 355.071 291.83 355.061 294.31 355.031Z" fill="#FDFEFE"/>
<path d="M365.01 322.031C365.2 321.301 365.78 321.471 366.28 321.481C367.11 322.611 368.38 322.921 369.55 322.611C371.54 322.081 372.79 323.031 374.01 324.281C375.5 327.551 375.53 330.611 372.57 333.111C369.81 335.431 366.39 335.191 362.64 332.561C361.18 328.551 362.52 325.161 365.01 322.031Z" fill="#2A0C0D"/>
<path d="M365.01 322.031C363.69 325.421 362.29 328.801 362.65 332.571C360.16 328.071 360.72 325.581 365.01 322.031Z" fill="#DBB8AC"/>
<path d="M475.27 235.671C475.13 236.691 474.5 237.231 473.53 237.221C472.57 237.211 471.84 236.721 471.87 235.641C471.9 234.601 472.53 234.071 473.55 234.081C474.57 234.081 475.1 234.701 475.27 235.671Z" fill="#34383C"/>
</svg>
