<svg width="105" height="116" viewBox="0 0 105 116" fill="none" xmlns="http://www.w3.org/2000/svg">
<path d="M1.13473 116C0.3642 115.442 -0.269037 114.798 0.114828 113.744C0.493089 112.705 1.36729 112.601 2.33676 112.587C3.45193 112.57 4.92014 113.089 5.5898 112.369C6.25106 111.657 5.74671 110.206 5.78314 109.079C5.81676 108.099 5.76072 107.112 5.82797 106.137C6.03531 103.148 8.26005 100.828 11.2385 100.769C16.1055 100.671 20.978 100.743 25.8478 100.746C25.8842 100.746 25.9234 100.758 25.9599 100.755C26.5959 100.693 27.4225 101.357 27.7335 100.962C28.0697 100.533 27.8596 99.6675 27.868 98.9923C27.8792 98.048 27.8512 97.1038 27.8792 96.1623C27.9688 93.1783 30.2356 90.7686 33.2225 90.5837C34.8784 90.48 36.5428 90.5192 38.2043 90.5445C38.8403 90.5529 39.2186 90.3988 39.5128 89.7683C41.7992 84.8874 44.1248 80.0232 46.4476 75.159C46.6633 74.7051 46.7782 74.24 46.8006 73.7441C46.9912 69.8242 47.2125 65.9043 47.3666 61.9816C47.4731 59.2945 48.5546 56.854 49.1739 54.2987C49.4316 53.2367 49.7483 52.1888 50.0677 51.1437C50.4151 50.0089 51.2137 49.4905 52.1579 49.7427C53.1694 50.0145 53.6317 50.8999 53.3179 52.0571C52.8416 53.8307 52.3372 55.5988 51.7741 57.6189C53.9091 56.7447 55.8032 55.8733 57.7702 55.2009C59.0759 54.7554 59.7764 54.0409 60.1406 52.6875C60.7346 50.474 61.5528 48.3193 62.2729 46.1534C62.2085 46.0694 62.1636 45.9657 62.1272 45.9657C61.1185 46.0386 60.3031 45.7472 60.0342 44.6768C59.7652 43.6037 60.418 43.0237 61.2614 42.5165C66.2657 39.4961 71.2503 36.4363 76.2545 33.4159C78.0478 32.3343 79.3198 30.8773 79.869 28.8319C79.9755 28.4368 80.0988 28.0361 79.9531 27.6159C79.5272 27.571 79.2442 27.854 78.9248 28.0277C72.2646 31.6422 65.6184 35.2875 58.9358 38.86C57.532 39.6081 56.6382 40.642 56.1927 42.1243C55.8901 43.1358 55.6015 44.1501 55.2849 45.156C54.9318 46.2795 54.1389 46.7783 53.175 46.5177C52.1635 46.2459 51.7152 45.3689 52.0402 44.1977C52.5642 42.312 52.9957 40.3871 54.0576 38.7003C54.2818 38.3473 54.237 38.1567 53.9203 37.8597C51.9366 35.9908 51.0652 33.4747 50.0565 31.0482C49.7146 30.2273 49.8828 29.3531 50.0509 28.4845C50.5552 25.831 53.9484 24.0266 56.2431 23.7212C58.5631 23.4102 60.5329 24.6262 61.777 27.0162C62.2113 27.8512 62.6175 28.7058 63.0658 29.5324C63.4973 30.3281 63.8588 31.1519 64.1334 32.169C65.6324 31.3592 67.0726 30.5887 68.51 29.807C71.3596 28.2603 74.1951 26.6828 77.0699 25.1838C77.8152 24.7943 78.0478 24.3376 78.045 23.5166C78.0113 16.5314 78.0394 9.549 78.0141 2.56378C78.0113 1.52426 78.1823 0.630446 79.0845 0.00561523C79.5384 0.00561523 79.9895 0.00561523 80.4434 0.00561523C80.7628 0.49035 81.4325 0.776147 81.3821 1.46262C81.3064 2.46291 81.808 2.5946 82.6738 2.5918C88.866 2.55818 95.0583 2.58339 101.251 2.56658C102.548 2.56378 103.669 2.81315 104.221 4.14687C104.689 5.28446 104.33 6.2147 103.016 7.3719C101.769 8.47025 100.547 9.59663 99.264 10.6502C98.6924 11.1181 98.7148 11.3646 99.2696 11.827C100.69 13.0094 102.063 14.2534 103.442 15.4835C104.271 16.2232 104.644 17.1226 104.251 18.2238C103.845 19.3642 102.971 19.8461 101.814 19.8993C101.511 19.9133 101.209 19.9049 100.909 19.9049C94.7921 19.9049 88.6755 19.9021 82.5589 19.9133C82.2058 19.9133 81.623 19.7228 81.5418 20.1291C81.3905 20.8912 81.4605 21.6982 81.4381 22.4883C81.4213 23.0991 81.9761 23.0151 82.3067 23.2C82.8419 23.4998 83.0884 23.9761 83.2229 24.559C83.8898 27.4225 83.4191 30.0984 81.9116 32.6033C81.6567 33.0264 81.4241 33.4243 81.4241 33.9538C81.4353 43.3543 81.4381 52.7576 81.4213 62.1581C81.4213 62.7913 81.6146 63.0099 82.2619 62.9987C84.4138 62.965 86.5656 62.9846 88.7175 62.9846C89.3592 62.9846 90.0064 63.0351 90.6425 62.9762C94.5932 62.6036 97.6305 65.2374 97.5716 69.9166C97.4175 82.2227 97.5184 94.5344 97.5184 106.843C97.5184 108.466 97.5436 110.091 97.5072 111.713C97.4904 112.383 97.6669 112.66 98.3898 112.626C99.5582 112.57 100.729 112.61 101.901 112.618C102.654 112.624 103.232 112.974 103.498 113.669C103.775 114.395 103.638 115.078 103.016 115.616C102.881 115.734 102.769 115.877 102.649 116.011C68.8014 116 34.9681 116 1.13473 116ZM94.1056 90.3231C94.1056 83.3015 94.1141 76.2826 94.1 69.261C94.0972 67.2156 93.2399 66.3806 91.1944 66.3778C87.0056 66.3694 82.8139 66.375 78.625 66.375C76.2069 66.375 75.4392 67.1427 75.4392 69.5552C75.4364 77.5183 75.442 85.4842 75.4364 93.4473C75.4364 94.781 74.8199 95.5599 73.7832 95.5935C72.7073 95.6272 72.046 94.8174 72.0432 93.4305C72.0376 90.9395 72.046 88.4486 72.0404 85.9577C72.0348 83.8703 71.1578 82.968 69.104 82.9652C64.8395 82.9568 60.5721 82.9568 56.3076 82.9652C54.2286 82.968 53.3543 83.8338 53.3515 85.9409C53.3403 94.4728 53.3571 103.002 53.3319 111.534C53.3291 112.338 53.4916 112.632 54.3827 112.626C59.9305 112.582 65.4811 112.582 71.0289 112.626C71.9256 112.635 72.0741 112.335 72.0628 111.534C72.018 108.589 72.0544 105.647 72.0404 102.702C72.0348 101.87 72.2926 101.206 73.0827 100.864C74.2596 100.357 75.4224 101.192 75.4364 102.598C75.4672 105.58 75.4756 108.564 75.428 111.545C75.414 112.36 75.5877 112.635 76.4703 112.626C81.9817 112.582 87.4931 112.584 93.0017 112.624C93.8899 112.629 94.1365 112.391 94.1309 111.5C94.0916 104.439 94.1084 97.3812 94.1056 90.3231ZM40.5019 112.601C43.3683 112.601 46.2346 112.587 49.0982 112.612C49.7174 112.618 49.9584 112.461 49.9556 111.8C49.9332 106.709 49.9612 101.618 49.9304 96.5294C49.9192 94.8258 49.0338 93.9516 47.3162 93.9404C42.8303 93.9096 38.3416 93.9096 33.8557 93.9432C32.1689 93.9572 31.2779 94.8931 31.2723 96.5686C31.2555 101.62 31.2779 106.675 31.2527 111.727C31.2499 112.411 31.4208 112.629 32.1297 112.621C34.9204 112.576 37.7112 112.601 40.5019 112.601ZM77.86 36.5064C77.7256 36.5568 77.5855 36.5904 77.465 36.6633C74.0802 38.7143 70.7011 40.7737 67.308 42.8107C66.8625 43.0769 66.7364 43.4748 66.5963 43.9035C65.4419 47.4087 64.3015 50.9195 63.1051 54.4107C62.8669 55.1084 62.9622 55.5623 63.4413 56.1227C65.6913 58.7621 67.9048 61.438 70.1015 64.1222C71.1999 65.4672 71.6454 67.0082 71.4044 68.7678C70.9897 71.7939 70.6367 74.8256 70.2696 77.8573C70.0623 79.5721 70.0735 79.5749 71.7378 79.9475C71.8051 79.9616 71.8835 79.9279 72.0432 79.9027C72.0432 79.5077 72.0432 79.0986 72.0432 78.6895C72.0432 75.4084 72.0264 72.1246 72.0488 68.8435C72.0713 65.8874 74.0494 63.4806 76.9326 63.0827C77.9021 62.9482 78.0366 62.6036 78.0338 61.7546C78.0029 53.7187 78.017 45.6827 78.0114 37.6468C78.0114 37.2797 78.1122 36.8987 77.86 36.5064ZM99.1968 6.16146C98.9642 6.04378 98.9026 5.98214 98.8409 5.98214C93.2987 5.97373 87.7565 5.98214 82.2142 5.95412C81.4129 5.95132 81.4101 6.38842 81.4101 6.96562C81.4213 9.79277 81.4465 12.6199 81.3961 15.4471C81.3821 16.3073 81.6567 16.5202 82.4916 16.5146C87.7705 16.4782 93.0465 16.4978 98.3254 16.4894C98.5691 16.4894 98.8493 16.6015 99.1519 16.2652C98.0872 15.3182 97.0309 14.3795 95.9773 13.4381C94.2654 11.911 94.2682 10.5437 95.9969 8.99421C97.0365 8.07238 98.0788 7.15615 99.1968 6.16146ZM18.5459 112.601C21.3367 112.601 24.1246 112.582 26.9153 112.615C27.6074 112.624 27.9212 112.498 27.8904 111.705C27.8259 110.085 27.8848 108.463 27.868 106.843C27.8512 105.078 26.9882 104.142 25.2566 104.131C20.7707 104.103 16.2848 104.103 11.7989 104.131C10.0981 104.142 9.24352 105.019 9.2043 106.734C9.16507 108.354 9.22951 109.976 9.17628 111.595C9.15106 112.372 9.37241 112.632 10.1794 112.618C12.9645 112.573 15.7552 112.601 18.5459 112.601ZM58.6948 58.4623C56.1815 59.4962 53.9343 60.4601 51.6508 61.3315C50.9643 61.5949 50.7682 61.9507 50.7373 62.6428C50.5748 66.2993 50.3619 69.9531 50.1714 73.6068C50.1069 74.8648 49.8015 76.0417 49.2467 77.1877C47.2433 81.3261 45.282 85.4842 43.3262 89.6422C43.217 89.8748 42.8415 90.1858 43.1889 90.4296C43.5476 90.6818 43.9034 90.4716 44.1472 90.1214C44.2341 89.9981 44.3293 89.8804 44.4218 89.7599C47.9158 85.1171 51.4042 80.4743 54.9038 75.8371C55.3185 75.2879 55.6828 74.7304 55.8088 74.0411C56.7531 68.936 57.7001 63.8308 58.6948 58.4623ZM61.9339 59.5271C61.6313 61.2278 61.3763 62.6316 61.1353 64.0382C60.7374 66.3554 60.4741 65.6997 62.3457 66.8317C63.8196 67.7255 64.4696 68.936 64.5929 70.6115C64.789 73.2761 65.086 75.9352 65.3746 78.5914C65.4167 78.9669 65.2401 79.5301 65.9939 79.5637C66.7784 79.6001 66.714 79.0481 66.77 78.5998C67.1931 75.2011 67.5826 71.7967 68.0197 68.4008C68.1233 67.5966 67.9776 66.899 67.4789 66.2853C65.6997 64.1054 63.9092 61.9339 61.9339 59.5271ZM57.4872 35.5818C58.409 35.3184 59.5046 34.9149 60.2975 34.0127C60.7739 33.4719 60.8579 32.7798 60.5245 32.1074C59.8548 30.7624 59.202 29.4063 58.4707 28.095C57.9299 27.1255 56.98 26.8341 55.9461 27.2572C55.3577 27.4982 54.7777 27.7868 54.2482 28.1398C53.3628 28.7254 52.9873 29.5688 53.4608 30.5747C54.1137 31.9701 54.8226 33.3374 55.5623 34.6879C55.9097 35.3212 56.5205 35.6266 57.4872 35.5818ZM56.4141 79.3143C56.4925 79.3928 56.5738 79.4712 56.6522 79.5525C58.1961 79.5525 59.7372 79.5357 61.281 79.5609C61.8666 79.5721 62.0515 79.418 61.9787 78.7876C61.6789 76.1313 61.4155 73.4667 61.1914 70.802C61.1297 70.0707 60.8103 69.7541 60.0986 69.642C59.4093 73.1024 59.3897 76.7449 56.4141 79.3143ZM48.154 90.466C49.9892 90.9732 49.992 90.9732 49.9416 89.2304C49.9332 88.9866 50.0369 88.7064 49.6978 88.4374C49.2075 89.0819 48.7228 89.7179 48.154 90.466Z" fill="#0C66F3"/>
</svg>
