<svg width="127" height="99" viewBox="0 0 127 99" fill="none" xmlns="http://www.w3.org/2000/svg">
<g clip-path="url(#clip0_116_9336)">
<path d="M22.0455 79.6892C20.0763 79.6892 18.4921 79.5821 17.051 79.3589C9.21925 78.118 3.91154 73.7523 1.28007 66.3601C-1.30665 59.1018 0.0359369 52.406 5.28099 46.4601C8.65536 42.6301 13.0322 40.4785 18.2773 40.0589C18.5458 40.041 18.8232 39.9964 19.0828 39.9428C19.2618 39.9071 19.405 39.8357 19.5572 39.7732L19.781 39.675L20.2106 39.4964L20.309 39.0411C21.3652 34.1487 23.6476 30.1759 27.1025 27.2565C30.638 24.2657 34.9254 22.6676 39.8661 22.5248L40.4121 22.5069L40.6448 22.0159C47.5904 7.40112 58.2775 0 72.4105 0C73.4935 0 74.6123 0.0446388 75.7401 0.133917C91.5021 1.35702 102.01 10.4098 106.969 27.0422L107.103 27.4975L107.559 27.6404C115.803 30.1758 121.639 35.345 124.888 42.9872C127.331 48.7188 127.654 54.6736 125.854 60.682C123.142 69.7526 113.171 78.984 106.1 78.984C106.02 78.984 105.939 78.984 105.859 78.984C105.707 78.1805 105.707 77.0913 105.85 76.1628C117.871 72.3417 124.1 64.2621 123.876 52.7452C123.644 40.9963 116.94 33.0863 104.48 29.8455C100.614 13.3113 90.3922 4.05321 74.8987 3.0533C74.0305 2.99973 73.1712 2.97295 72.3299 2.97295C58.5012 2.97295 48.2349 10.749 42.6229 25.4798C42.2827 25.4709 41.9426 25.462 41.6115 25.462C30.5396 25.462 24.1846 31.2561 22.7167 42.7015C22.4124 42.7194 22.1171 42.7372 21.8217 42.7551C20.6671 42.8265 19.5303 42.889 18.4115 42.9961C9.84579 43.7907 3.24025 50.7097 3.04334 59.1018C2.84642 67.8332 9.12974 75.2968 17.6686 76.4753C19.3066 76.6984 20.9177 76.7342 22.126 76.7342C22.8152 76.7342 23.5044 76.7252 24.1936 76.7163C24.8738 76.7074 25.5541 76.6984 26.2343 76.6984C26.655 76.6984 27.0667 76.6984 27.4874 76.7163C27.7291 76.7252 27.9797 76.7252 28.2303 76.7252H28.7852C28.9195 77.6448 28.8658 78.5286 28.8211 79.4571C28.8211 79.5018 28.821 79.5375 28.8121 79.5821H28.6062C27.5053 79.5821 26.4044 79.6089 25.3035 79.6446C24.2115 79.6535 23.1285 79.6892 22.0455 79.6892Z" fill="white"/>
<path d="M79.132 87.2957C78.7471 87.2957 78.3801 87.135 78.0847 86.8226C77.7983 86.528 77.6462 86.1619 77.6551 85.7691C77.6641 85.287 77.8968 84.796 78.3175 84.3942C78.944 83.7871 79.6332 83.2247 80.3672 82.6354C80.7073 82.3676 81.0474 82.0909 81.3875 81.8052L82.1573 81.1534L81.4233 80.466C80.5551 79.6536 79.7854 79.5643 79.2931 79.5643C79.1767 79.5643 79.0604 79.5732 78.944 79.5732C78.8724 79.5732 78.7918 79.5822 78.7202 79.5822C70.1545 79.5732 61.5888 79.5732 53.0231 79.5732H41.4768C36.912 79.5732 34.8802 77.5377 34.8713 72.9845C34.8713 70.1187 34.8802 67.244 34.8802 64.3782C34.8981 57.7002 34.916 50.799 34.8265 44.0139C34.7997 42.1034 35.4173 40.425 36.554 39.2733C37.646 38.1752 39.1944 37.5859 41.0293 37.5859H41.1904C44.8154 37.6484 48.7358 37.6841 53.5512 37.6841C56.3527 37.6841 59.1542 37.6752 61.9558 37.6663C64.7573 37.6574 67.5499 37.6484 70.3514 37.6484H70.9422C74.7014 37.6484 76.8764 39.8179 76.9122 43.5854C76.9391 46.103 76.9301 48.3171 76.9033 50.3526C76.8854 51.6204 76.2857 52.3792 75.2922 52.3882C73.9317 52.3882 73.7706 50.9597 73.7706 50.3437C73.7616 49.3349 73.7616 48.335 73.7616 47.3261C73.7616 46.112 73.7616 44.8978 73.7527 43.6925C73.7258 41.657 72.8576 40.791 70.8616 40.791C65.6703 40.7821 60.4789 40.7821 55.2965 40.7821C50.4811 40.7821 45.6657 40.7821 40.8503 40.791C38.8901 40.791 38.0577 41.6391 38.0487 43.6211C38.0308 53.6024 38.0308 63.5836 38.0487 73.5559C38.0487 75.52 38.9886 76.4307 40.9935 76.4307C47.6796 76.4396 54.3657 76.4396 61.0428 76.4396H79.481C80.1255 76.4396 80.6536 76.2967 81.477 75.5825L82.2647 74.904L81.4681 74.2344C81.1101 73.9398 80.761 73.6452 80.4209 73.3684C79.6869 72.7703 78.9977 72.2078 78.3712 71.6007C77.5567 70.8151 77.4135 69.8152 78.031 69.1724C78.3264 68.8599 78.6934 68.6992 79.0872 68.6992C79.5795 68.6992 80.1076 68.9492 80.573 69.4134C82.9628 71.7614 85.4063 74.1987 87.8319 76.6538C88.7718 77.6091 88.7897 78.3769 87.8767 79.3054C85.5495 81.698 83.0702 84.1621 80.5283 86.644C80.0807 87.0636 79.5974 87.2957 79.132 87.2957Z" fill="white"/>
<path d="M79.0159 99.0001C74.1826 99.0001 69.3403 98.9912 64.507 98.9823C60.3181 98.9733 58.1968 96.8485 58.1879 92.6703V91.4829C58.1879 89.7063 58.1789 87.9386 58.1968 86.162C58.2058 84.8942 58.707 84.2336 59.6826 84.2068C61.0342 84.2068 61.3296 85.2514 61.3475 86.1352C61.3833 87.4476 61.3743 88.751 61.3743 90.0634C61.3743 91.0187 61.3654 91.965 61.3833 92.9203C61.4012 94.9648 62.2604 95.8397 64.2564 95.8397C69.036 95.8486 73.8156 95.8575 78.5863 95.8575C83.7687 95.8575 88.9511 95.8486 94.1424 95.8397C96.0937 95.8308 97.0782 94.8487 97.0872 92.9025C97.114 82.7605 97.1051 72.7257 97.0872 63.0926C97.0872 61.1196 96.1474 60.2 94.1424 60.2C87.6443 60.1911 81.1462 60.1911 74.648 60.1911H55.6549C55.1447 60.1911 54.5898 60.2625 53.9722 60.7982L53.2561 61.4142L54.8672 63.0569C55.5922 63.789 56.2993 64.5032 56.9885 65.2353C57.4718 65.7442 57.5793 66.2441 57.3376 66.8512C57.0959 67.4672 56.6663 67.7708 55.9502 67.8511C55.8965 67.8601 55.8428 67.8601 55.7891 67.8601C55.3953 67.8601 55.0373 67.6904 54.6793 67.3333L52.6117 65.271C50.7768 63.4498 48.9419 61.6285 47.1339 59.7804C46.3105 58.9412 46.3284 58.2181 47.1697 57.3521C49.6669 54.8077 52.2089 52.2722 54.724 49.8171C55.091 49.4599 55.5117 49.2725 55.9413 49.2725C56.3172 49.2725 56.6752 49.4242 56.9706 49.701C57.6419 50.3349 57.633 51.1741 56.9527 51.9419C56.3083 52.6739 55.6191 53.3614 54.903 54.0935C54.5808 54.4149 54.2586 54.7452 53.9364 55.0755L53.3009 55.7362L53.9722 56.3522C54.6256 56.9593 55.2969 57.0307 55.7354 57.0307C55.8786 57.0307 56.0129 57.0218 56.1561 57.0128C56.2546 57.0039 56.3441 57.0039 56.4336 57.0039C59.5394 57.0039 62.6453 57.0128 65.7422 57.0218C69.6984 57.0307 73.6545 57.0396 77.6196 57.0396C83.903 57.0396 89.0495 57.0128 93.8381 56.9503H93.9366C95.7714 56.9503 97.3915 57.5753 98.5103 58.7091C99.6291 59.8429 100.202 61.4053 100.166 63.2444C100.05 70.092 100.077 77.0557 100.095 83.7872C100.104 86.7869 100.112 89.7867 100.112 92.7864C100.112 96.8753 98.0449 98.9555 93.9724 98.9644C88.9869 98.9912 84.0014 99.0001 79.0159 99.0001Z" fill="white"/>
</g>
<defs>
<clipPath id="clip0_116_9336">
<rect width="127" height="99" fill="white"/>
</clipPath>
</defs>
</svg>
