<svg width="162" height="116" viewBox="0 0 162 116" fill="none" xmlns="http://www.w3.org/2000/svg">
<g clip-path="url(#clip0_36_1001)">
<path d="M161.655 80.1334C161.246 82.1881 160.925 84.2639 160.419 86.2975C156.28 102.921 141.58 115.017 124.497 115.882C122.713 115.97 120.919 116.013 119.135 115.979C117.354 115.945 116.401 115.051 116.413 113.591C116.422 112.123 117.375 111.253 119.177 111.279C124.582 111.351 129.877 110.861 134.973 108.865C149.12 103.326 158.436 88.3648 156.799 73.7203C154.963 57.2996 143.179 44.7478 127.459 42.5032C122.223 41.7564 116.949 42.2079 111.696 42.1066C109.013 42.056 108.68 41.8703 107.756 39.4064C104.946 31.8964 100.642 25.3652 94.896 19.7791C94.5205 19.412 94.1028 19.0619 93.8286 18.6273C93.1535 17.5556 93.2759 16.5093 94.1788 15.6191C95.0563 14.7584 96.4191 14.7668 97.4528 15.6992C100.081 18.0662 102.389 20.7326 104.49 23.5721C107.313 27.3946 109.709 31.4702 111.439 35.9003C111.907 37.1027 112.549 37.3896 113.764 37.3939C118.443 37.4107 123.126 37.1449 127.792 37.7525C143.753 39.8283 157.25 52.2451 160.701 68.0921C161.068 69.7797 161.343 71.4884 161.659 73.1845C161.655 75.5008 161.655 77.8171 161.655 80.1334Z" fill="#0C66F3"/>
<path d="M80.3612 115.894C72.1509 115.894 63.9363 116.093 55.7343 115.857C28.6688 115.089 5.44685 94.7947 0.864902 68.092C-4.25287 38.2461 13.7416 9.89797 43.0812 2.0631C59.0548 -2.20241 74.2478 0.198254 88.4324 8.75459C89.3859 9.32839 90.1495 10.0034 90.1285 11.2101C90.0947 13.1129 88.1033 14.0833 86.3102 12.9948C82.8378 10.8852 79.2263 9.10056 75.3869 7.75889C44.6972 -2.98295 11.3283 16.484 5.58186 48.4985C0.248913 78.201 20.5723 106.49 50.2706 110.701C53.3505 111.14 56.4558 111.249 59.5611 111.253C75.2435 111.266 90.9259 111.258 106.608 111.258C106.975 111.258 107.347 111.253 107.714 111.258C109.701 111.283 110.802 112.135 110.785 113.625C110.768 115.106 109.667 115.983 107.671 115.983C98.5667 116 89.4618 115.992 80.357 115.992C80.3612 115.962 80.3612 115.928 80.3612 115.894Z" fill="#0C66F3"/>
<path d="M25.9559 58.2404C26.0361 41.6382 38.7609 27.6603 54.4644 26.4621C71.5602 25.1542 86.2469 36.5837 88.7615 53.2028C89.8711 60.5314 88.5716 67.4507 84.7871 73.8426C84.2175 74.8046 84.2808 75.3235 85.0698 76.0956C89.4998 80.4455 93.875 84.8545 98.2629 89.2508C100.697 91.6937 100.68 93.8623 98.2334 96.3347C97.1575 97.419 96.0901 98.5075 94.9931 99.5707C92.8709 101.63 90.5799 101.638 88.4619 99.537C83.9391 95.0563 79.4288 90.5587 74.9608 86.0232C74.1718 85.2216 73.6191 85.0865 72.5728 85.6603C58.1941 93.529 40.0098 88.888 31.1412 75.1421C30.1793 73.6528 30.1961 72.4883 31.1834 71.5854C32.3394 70.5306 33.9174 70.7838 34.93 72.3153C36.9298 75.3362 39.36 77.9183 42.3387 79.9899C51.0976 86.0907 62.7803 86.3523 71.8049 80.6523C74.3237 79.0617 74.7203 79.0996 76.8045 81.1881C81.4582 85.8375 86.1245 90.4743 90.7445 95.1618C91.4955 95.9254 91.9216 96.0182 92.719 95.204C95.0986 92.7695 95.1365 92.8117 92.681 90.3562C88.4746 86.154 84.2681 81.9475 80.0659 77.7411C78.277 75.948 78.2095 75.2856 79.5807 73.252C90.9132 56.4473 81.2346 34.3983 61.1601 31.2888C46.503 29.0189 32.1116 40.402 30.8627 55.2111C30.6434 57.8016 30.7531 60.3542 31.1961 62.9067C31.5251 64.8011 30.8796 65.9825 29.462 66.2525C27.9305 66.5436 26.863 65.6323 26.5129 63.7337C26.1458 61.7634 26.015 59.7677 25.9559 58.2404Z" fill="#0C66F3"/>
<path d="M57.5401 35.8245C69.767 35.8202 79.6144 45.6339 79.6524 57.8566C79.6904 70.0962 69.7037 80.1039 57.4979 80.0533C45.3553 80.0069 35.4109 70.0245 35.4278 57.8946C35.4404 45.7267 45.3595 35.8287 57.5401 35.8245ZM57.5485 40.5667C47.9669 40.5794 40.1616 48.3721 40.17 57.9241C40.1785 67.4466 48.064 75.3279 57.5696 75.311C67.1301 75.2942 74.9143 67.4762 74.9059 57.903C74.9017 48.2835 67.1596 40.5541 57.5485 40.5667Z" fill="#0C66F3"/>
</g>
<defs>
<clipPath id="clip0_36_1001">
<rect width="161.655" height="116" fill="white"/>
</clipPath>
</defs>
</svg>
