<svg width="143" height="113" viewBox="0 0 143 113" fill="none" xmlns="http://www.w3.org/2000/svg">
<g clip-path="url(#clip0_116_9351)">
<path d="M42.9209 89.4419C42.6295 89.4419 42.2382 89.3748 41.7719 88.8213C40.6396 87.4794 39.4989 86.1376 38.3583 84.7874L36.7846 82.9339C36.7846 82.9339 35.9187 82.9255 35.6773 82.9255H34.6115C33.8788 82.9255 33.0879 82.9172 32.3052 82.8333L31.8889 82.7914L27.7009 87.4291L27.3346 87.8484C27.0348 88.1923 26.7351 88.5277 26.4104 88.8548C26.1606 89.1064 25.9108 89.2154 25.6277 89.2154C25.5278 89.2154 25.4196 89.1987 25.303 89.1735C22.239 88.3684 19.2 87.0685 16.2692 85.3073C15.7863 85.0138 15.5865 84.6532 15.6198 84.1416L16.1277 77.013C16.136 76.8705 16.136 76.7279 16.136 76.5518V75.9396L15.8446 75.688C14.9537 74.9164 14.0462 73.9771 13.0803 72.8198L12.8139 72.5011L7.41863 72.7527C7.11057 72.7695 6.81083 72.7862 6.51109 72.803C5.92827 72.8366 5.34544 72.8701 4.76262 72.8785C4.23808 72.8785 3.89671 72.6688 3.6386 72.216C2.01502 69.331 0.807743 66.2531 0.0500718 63.0663C-0.0831451 62.5044 0.07505 62.085 0.566287 61.6573C1.91511 60.5084 3.2556 59.3426 4.5961 58.1853L6.50276 56.5415L6.48611 56.1306C6.41118 54.5372 6.43616 53.2456 6.5777 52.0715L6.62766 51.6438C6.62766 51.6438 5.28716 50.411 4.77927 49.9413C3.55534 48.8092 2.28978 47.6351 1.01589 46.5197C0.333158 45.9242 0.166637 45.3623 0.408092 44.4733C1.39057 40.9091 2.56454 38.1834 4.11319 35.9023C4.47121 35.374 4.83755 35.1643 5.37875 35.1643C5.47033 35.1643 5.56192 35.1727 5.66183 35.1811C7.35202 35.3824 9.04221 35.5585 10.7491 35.7346L13.2385 35.9946L13.5216 35.6759C14.7289 34.3256 15.8279 33.1264 17.1102 32.0864L17.4515 31.8097L17.2351 29.1176C17.1018 27.4655 16.9769 25.8217 16.8354 24.178C16.7688 23.4232 17.0269 22.9955 17.7429 22.6432C20.3323 21.3601 23.0716 20.3537 26.119 19.5821C26.2771 19.5402 26.427 19.5234 26.5602 19.5234C26.7934 19.5234 27.1514 19.5738 27.5344 20.0266C28.6501 21.3517 29.7741 22.6768 30.9064 23.9935L31.9139 25.176C32.0388 25.3269 32.172 25.4695 32.3052 25.6121L32.7715 26.132L33.2127 26.0733C33.6041 26.0146 34.0287 25.9894 34.5199 25.9894C35.0445 25.9894 35.569 26.023 36.0936 26.0482C36.4599 26.0649 36.8263 26.0901 37.1926 26.0985L37.5756 26.1069L41.3723 21.8968L41.7719 21.4607C42.105 21.1001 42.4463 20.7311 42.7544 20.3453C43.0791 19.9428 43.4205 19.7583 43.8618 19.7583C44.0533 19.7583 44.2698 19.7918 44.5112 19.8589C47.5502 20.7311 50.4477 22.0058 53.1453 23.6328C53.6449 23.9347 53.8447 24.3038 53.8031 24.8573L53.2619 32.229C53.2536 32.3045 53.2536 32.38 53.2619 32.4722V32.9251L53.5283 33.1767C54.4775 34.0657 55.4683 35.0469 56.3509 36.112L56.6173 36.4391L57.0336 36.4223C57.6664 36.3887 58.2992 36.3636 58.9319 36.3384C60.339 36.2797 61.7878 36.221 63.2199 36.112C63.6695 36.0784 64.0525 36.0533 64.3772 36.0533C65.318 36.0533 65.5012 36.1036 66.4004 37.8564C67.616 40.2298 68.5735 42.7625 69.3229 45.6139C69.506 46.3184 69.3645 46.7964 68.8399 47.2493C67.5244 48.3898 66.2089 49.5304 64.8767 50.6961L62.9451 52.3818V52.7592C62.9451 53.145 62.9451 53.5308 62.9534 53.9166C62.9618 54.8894 62.9784 55.8958 62.8535 56.8602L62.7952 57.2963L64.6686 59.024C65.9508 60.2065 67.2164 61.3722 68.4986 62.5128C69.123 63.0663 69.2729 63.5778 69.0314 64.3997C68.1655 67.335 66.9666 70.1613 65.4512 72.7946C65.01 73.5578 64.5687 73.7171 64.0358 73.7171C63.9442 73.7171 63.8526 73.7088 63.7527 73.7004C62.1791 73.5326 60.5722 73.4236 59.0235 73.3146L57.5082 73.2056C57.3583 73.1972 57.2168 73.1888 57.0669 73.1888L56.3758 73.1972H55.9928L55.7431 73.4907C54.8522 74.5222 53.8031 75.4783 52.8789 76.3002L52.5792 76.5686L52.6957 79.1768C52.7707 80.9296 52.8539 82.6656 52.9455 84.4016C52.9871 85.1228 52.7374 85.5505 52.0796 85.9195C49.4069 87.4039 46.5011 88.5613 43.4371 89.3748C43.2456 89.4251 43.0791 89.4419 42.9209 89.4419ZM37.3675 80.376C37.5673 80.376 37.8837 80.4264 38.2583 80.8625L41.3973 84.5609C41.7719 84.997 42.9875 86.4143 42.9875 86.4143L43.3372 86.8169L43.8451 86.6659C46.0432 86.0286 48.0415 85.2318 49.9481 84.2255L50.3977 83.9906V83.261C50.3977 83.1017 50.3977 82.9507 50.3977 82.7997L50.3228 81.0973C50.2562 79.4619 50.1813 77.8265 50.0897 76.1996C50.0564 75.6209 50.2229 75.2351 50.6309 74.9164C52.0213 73.8262 53.3368 72.543 54.5275 71.1089C54.8189 70.7567 55.1269 70.5974 55.5266 70.5974C55.5682 70.5974 55.6098 70.5974 55.6515 70.6057L57.0253 70.7148C58.0993 70.807 59.1651 70.8909 60.2391 70.9496C60.5305 70.9664 60.8136 70.9915 61.105 71.0251C61.5713 71.0754 62.0542 71.1173 62.5454 71.1173C62.7453 71.1173 62.9451 71.1089 63.1449 71.0922L63.5862 71.0502L63.8027 70.6561C64.8934 68.6517 65.7343 66.6641 66.3671 64.5758L66.5253 64.0643L64.6686 62.3702C63.4447 61.2464 62.2207 60.1226 60.9801 59.024C60.4473 58.5459 60.2558 58.1182 60.3224 57.5395C60.5056 55.9209 60.5305 54.2101 60.3973 51.9793C60.3723 51.518 60.5139 51.1909 60.8719 50.8806C61.3631 50.4613 61.8544 50.0336 62.3456 49.6059L63.1532 48.9014L66.8001 45.7649L66.6502 45.2449C65.9425 42.8212 65.1598 40.8504 64.1857 39.0305L63.9442 38.5776L61.4131 38.7034C59.7895 38.7789 58.1909 38.8544 56.584 38.9634C56.5007 38.9718 56.4091 38.9718 56.3259 38.9718C55.6681 38.9718 55.2518 38.7789 54.8938 38.3009C53.8863 36.959 52.6707 35.701 51.1804 34.4598C50.8224 34.1663 50.6725 33.8225 50.6975 33.3696C50.7391 32.6483 50.8057 31.9271 50.864 31.1975C50.8973 30.7781 50.9306 30.3588 50.9639 29.9395C51.0305 29.0757 51.2969 25.4359 51.2969 25.4359L50.8307 25.176C48.6826 23.9935 46.6843 23.1296 44.7194 22.5594L44.2198 22.4168L43.8701 22.8026C43.4122 23.3058 42.9626 23.8089 42.5046 24.2954C41.4472 25.4443 40.3565 26.6352 39.3407 27.8596C38.8745 28.4215 38.3916 28.6564 37.7171 28.6564C37.559 28.6564 37.3924 28.6396 37.2259 28.6228C36.4682 28.5222 35.6856 28.4719 34.8197 28.4719C34.1036 28.4719 33.3293 28.5054 32.4634 28.5809C32.3968 28.5893 32.3219 28.5893 32.2553 28.5893C31.7474 28.5893 31.3977 28.4215 31.073 28.0274C30.6067 27.4655 30.1321 26.912 29.6659 26.3501L26.0773 22.14L25.5694 22.2826C23.5878 22.8445 21.7228 23.5322 19.8578 24.3876L19.3249 24.6308L19.533 27.2055C19.6663 28.8576 19.7995 30.4846 19.9493 32.1032C20.016 32.8161 19.8411 33.2354 19.3582 33.5625C18.7754 33.9483 18.026 34.4934 17.3599 35.1978L16.5856 36.0281C15.9778 36.6823 15.3617 37.3364 14.7622 37.9989C14.4375 38.368 14.1128 38.5273 13.7298 38.5273C13.6798 38.5273 13.6215 38.5273 13.5716 38.5189C12.4642 38.4015 5.88664 37.7054 5.88664 37.7054L5.61188 38.1499C4.47121 39.9782 3.64693 41.9574 3.00582 44.3811L2.8726 44.8759L4.76262 46.6035C6.04483 47.7776 7.31039 48.935 8.58428 50.0923C9.10882 50.5703 9.1338 50.9729 9.09217 51.2748C8.84239 53.2876 8.90067 55.3087 9.00058 57.028C9.02556 57.4389 8.88402 57.7492 8.5593 58.026C8.07639 58.4369 6.92739 59.4349 6.92739 59.4349L2.58952 63.1921L2.73939 63.712C3.42212 66.0351 4.22143 68.0646 5.18725 69.9013L5.43703 70.3793L6.48611 70.3206L13.4134 70.0019C13.7881 70.0019 14.0545 70.1193 14.2626 70.3793C15.4616 71.9057 16.8021 73.2978 18.2508 74.5223C18.5839 74.799 18.7337 75.1261 18.7088 75.5119C18.6671 76.3086 18.6005 77.1137 18.5339 77.9104L18.4507 78.9336L18.101 83.5126L18.5672 83.7726C20.4989 84.8544 22.4888 85.7183 24.6536 86.406L25.1615 86.5653L26.119 85.517L27.0931 84.4435C28.1672 83.2526 29.2412 82.0533 30.3153 80.8541C30.7732 80.3341 31.073 80.2754 31.2561 80.2754C31.2894 80.2754 31.3144 80.2754 31.3477 80.2838C32.4384 80.418 33.5541 80.4851 34.7531 80.4851C35.569 80.4851 36.4016 80.4515 37.3008 80.3928L37.3675 80.376Z" fill="#2043DF"/>
<path d="M107.339 90.4568C106.69 90.4568 106.024 90.44 105.358 90.3981C104.917 90.3729 104.475 90.331 104.034 90.289C103.751 90.2639 103.468 90.2387 103.185 90.2136C102.452 90.1549 102.077 89.8781 101.853 89.2323C101.27 87.555 100.662 85.8945 100.046 84.2004L99.1715 81.7851L98.8052 81.6509C97.5063 81.1813 96.2324 80.7284 95.0335 80.1162L94.6588 79.9233L90.1294 82.2212L89.0804 82.7663C88.5808 83.0263 88.0812 83.2863 87.5817 83.5379C87.3402 83.6553 87.1154 83.7224 86.9073 83.7224C86.6325 83.7224 86.3744 83.6217 86.0996 83.4121C83.5435 81.5 81.2455 79.2356 79.2639 76.7029C78.856 76.1745 78.806 75.6797 79.1057 75.0507C79.8218 73.5495 80.5212 72.04 81.2289 70.5304L82.0365 68.8028C82.0948 68.677 82.1531 68.5428 82.2114 68.417L82.4195 67.9222L82.2447 67.5699C81.5869 66.2449 81.0624 65.0121 80.6461 63.8212L80.5128 63.4354L74.8178 61.5484C74.1767 61.3388 73.5356 61.1291 72.9028 60.911C72.4116 60.7433 72.1618 60.4498 72.0702 59.9131C71.4374 56.3488 71.3625 53.2206 71.8288 50.3356C71.9786 49.4383 72.3117 49.019 73.061 48.7841C74.6596 48.2893 76.2416 47.7694 77.8319 47.241L80.2298 46.4527L80.4712 45.7147C80.9791 44.1715 81.4537 42.7123 82.1864 41.3034L82.3945 40.9092L79.3139 35.2734C79.0974 34.8793 78.8726 34.4851 78.6645 34.0826C78.3731 33.5207 78.4064 33.0762 78.7977 32.5898C80.696 30.2331 82.9107 28.0527 85.3919 26.107C85.625 25.9225 85.8582 25.8386 86.108 25.8386C86.3744 25.8386 86.6991 25.9309 87.0904 26.1238C88.6058 26.8618 90.1211 27.583 91.6448 28.3042L93.9344 29.3945L94.3008 29.21C95.4748 28.6062 96.6987 28.0778 98.0475 27.583L98.4305 27.4404L99.2048 25.0922C99.7294 23.4904 100.279 21.8382 100.778 20.1945C101.037 19.3391 101.445 18.9784 102.269 18.8694C104.059 18.6346 105.799 18.5088 107.448 18.5088C108.913 18.5088 110.353 18.601 111.744 18.7939C112.277 18.8694 112.585 19.121 112.768 19.641L115.208 26.476C115.232 26.5515 115.266 26.6269 115.307 26.7192L115.516 27.2056L115.882 27.323C117.281 27.7843 118.505 28.2791 119.645 28.841L120.02 29.0255L122.268 27.8849C123.75 27.1301 125.29 26.3502 126.781 25.5451C127.13 25.3606 127.438 25.2683 127.722 25.2683C128.071 25.2683 128.421 25.4109 128.821 25.7212C131.194 27.5578 133.375 29.7132 135.315 32.1201C135.823 32.7491 135.881 33.2858 135.523 34.0155C134.774 35.567 134.049 37.1185 133.317 38.6868L132.251 40.9679L132.426 41.3285C133.067 42.6704 133.583 43.8193 134.024 45.1025L134.158 45.4966L138.321 46.8804L139.628 47.3081C140.311 47.5345 141.002 47.7526 141.684 47.9874C142.267 48.1803 142.534 48.4906 142.625 49.0777C143.125 52.0717 143.191 55.2082 142.833 58.6802C142.758 59.4099 142.442 59.804 141.751 60.0472C140.102 60.6175 138.471 61.213 136.822 61.8168L134.424 62.6806L134.299 63.0748C133.883 64.3998 133.392 65.641 132.792 66.8739L132.609 67.2513L135.748 73.4573C135.914 73.7844 136.089 74.1198 136.239 74.4553C136.464 74.9417 136.431 75.361 136.139 75.772C134.266 78.3718 131.985 80.7368 129.378 82.7999C129.095 83.0263 128.821 83.1353 128.546 83.1353C128.338 83.1353 128.105 83.0766 127.855 82.9508C126.273 82.1877 124.683 81.4413 123.076 80.6781L120.753 79.5794L120.395 79.7556C119.312 80.2839 118.022 80.8877 116.656 81.3658L116.265 81.5L114.2 87.8569C114.059 88.293 113.917 88.7291 113.767 89.1652C113.601 89.66 113.318 89.9116 112.843 89.9955C111.011 90.2974 109.179 90.4568 107.339 90.4568ZM94.6338 77.3151C94.867 77.3151 95.1001 77.3822 95.3499 77.5164C96.8819 78.3466 98.5804 79.0259 100.395 79.5291C100.853 79.6549 101.128 79.9149 101.286 80.3762C101.519 81.0303 103.892 87.7311 103.892 87.7311L104.367 87.815C105.016 87.9324 106.107 87.9576 106.906 87.9576C108.28 87.9576 110.112 87.8737 111.119 87.6976L111.586 87.6137L111.794 87.0434C111.844 86.9177 111.894 86.7835 111.935 86.6409L112.46 85.0307C112.976 83.4624 113.484 81.8857 113.984 80.3175C114.167 79.7556 114.45 79.4536 114.941 79.3027C116.665 78.766 118.338 78.0363 119.92 77.139C120.17 76.9964 120.403 76.9293 120.628 76.9293C120.844 76.9293 121.061 76.988 121.302 77.1054C121.952 77.4241 122.601 77.7344 123.25 78.0447L128.288 80.4349L128.696 80.091C130.453 78.5982 131.96 77.0383 133.308 75.3107L133.641 74.8914L132.526 72.669C131.726 71.0839 130.935 69.5156 130.144 67.9473C129.903 67.4609 129.886 67.0668 130.095 66.6558C131.01 64.8695 131.693 63.1586 132.159 61.4059C132.268 61.0033 132.501 60.7433 132.875 60.5924C133.6 60.3072 134.332 60.0472 135.073 59.7873L140.419 57.85L140.444 57.2881C140.527 55.4934 140.602 53.12 140.344 50.6963L140.286 50.1679L139.578 49.9163C139.411 49.8576 139.245 49.7989 139.087 49.7402L137.471 49.2035C135.981 48.7087 134.482 48.2055 132.984 47.7358C132.384 47.5429 132.068 47.2242 131.893 46.6372C131.385 44.9347 130.702 43.3413 129.87 41.8904C129.545 41.3285 129.537 40.8421 129.836 40.2215C130.569 38.6951 131.285 37.1604 132.001 35.6173L133.075 33.3026L132.726 32.8917C131.052 30.9208 129.537 29.4448 127.955 28.2455L127.538 27.9269L120.636 31.4576C120.403 31.575 120.195 31.6337 119.987 31.6337C119.779 31.6337 119.57 31.575 119.354 31.466C117.622 30.5602 115.957 29.8893 114.258 29.428C113.784 29.3022 113.492 29.0255 113.318 28.5475C113.151 28.103 113.001 27.6501 112.843 27.1972L112.543 26.3502L110.686 21.1254L110.145 21.0835C109.196 21.008 108.247 20.9744 107.331 20.9744C106.074 20.9744 104.808 21.0415 103.576 21.1841L103.06 21.2428L102.818 21.9137C102.768 22.0563 102.718 22.1989 102.668 22.3414L102.102 24.0607C101.594 25.5954 101.095 27.1301 100.612 28.6649C100.437 29.21 100.154 29.5035 99.6461 29.6545C98.1391 30.1074 96.9402 30.6022 95.8661 31.1892C94.867 31.7427 94.3341 32.0027 93.9678 32.0027C93.6597 32.0027 93.26 31.8098 92.5357 31.4576C92.3275 31.3569 92.0861 31.2395 91.8196 31.1137L86.2995 28.4888L85.8915 28.8494C84.4344 30.1493 82.8941 31.5414 81.5619 33.1265L81.1873 33.571C81.1873 33.571 84.0514 38.8126 84.8257 40.2131C85.1338 40.775 85.1338 41.2363 84.8091 41.7311C84.3262 42.4859 83.9349 43.2658 83.6601 44.0541C83.2271 45.2786 82.8108 46.503 82.4112 47.7442C82.253 48.2222 81.9782 48.499 81.487 48.6583L79.5637 49.2789L74.2267 51.0233L74.1101 51.9459C74.0685 52.2645 74.0268 52.5665 74.0102 52.8684C73.9103 54.8979 74.0102 56.6255 74.3099 58.2945L74.3932 58.7725L75.0926 59.0241C75.2841 59.0996 75.4756 59.1666 75.6754 59.2337L76.4248 59.4853C78.1649 60.064 79.9134 60.6343 81.6535 61.2046C82.2114 61.3891 82.5028 61.6574 82.6526 62.1103C83.2188 63.9134 83.9682 65.6494 84.8757 67.2848C85.0922 67.6706 85.1005 68.048 84.9007 68.4757L84.1014 70.1949L81.5536 75.621L81.895 76.032C83.4186 77.8518 84.9673 79.3698 86.6491 80.6865L87.0654 81.0135L89.3718 79.831C90.8788 79.0595 92.3858 78.2963 93.8762 77.5164C94.1426 77.3822 94.4007 77.3151 94.6338 77.3151Z" fill="#2043DF"/>
<path d="M10.3911 113C9.85825 113 9.41697 112.664 9.23379 112.128C7.49365 107.003 5.76183 101.879 4.05499 96.7552C3.94675 96.4197 3.86349 95.9333 4.11327 95.5475C4.32142 95.2204 4.73772 95.0024 5.27892 94.9437C8.14308 94.6334 11.0156 94.3063 13.8797 93.9792L18.3425 93.476C18.6089 93.4509 18.867 93.4257 19.1335 93.4005C19.4832 93.367 19.8329 93.3334 20.1826 93.2915C20.2741 93.2831 20.3741 93.2747 20.4573 93.2747C21.2233 93.2747 21.7229 93.6689 21.7978 94.3314C21.8394 94.6585 21.7562 94.9688 21.5564 95.212C21.3232 95.5056 20.9652 95.6901 20.5322 95.7404C19.0419 95.9165 17.5598 96.0758 16.0695 96.2352L13.4884 96.5119C13.0555 96.5623 12.6225 96.6126 12.1562 96.6713L9.35868 97.0235L11.0572 98.2731C12.1146 99.0531 13.172 99.615 14.0129 100.076C19.1834 102.861 24.7036 104.538 30.4153 105.066C31.8224 105.2 33.2378 105.259 34.6283 105.259C42.2133 105.259 49.4986 103.28 56.2843 99.3717C59.2817 97.6441 62.1042 95.4888 64.6687 92.9644C65.01 92.629 65.3431 92.2851 65.6844 91.9497C65.9509 91.6813 66.2173 91.4045 66.4921 91.1362C66.7419 90.893 67.0582 90.7588 67.3996 90.7588C67.6994 90.7588 67.9824 90.8678 68.1989 91.0691C68.6652 91.4968 68.6902 92.3019 68.2489 92.7883C66.0674 95.2288 63.5197 97.4848 60.6805 99.4808C55.1353 103.381 48.9241 105.938 42.2216 107.096C39.6988 107.532 37.1261 107.75 34.5783 107.75C32.7133 107.75 30.8233 107.632 28.9416 107.398C22.1059 106.551 15.6698 104.219 9.79164 100.454C9.7167 100.403 9.64177 100.361 9.53353 100.303L7.41039 99.0782L11.0072 109.746L11.2071 110.316C11.3236 110.66 11.4485 111.004 11.5568 111.356C11.7649 112.044 11.4319 112.74 10.7908 112.941C10.6575 112.975 10.5243 113 10.3911 113Z" fill="#2043DF"/>
<path d="M74.36 22.2493C74.0686 22.2493 73.7938 22.1402 73.569 21.939C73.3193 21.7041 73.1777 21.4022 73.1611 21.0835C73.1444 20.7481 73.2776 20.4126 73.5274 20.1443C75.8004 17.6618 78.3066 15.4478 80.9709 13.5692C86.5494 9.63594 92.7939 7.05289 99.5297 5.89555C102.061 5.45945 104.634 5.2414 107.181 5.2414C108.988 5.2414 110.82 5.35043 112.635 5.56848C119.604 6.40713 126.131 8.77213 132.06 12.6048C132.126 12.6467 132.193 12.6802 132.301 12.739L134.283 13.7621L132.742 9.21662C131.926 6.80968 131.127 4.44468 130.319 2.08807C130.045 1.29974 130.061 0.880413 130.361 0.486247C130.611 0.167559 130.911 0.0166016 131.285 0.0166016C131.377 0.0166016 131.477 0.0249881 131.577 0.0417611C131.893 0.100467 132.293 0.251424 132.526 0.930732L137.68 16.1942C137.846 16.6806 137.83 17.1251 137.63 17.4438C137.38 17.838 136.905 17.9721 136.547 18.0141L131.468 18.5844C128.263 18.945 125.049 19.3056 121.843 19.683C121.627 19.7082 121.419 19.7333 121.211 19.7333C120.894 19.7333 120.67 19.6746 120.47 19.5404C120.07 19.2721 119.837 18.7437 119.937 18.3412C120.137 17.536 120.536 17.3851 120.861 17.3432C122.376 17.1419 123.883 16.9741 125.399 16.8064L132.634 15.9845L130.694 14.7098C129.154 13.695 127.647 12.8396 126.073 12.0764C121.169 9.71142 116.124 8.31087 111.078 7.92509C109.779 7.82445 108.472 7.77413 107.215 7.77413C95.325 7.77413 84.8841 12.2022 76.1751 20.941C76.0086 21.1087 75.8504 21.2848 75.6839 21.4526C75.559 21.5783 75.4424 21.7125 75.3175 21.8383C75.0594 22.0983 74.7097 22.2493 74.36 22.2493Z" fill="#2043DF"/>
<path d="M34.6949 69.9351C26.2606 69.9183 19.3916 62.9994 19.3916 54.4955C19.3916 45.9832 26.2606 39.0475 34.7199 39.0308C38.8329 39.0308 42.6796 40.6577 45.577 43.6014C48.4995 46.5786 50.0814 50.5119 50.0398 54.6884C49.9482 63.0917 43.0792 69.9351 34.7282 69.9351H34.6949ZM34.7615 41.4964C27.651 41.4964 21.8478 47.2915 21.8228 54.4116C21.8145 57.9004 23.1383 61.1796 25.5695 63.6284C27.9841 66.0773 31.2146 67.4275 34.6616 67.4275C41.772 67.4275 47.5503 61.6492 47.5753 54.5458C47.5836 51.0822 46.2598 47.8198 43.8452 45.3458C41.4223 42.8718 38.2168 41.5048 34.8031 41.4964H34.7615Z" fill="#2043DF"/>
<path d="M107.273 69.9351C98.8387 69.9183 91.9863 62.924 91.9946 54.3446C92.003 45.8993 98.9053 39.0308 107.365 39.0308C111.461 39.0391 115.283 40.6577 118.172 43.6014C121.078 46.5619 122.66 50.4867 122.618 54.6549C122.535 63.0833 115.666 69.9435 107.29 69.9435H107.273V69.9351ZM107.373 67.4359C110.812 67.4359 114.159 65.9934 116.573 63.4859C119.004 60.9531 120.287 57.5901 120.17 54.0175C119.945 46.9896 114.242 41.4796 107.19 41.4796C103.801 41.488 100.629 42.8215 98.2392 45.2452C95.7747 47.7444 94.4175 51.0822 94.4342 54.6381C94.4591 61.6911 100.229 67.4275 107.29 67.4275H107.323H107.373V67.4359Z" fill="#2043DF"/>
</g>
<defs>
<clipPath id="clip0_116_9351">
<rect width="143" height="113" fill="#2043DF"/>
</clipPath>
</defs>
</svg>
