<svg width="121" height="121" viewBox="0 0 121 121" fill="none" xmlns="http://www.w3.org/2000/svg">
<g clip-path="url(#clip0_116_9341)">
<path d="M16.6601 120.79C12.7401 120.79 9.74007 117.76 9.69007 113.75C9.62007 108.59 9.64007 103.34 9.65007 98.27C9.66007 96.04 9.66007 93.8 9.66007 91.57V86.09L9.45007 85.87C8.86007 85.26 8.29007 85.19 7.90007 85.19C7.78007 85.19 7.67007 85.2 7.55007 85.21H7.40007C7.27007 85.22 7.14007 85.22 7.01007 85.22C2.87007 85.22 0.0600736 82.44 0.0300736 78.3C-0.0199264 71.99 -0.0099264 66.8 0.0700736 61.98C0.180074 54.88 5.85007 47.32 12.7001 45.12L12.8701 45.07C13.3501 44.93 14.0701 44.71 14.4201 43.88L14.4601 43.78L14.4701 43.68C14.5901 42.72 13.9901 42.15 13.5901 41.77C13.5201 41.7 13.4501 41.63 13.3801 41.56C9.43007 37.4 8.59007 31.28 11.2901 26.31C13.5001 22.23 17.9401 19.6 22.5801 19.6C23.2801 19.6 23.9801 19.66 24.6701 19.79C30.5401 20.85 34.8001 25.2 35.5301 30.87C35.9501 34.14 35.1801 37.21 33.2401 39.98C32.8701 40.51 32.5601 40.99 32.2901 41.46C32.1401 41.72 32.1201 41.99 32.1101 42.17L32.1001 42.28L32.0101 42.82L32.4901 43.07C32.9001 43.28 33.4001 43.39 33.9501 43.39C35.9601 43.39 38.9001 41.99 42.9401 39.11L43.2701 38.87L43.2501 38.46C42.9301 31.76 45.3701 27.32 50.7101 24.9L50.9701 24.78L51.0901 24.52C51.4901 23.61 51.4001 22.75 51.3201 21.98C51.3101 21.83 51.2901 21.68 51.2801 21.53C50.6001 11.99 57.0001 3.08 66.1701 0.82C68.3901 0.28 70.5401 0 72.5701 0C77.7701 0 82.3501 1.83 86.1801 5.43C86.5601 5.79 86.9501 6.14 87.3401 6.48C87.4901 6.61 87.6501 6.67 87.7901 6.72C87.8501 6.74 87.9201 6.77 88.0101 6.8L88.2801 6.91L88.5601 6.81C90.3301 6.15 92.1201 5.82 93.8901 5.82C95.4801 5.82 97.0701 6.09 98.6201 6.63C101.87 7.75 104.44 9.83 106.47 12.97C108.41 15.98 108.58 19.4 108.58 22.93V23.46L109.08 23.63C109.82 23.88 110.51 24.06 111.19 24.24C112.39 24.55 113.42 24.81 114.33 25.4C119.4 28.68 121.53 34.39 119.87 40.31C118.34 45.79 113.27 49.49 107.26 49.51C100.11 49.54 92.9501 49.54 85.8001 49.54H61.8301H59.6401C58.7001 49.54 57.7601 49.54 56.8301 49.53C56.8201 49.53 56.8101 49.53 56.8001 49.53C56.5501 49.53 56.3701 49.53 56.1901 49.54C56.0201 49.54 55.8401 49.55 55.6701 49.55C55.2901 49.55 54.8501 49.53 54.5201 49.39C53.8201 49.09 53.1501 48.94 52.4701 48.94C50.9201 48.94 49.6201 49.73 48.4401 50.58C46.1401 52.24 43.7201 53.73 41.3801 55.17C37.5301 57.54 35.6601 60.94 35.6801 65.57C35.7201 76.21 35.7301 86.86 35.7401 97.5C35.7401 102.48 35.7501 107.45 35.7601 112.43C35.7601 114.1 35.6401 115.48 35.0201 116.77C33.8601 119.21 31.3501 120.78 28.6201 120.78C26.6301 120.78 24.7601 119.93 23.3401 118.38L22.9001 117.89L22.3601 118.27C22.0201 118.51 21.6901 118.76 21.3701 119.01C20.6101 119.6 19.8901 120.17 19.0301 120.43C18.2301 120.67 17.4401 120.79 16.6601 120.79ZM12.1001 61.08C12.1901 61.31 12.1801 61.55 12.1501 61.87C11.9501 64.21 12.0001 66.58 12.0401 68.86C12.0601 69.84 12.0801 70.81 12.0801 71.79C12.0901 84.79 12.1001 97.78 12.1201 110.78V111.41C12.1201 112.34 12.1101 113.3 12.2301 114.25C12.5201 116.54 14.3701 118.21 16.6401 118.21C17.3601 118.21 18.0701 118.04 18.7401 117.71C20.5701 116.82 21.4501 115.23 21.4401 112.85C21.4101 103.43 21.4001 94.01 21.4001 84.59V79.87C21.4001 79.74 21.3901 79.61 21.3901 79.47C21.3701 79.13 21.3601 78.9 21.4501 78.7C21.7301 78.67 22.0401 78.65 22.3801 78.65C22.8801 78.65 23.3901 78.69 23.9201 78.73C23.9901 78.99 23.9901 79.23 23.9801 79.51L23.9301 112.16C23.9201 112.81 23.9201 113.49 24.0101 114.16C24.3101 116.45 26.1001 118.1 28.3601 118.17H28.5201C30.7901 118.17 32.7401 116.6 33.1501 114.43C33.3301 113.48 33.3301 112.49 33.3301 111.69C33.3501 96.02 33.3701 80.36 33.3801 64.69C33.3801 59.92 35.2901 56.35 39.2201 53.76C41.2701 52.41 43.3401 51.08 45.4101 49.76L48.0201 48.08L52.2901 45.33C56.5701 42.57 60.8501 39.82 65.1401 37.08C66.5101 36.21 67.1201 35.01 67.0001 33.43C66.8801 31.82 66.1401 30.65 64.8001 29.97C64.3501 29.74 63.8901 29.62 63.4301 29.62C62.4401 29.62 61.6301 30.13 60.9101 30.58L60.6401 30.75C54.2601 34.69 47.8901 38.66 41.5301 42.63C39.7301 43.75 37.9501 44.79 35.9301 45.19C34.4801 45.48 32.9801 45.5 31.6801 45.5H30.2001C29.9001 45.5 29.3001 45.51 29.2901 45.51C29.1501 45.51 29.0401 45.51 28.9401 45.5C28.8101 45.49 28.6801 45.49 28.5401 45.49C28.0901 45.49 27.4301 45.56 26.9001 46.13L26.8201 46.21L26.7701 46.31C26.4801 46.91 26.5501 47.48 26.6001 47.9L26.6301 48.11C27.0001 51.84 27.3801 55.57 27.7601 59.3C27.7701 59.42 27.7901 59.55 27.8101 59.67C27.8901 60.26 27.9101 60.55 27.7101 60.73C26.3501 62.02 24.9701 63.29 23.5701 64.58L22.4701 65.59L21.6801 64.8C20.4201 63.56 19.1001 62.26 17.7901 60.94C17.5801 60.72 17.5201 60.43 17.5901 59.82L17.7401 58.5C17.9201 56.92 18.1001 55.28 18.2101 53.66C18.2701 52.87 18.3601 52.08 18.4601 51.3C18.6401 49.83 18.8301 48.32 18.7501 46.83L18.7301 46.46L18.4201 46.25C18.0501 46 17.6801 45.88 17.2701 45.88C17.0001 45.88 16.7601 45.94 16.5801 45.98C8.56007 47.83 2.59007 54.93 2.29007 62.88C2.10007 67.9 2.19007 72.96 2.27007 77.87C2.32007 80.75 4.24007 82.68 7.06007 82.68C7.73007 82.68 8.42007 82.57 9.14007 82.36L9.68007 82.2V61.03C9.70007 61.03 9.71007 61.03 9.73007 61.03C10.2101 60.98 10.6601 60.94 11.0701 60.94C11.4601 60.93 11.8001 60.98 12.1001 61.08ZM22.8201 45.59C21.2201 45.59 21.0901 47.03 21.0301 47.73C20.8801 49.37 20.7501 50.95 20.6101 52.53C20.4501 54.42 20.2901 56.32 20.1201 58.21C19.9601 59.91 20.7101 61.13 22.3901 61.96L22.7501 62.13L23.0901 61.94C24.2201 61.3 25.4901 60.32 25.3201 58.41L24.9901 54.62C24.8001 52.41 24.6101 50.2 24.4001 47.98L24.3801 47.79C24.3401 47.21 24.2701 46.33 23.4001 45.73L23.2301 45.61L23.0301 45.59C22.9601 45.6 22.8901 45.59 22.8201 45.59ZM63.5201 27.48C65.4401 27.48 67.2401 28.5 68.3301 30.2C69.9501 32.73 69.3101 36.56 66.9801 38.4C65.2401 39.77 63.3201 40.96 61.4601 42.12C60.2801 42.85 59.0701 43.61 57.9001 44.41C57.8201 44.47 57.7301 44.52 57.6401 44.57C57.1701 44.83 56.3901 45.28 56.4501 46.38L56.4601 46.59L56.5801 46.77C57.1201 47.55 57.9401 47.55 58.2101 47.55C58.3001 47.55 58.3901 47.55 58.4801 47.54C61.8501 47.33 65.3001 47.31 68.6301 47.29C70.8001 47.28 73.0401 47.27 75.2501 47.2C76.4701 47.16 77.6901 47.15 78.9101 47.15C80.7301 47.15 82.5601 47.18 84.3801 47.21C86.2101 47.24 88.0401 47.27 89.8801 47.27C90.8601 47.27 91.8401 47.26 92.8201 47.24C94.8101 47.2 96.8301 47.17 98.8301 47.17C101.47 47.17 104.16 47.21 106.8 47.29C106.92 47.29 107.05 47.3 107.17 47.3C109.7 47.3 112.02 46.53 114.06 45.02C117.62 42.37 119.13 37.73 117.82 33.48C116.51 29.24 112.36 25.94 108.19 25.82L107.68 25.81L107.48 26.27C106.08 29.49 103.92 31.94 100.89 33.75C100.43 33.13 100.03 32.56 99.8601 31.81C101.98 30.6 103.5 29.17 104.51 27.46C106 24.92 106.63 22.82 106.53 20.64C106.42 18.16 105.76 15.92 104.56 13.99C103 11.48 100.84 9.68 98.1301 8.64C96.6401 8.07 95.1201 7.78 93.6101 7.78C91.4601 7.78 89.2901 8.37 87.1501 9.53C84.2901 6.33 81.3101 3.45 77.0301 2.44C75.1201 1.99 73.3701 1.77 71.6801 1.77C68.9601 1.77 66.4301 2.37 64.1701 3.55C55.5001 8.08 52.0601 15.57 53.9301 25.82C51.4701 26.46 49.6201 27.59 48.2701 29.28C46.8401 31.07 45.3501 33.22 45.8001 36.06L45.8901 36.63L46.4701 36.69C46.5601 36.7 46.6501 36.7 46.7301 36.7C47.5401 36.7 48.0401 36.3 48.4201 36.01C48.5201 35.94 48.6101 35.86 48.7101 35.8C49.9401 35.02 51.1601 34.23 52.3801 33.44C55.0801 31.7 57.8701 29.89 60.6801 28.26C61.5801 27.74 62.5301 27.48 63.5201 27.48ZM22.6001 21.77C16.7601 21.77 11.9701 26.62 11.9301 32.58C11.8801 38.33 16.7601 43.23 22.5701 43.29C28.4101 43.29 33.3501 38.4 33.4701 32.61C33.5201 29.98 32.2601 27.02 30.1701 24.89C28.2001 22.87 25.6601 21.76 23.0401 21.76C22.8901 21.76 22.7401 21.76 22.6001 21.77Z" fill="white"/>
<path d="M64.96 120.64C64.49 115.91 65.1401 112.08 66.9801 108.64C69.0301 104.81 72.18 101.95 76.3601 100.12L76.9001 99.8798L76.8001 99.2998C76.3801 97.0098 74.45 97.0098 73.81 97.0098C65.41 97.0298 57.0301 97.0398 48.6501 97.0398C48.5201 97.0398 48.03 97.0598 47.91 97.0598C47.67 97.0598 47.4101 97.0498 47.1101 96.9598C46.5001 86.9698 50.3201 80.2298 58.7701 76.3598L59.64 75.9598L59.0401 75.2098C55.9401 71.3198 54.56 67.7498 54.94 64.6098C55.27 61.8798 56.9501 59.3298 59.93 57.0298C61.58 55.7598 63.6501 55.0898 65.9101 55.0898C68.8301 55.0898 71.75 56.2498 73.74 58.1798C75.32 59.7198 76.3301 61.4998 76.7601 63.4798C77.2001 65.5298 77.14 67.5098 76.57 69.5098C76.01 71.4598 74.7701 73.0298 73.07 74.7798L72.5501 75.3198L73.09 75.8398C73.97 76.6798 74.9501 77.2098 75.9101 77.7098C76.8801 78.2298 77.8 78.7098 78.49 79.4898L78.84 79.8898L79.3301 79.6898C80.8801 79.0698 82.42 78.7498 83.92 78.7498C85.39 78.7498 86.88 79.0498 88.35 79.6498L88.82 79.8398L89.17 79.4798C90.18 78.4398 91.4901 77.7898 92.75 77.1598C93.23 76.9198 93.71 76.6798 94.17 76.4198L94.5501 76.2098V75.7698C94.5601 74.6698 93.96 74.0498 93.52 73.5998C93.43 73.5098 93.35 73.4198 93.27 73.3298C90.38 69.9998 89.68 65.0698 91.57 61.3298C93.4501 57.6198 97.3601 55.1198 101.32 55.1198C101.55 55.1198 101.78 55.1298 102.01 55.1498C107.18 55.5398 110.75 58.2198 112.05 62.6998C113.28 66.9198 112.47 70.5798 109.64 73.5798L109.51 73.7098C109.17 74.0598 108.65 74.5798 108.63 75.6398L108.62 76.1298L109.06 76.3398C117.47 80.2998 121.18 87.0498 120.39 96.9698C120.15 97.0298 119.94 97.0398 119.74 97.0398C119.63 97.0398 119.16 97.0198 119.04 97.0198C113.65 97.0198 94.09 96.9998 94.09 96.9998C93.16 96.9998 91.4401 96.9998 90.9101 99.2098L90.77 99.8098L91.3301 100.07C99.5501 103.89 103.31 110.62 102.82 120.63H64.96V120.64ZM83.7301 101C79.8601 101 76.23 102.36 73.21 104.93C69.35 108.22 67.4 112.42 67.42 117.4V118.15H100.08L100.17 117.5C100.88 112.48 97.18 106.04 91.93 103.15C89.3601 101.75 86.5301 101 83.7301 101ZM83.82 81.2798C81.4701 81.2798 79.2801 82.1898 77.6501 83.8398C76.0301 85.4798 75.15 87.6598 75.17 89.9898C75.22 94.5998 79.1501 98.4898 83.75 98.4998C88.46 98.4998 92.4501 94.5898 92.46 89.9598C92.47 87.5998 91.59 85.3998 89.9701 83.7798C88.3801 82.1698 86.19 81.2798 83.82 81.2798ZM65.82 77.3098C63.3 77.3098 60.95 77.8498 58.85 78.9298C53.02 81.8998 48.8101 88.8898 49.8401 93.8798L49.96 94.4798H73.67L73.3701 93.5098C72.0101 89.1098 72.9001 85.2598 76.0101 82.0698L76.5 81.5698L76.03 81.0498C74.01 78.8098 69.91 77.3098 65.82 77.3098ZM101.63 77.2998C97.66 77.2998 94.0301 78.6198 91.6501 80.9298L91.1201 81.4398L91.6201 81.9798C94.7001 85.2998 95.59 89.0598 94.35 93.4598L94.0801 94.4098H117.85L117.94 93.7698C118.72 88.4698 114.33 81.4698 108.55 78.7798C106.46 77.8098 104.06 77.2998 101.63 77.2998ZM101.59 57.5198C96.69 57.5198 92.9801 61.1998 92.9401 66.0798C92.9201 68.4198 93.8101 70.6098 95.43 72.2498C97.05 73.8898 99.2301 74.7898 101.58 74.8098C106.25 74.8098 110.21 70.9898 110.3 66.4598C110.35 64.0598 109.48 61.8098 107.85 60.1298C106.24 58.4698 104.06 57.5398 101.7 57.5198H101.59ZM66.02 57.5198C61.26 57.5198 57.4901 61.2598 57.4501 66.0298C57.43 68.4298 58.3 70.6398 59.91 72.2698C61.53 73.8998 63.7401 74.7998 66.1501 74.7998C70.8101 74.7998 74.76 70.8498 74.77 66.1798C74.79 61.3498 70.96 57.5498 66.07 57.5198H66.02Z" fill="white"/>
<path d="M59.86 19.7C59.65 19.7 59.45 19.69 59.25 19.68C58.99 17.83 59.78 15.58 61.46 13.4C63.94 10.19 67.66 8.04004 70.71 8.04004C70.88 8.04004 71.06 8.05004 71.23 8.06004C71.34 8.59004 71.23 9.11004 71.07 9.71004C65.48 10.72 62.09 14.1 61.23 19.54C60.81 19.65 60.37 19.7 59.86 19.7Z" fill="white"/>
<path d="M76.4302 10.9698C76.4602 10.2498 76.6702 9.55982 77.0802 8.81982C78.1802 9.29982 79.1702 9.81982 79.9302 10.6398C79.6102 10.9898 79.2502 11.2698 78.8802 11.5598C78.7302 11.6798 78.5802 11.7898 78.4302 11.9098L76.4302 10.9698Z" fill="white"/>
<path d="M95.7701 41.6098C95.3901 41.6098 94.9901 41.5598 94.6001 41.4998C94.4001 40.7598 94.3501 40.0898 94.4201 39.3998C94.7001 39.3098 95.0101 39.2798 95.4101 39.2798C95.6501 39.2798 95.8801 39.2898 96.1201 39.2998C96.3601 39.3098 96.6001 39.3198 96.8401 39.3298C97.1001 40.0398 97.0001 40.7198 96.8001 41.4798C96.4901 41.5598 96.1501 41.6098 95.7701 41.6098Z" fill="white"/>
<path d="M87.5801 41.65C87.2801 41.65 86.9801 41.63 86.6901 41.6C86.4501 40.95 86.4101 40.25 86.5701 39.39C86.8701 39.31 87.1901 39.27 87.5501 39.27C88.0001 39.27 88.4601 39.33 88.9501 39.39C89.1201 40.06 89.0301 40.72 88.9201 41.46C88.5201 41.59 88.0801 41.65 87.5801 41.65Z" fill="white"/>
<path d="M102.56 41.6298C102.28 40.9798 102.23 40.3098 102.39 39.4398C102.74 39.3698 103.1 39.3398 103.48 39.3398C103.87 39.3398 104.25 39.3698 104.68 39.4298C104.92 40.0998 104.84 40.7598 104.67 41.4898C104.21 41.5998 103.73 41.6098 103.22 41.6198C103.01 41.6198 102.79 41.6198 102.56 41.6298Z" fill="white"/>
<path d="M78.6701 12.7002C78.5601 12.7002 78.4501 12.7002 78.3401 12.7002L78.3301 12.7202C78.4501 12.7202 78.5601 12.7202 78.6801 12.7202L78.6701 12.7002Z" fill="white"/>
</g>
<defs>
<clipPath id="clip0_116_9341">
<rect width="120.51" height="120.79" fill="white"/>
</clipPath>
</defs>
</svg>
